<mxfile host="Electron" modified="2024-04-22T23:11:07.577Z" agent="Mozilla/5.0 (Windows NT 10.0; Win64; x64) AppleWebKit/537.36 (KHTML, like Gecko) draw.io/24.2.5 Chrome/120.0.6099.109 Electron/28.1.0 Safari/537.36" etag="M310xSdCGJZ7UbFzj2y3" version="24.2.5" type="device">
  <diagram name="Page-1" id="5tHls2qDoW-9KGomdHx4">
    <mxGraphModel dx="1434" dy="836" grid="1" gridSize="10" guides="1" tooltips="1" connect="1" arrows="1" fold="1" page="1" pageScale="1" pageWidth="826" pageHeight="1169" math="0" shadow="0">
      <root>
        <mxCell id="0" />
        <mxCell id="1" parent="0" />
        <mxCell id="WUom28d4KmBdgQUNbQlb-57" value="" style="shape=mxgraph.mockup.containers.marginRect;rectMarginTop=10;strokeColor=#666666;strokeWidth=1;dashed=1;rounded=1;arcSize=5;recursiveResize=0;html=1;whiteSpace=wrap;" vertex="1" parent="1">
          <mxGeometry x="270" y="350" width="360" height="320" as="geometry" />
        </mxCell>
        <mxCell id="WUom28d4KmBdgQUNbQlb-58" value="Durable Azure Function -&amp;nbsp;&lt;span style=&quot;background-color: initial;&quot;&gt;AI Orchestration&lt;/span&gt;" style="shape=rect;strokeColor=none;fillColor=#CCCCCC;strokeWidth=1;dashed=0;rounded=1;arcSize=20;fontColor=#000000;fontSize=13;spacing=2;spacingTop=-2;align=left;autosize=1;spacingLeft=4;resizeWidth=0;resizeHeight=0;perimeter=none;html=1;whiteSpace=wrap;" vertex="1" parent="WUom28d4KmBdgQUNbQlb-57">
          <mxGeometry x="5" y="-4" width="270" height="30" as="geometry" />
        </mxCell>
        <mxCell id="WUom28d4KmBdgQUNbQlb-61" value="" style="group" vertex="1" connectable="0" parent="WUom28d4KmBdgQUNbQlb-57">
          <mxGeometry x="13" y="40" width="151.5" height="110" as="geometry" />
        </mxCell>
        <mxCell id="WUom28d4KmBdgQUNbQlb-62" value="&lt;div&gt;&lt;br&gt;&lt;/div&gt;Semantic&amp;nbsp;&lt;span style=&quot;background-color: initial;&quot;&gt;Kernel&lt;/span&gt;" style="rhombus;whiteSpace=wrap;html=1;rounded=1;fillColor=LIGHTBLUE;" vertex="1" parent="WUom28d4KmBdgQUNbQlb-61">
          <mxGeometry x="2.25" width="147" height="110" as="geometry" />
        </mxCell>
        <mxCell id="WUom28d4KmBdgQUNbQlb-63" value="" style="shape=image;verticalLabelPosition=bottom;labelBackgroundColor=default;verticalAlign=top;aspect=fixed;imageAspect=0;image=data:image/png,iVBORw0KGgoAAAANSUhEUgAAA4AAAANGCAYAAACsheD+AAAAAXNSR0IArs4c6QAAAARnQU1BAACxjwv8YQUAAAAJcEhZcwAADsMAAA7DAcdvqGQAAP+lSURBVHhe7P1Xd2RZkqUJHnBOjFPn4R4kszKzqqu7p3vW9JpZa/72vMxrTVdXVWYGce7GwZlyAox8+5yrBqfhbgaDXgX2F3ZDASUwc8W9R2UfEdky9eLFi7NkjDHGGGOMMebKM11ujTHGGGOMMcZccSwAjTHGGGOMMeaaYAFojDHGGGOMMdcEC0BjjDHGGGOMuSZYABpjjDHGGGPMNcEC0BhjjDHGGGOuCRaAxhhjjDHGGHNNsAA0xhhjjDHGmGuCBaAxxhhjjDHGXBMsAI0xxhhjjDHmmmABaIwxxhhjjDHXBAtAY4wxxhhjjLkmWAAaY4wxxhhjzDXBAtAYY4wxxhhjrgkWgMYYY4wxxhhzTbAANMYYY4wxxphrggWgMcYYY4wxxlwTpl68eHFWvjbGGGN+HWfx0cGf09NyG/8Xx9nwNN/H1zqqx0/T1PeeN9T9+lo/i2+4KY/zPO760f38fB7L9/+Qqfhf/jvy8/S6C2RqairfTsdtHFPT0/HP/PHfoefFcf551f16Ng+ff0zflz3Z8vUZD8/MlOfk555/fvXz82PTr5/D/eVxY4wx5odYABpjjPlthKhCXE3FcdofprM4ht1+OusN02l3ELeDuO2nYdzymERhn6/jVo/lx/V1HAi7StCdDuL5/BxeOyhiL6h+hu6Pn5ni+5+C5w35N/CceL1+9kWCgENjzYbgmp9J03MzaWomvv6B2NJzQrxNxePTC7Px/BBy8ZzpSuzF62cW5+PxeC0/Kx7XET8rxTE9N5tS3D89P6vXTy/M6e+b4vs49Fg8n7+f70d/D/8e/q5KGFoEGmOM+QEWgMYYc5VBrLHK83864k+IoipLN8q2xfeniCq+Pve86n5l78r9PI7QQmAhyHQg6joh+uI4C3Gn78tjiDUJNx0hFtu98vyefsZZiD79ncEpPxMBx2sRcfwbdH8WmpVw1N//U8T9/BtO4+/Rz/65570pRQBK+IXgmkF8zfyE0OIuBF0IOZ6n5ytLd14AIuqyoDsvArMA5LVxxGMzS/OvRaBuEXr5NXoez+F+fp5eFwIx/k0IRAQl72AWg9zyb+CL/D2Zw2kELMKT+zlGz6+yi/lrvV63cRhjjJlYLACNMeaqEqv7qBwTEYaIQhSRleNAZBWxRQZPX+uxIr7iuTmzV+4f5p9D+aZuq+fE8yW2eA7f9/ohxOK58TV/p8oxEWI8pzzvlIxgfI1gq8pEAbGJIOQxMoyjDCA/g58VjyvryGt+AoTqsJ9/bv7ZF/sRp58W+gdxlbNwIZ5CEMW/VI9XSCiFcJKgK0Ksyv5JQMVjiDeJPX6GBFg+KkF2xrcIung9GUGJRL0mi7szfgY/n+/1eM4I8u96LRDL68oxyixWPxcBWsSjjvj+LP59/Jv0Wp5XMp38fd8TkMYYYyYSC0BjjKk7JTumm/NZuHNf63vEzvnHi/CrBBXCS+WRRfidkomLg4zcGdm7Vs7MVYLwjOdwvzJ28b0EXBZ/ZOpSJch0X/yl/P1xnNLfx98dxyhzWP1b9Jx4rZ7HbdwXd1Vy4nWvX77Vg+X+3EMYz+d15f4fwt2vX1vuuGiKiJNo+zktxOM8gFgqgikLxfx8RBav/16mTbdxH8/j27iv6gMcPTeO6lY/SLfxh+fwGILwnNBDwCk7iNArR5qbjvuy2FMWc3khzawspNnVRX3Pz6zEH1nK6aU4uD9+tkQkfwf/xvLfov/TES89L3JHt/Hvipv8fO40xhgzTiwAjTGmrlTiJW4kfBBGCC2EVHUgwri/iLxKkCW0lTJ5VVaPvrq4rcQfZZJFAJ62EX/dLAZVPpmfgwCU+Cv3I/gQfpUA5O+cKv+uLPTyvzkLU76JwF//AYHur27j+fnL8n+vOf/aHz6WX8Pj+fuf4pdef6H8WlETD1XC7zz5dfn/Rq8vt/n58R7pNn9//ufwbXX/j35OiLezEItVJjCLvpzpQ/RRLkpGrxKAyvoVATizGsfifBGAZP7iNZUAjFuVn/J6HpMgjQMRzN/JaxCIM/HvKEJRj/Fvie+zoI37+Dfy7zXGGDM2LACNMaauhICR6CNjFsJPZZlFyJGRy0ItZ+ok3BBp3EefXaeXxV55jsSfXlsEYfUcxGCV7ePnKNNXnlcEo/r6+L6IztNSCjqFwHqXmTbz20FgSXjlMk4JMQRbiDCJt9FtFonqQZTIm1cmkOeqBLWIuNx7mJ8zxfOKEJSY5Hn8DF5TCcrquTwnxOTIvCZ+HkJRohANKNVqjDFmHFgAGmNMDRllulTyGOIPEYfIa4Voa/fToNlNwzgGjU4acpx00uC4nb+O+3keWT1l8BCG/Zy1U7kmghLhVoScjF64n+xiJTi51WPxd8dj+f7vZ+54XoT0Fn91Qhk2jvgTWku/MMoyEV9k4HTwWDxQMnhk72ZCxClbJ4GWX1+9bpqsHsJuOUTiyqKyhRKNiL64lUmNHltIs2tLaWZtMc2uxy0ZRTKLPJ/Xz81KmGYRyF9gjDFmHFgAGmPMZRGrrcSVxFMWWJXIqgTX90QX3yPaKOMkQ6dSzRB2RfxJAJ6002mjm/qIvzj0fbMXAjGEIGKR7B1ZPbJ/CDz+nMXfUYQb2o1CQgnO+KoKy79Xaqnn5ccr9JXuM7VjJK4oI61+jfFFuR/tN/rN6b74Lm5fZ+Xi9x3//7rENB6bC3EYIk/loog9OZMW8VcEID2ElfjjmI7vZ0MEcigrSIYwDpWmVhnBSpwiCsvt6Ovqcf5Zo3+bMcaYt8UC0BhjLoNYaSXu4lBvHmWcZPR05Czd9w4En27jqMo4S5lmLvnM5Ztnndynp4M+vvi+ep3KNnltKd9UNP+DFT8Lu9eMJMAPBN/PPc/UG3RT/s2d/429/l1Wok+/7V8SWZSUksWLIxUhpxLSqvyTxyj5JCMYIlElpaV3cHphJgvF8ngWg7kPUaJQr6VstAjK+L7qN5RgRBSGGLQINMaYi8EC0Bhj3hBEESGptBH/pyPfr4j63H3K6GGc0s+9d8N2iLQqi9fo6Gtuz1q9uM33n1YlnMrgMV6BcQtDZQUrV0/EJD+X/sBRf58e57ZkETnIMvJvMuYNkAAbGbxQLpqzddUYilHP4HwIPAnDEG9FIKoPESMaRCHZQwnEIg65r5SJKoNYlYyWLKOEIEIxfgYCcCQE+TOdZxzydeU+yve/KGSNMcZYABpjzJvwPZFXlW8iukpfHQdz7NRbx4FAK1k9iTpKOU86qX/cUgnnIL4enlDCmfv5Rr18ZPZ4HeKPys3Tc2JO5aT535DNYvi35McJgfPz4v7q32rMGyJRxUlVRJhOp3PfV7fnSzZ1f3yvW8RhiL6RANRtEX+Uiq4txRECkJLR9eW4n7LSXG4q8xllAovTKEcRncoOxi2GN6pt5e/j74fRF8YYY85jAWiMMW9CiCrm2EnkUWZJWWaINfXqkYkrR3W/+vcQc62uTFxk0FIygNWBKKzMXfhaIxp4fTcPVh8JTmMmjMpRVBm9xZLdW5zVbRaCr7N/OuI+9RzG41W2kJEUKhNFEJbsYS4dLeMq4jFlIyvRaQFojDE/iQWgMcb8VkrGTWYtIc5kzIIRy0FT2Ttl9zBhKe6c/cOWHDpV4knpp4Rd3Jayzao0VN9Twllu89w9HDjj7yzZPGMmEQmyEGdyGp0rfX2UhiIMz5eLlkP9fxKLCL0QfSVTOLO2lOY2ltPM+mKau7GaZjey6yjHXBwIRGUHZ2biL+Uvtgg0xpgfYgFojDHnOF/aWYk8GaiUsk6O8/18iDmE3eAoBF4IwMFxEX46unF/K/X2G7msk8xePF/mLby2iDoNUS+lm9VB2JodQ/mCfxm31RfGTBgIMQmy+DP9undPDqMhDqusHQPjuV+9hcoaku2bTbMhAHEVRfzNcmzGcWMlHyEC5TyKEFyeT6kIyNyXSLloLg9V+Wh8nYfS57+Xf4d7Bo0x1w0LQGOMOYcEGELvfN8eGbs4MG7J5Zzle8o0q1LOqo8vvmb0gkxeeE58n+/v6GdVpaGauVcg/Dzfp8fXo/v4ysLPXAUktOLcjtvqjB6JL4Qgp3r+Lgs0MoaIwJINpHcwl4jSK5izftxOLc9JIEoklr7BynCmKhOVu2j5WqWoCER+fgjPSogaY8x1wQLQGHN9CCElLVUJqvK9Qj++rsSfhF8IOMYptPqpf9RSBk9lnCftnM3jIPMXh0o+EYXx/DPGO1DWyc/ga0pEdX8ISRw7EX78HfF3GWN+BkRZydLlstGZ0RzB132A2SVUIyVKD6BEn0xlskDkVqYyul1K0yvZeEZiUFnCaWUFR+Y15e+WGi2iNP+fMcZcHSwAjTHXg0rgIbx0lJLLUtY5KvFEqCnr15chy2kIvd5+U+Wd/YNGGtDPFwd9fQxe1yiHEH+MadDry89WKiO+xiiG+6fK3y/FqRueYIz5WaTBihCjXJMvKRVFsJWyTpV2UtbJLW6gZP4oB92gVzAOSkRLuShfz+h+XEZDBIZolKgMcameRB3xM+NWJajl50uEWgQaY64QFoDGmGuBxB7z8kbZuRB5cUjwkenjoGSTTB7lmzJyyeWb9PFVgo9sIN/n0Q0hAOO5ZP0kIo0x40FCMfQaWcBV+gUX0hxCUGKw9A1iGFP1CioLSBaxlIdyS0axfD/KLMbPowxVgtMYY64IFoDGmGuBxF+IvOzYmcs3h834ugi8wWEz9fcb2cQlnnNWxKCye2QEEYi6DYEYtwxzT/08gN0lncaMF119IQKZBzgdwk09fioVzWIuj5DIrqJ8PYP4I1tI72ARinNkCjdX0syNIhjjvkooauagk4DGmCuCBaAx5kowMk5BiIUgOw3Bd965k0wfgk99fOrp6+prsnq4dA7i6O2exGNxXwjARA9gGdVA397o58Shn88tWUWVdeofoH+HMWZMVFlAsnWUbaqks5RyzuQS0aqfEJGIGJylX3A9jhB+KhO9tZrmbq+luZu4i2YRqHmECEgygXISrX52HKU89Hs9hMYYU3MsAI0xkw8aDAFGX18ItuzO2cu3lHR24mt69ZjVh8CLo0//Hs/ByKUIQfX4xXMSZaEh/sgayq3zfN/eD78m6tOtMWbsIMYQYhKDfI3jaFyf+j7+qIcwvoiD8k6Ve4bA0xzBjTxSYgYxSK8gGcDV7Dw6HQe3Os65i0pIzpW5hnFYBBpjJgELQGPM5BBCC61FjHVejEmQDYeaz8egdfXrIfKYy6dsXxZ5OfuXb8kGnlVOnyoNzeMc9H1/kKbwcSHj59JOY64OIyH4WgRSKqrS0DJCYipuyfrNFsdQjZdAIN5clZGMjGXWs8uoxk6QHaTkFDOZ+Ln8FfnvOfe1McbUCAtAY0z9KRk2ibFScnkagu/8kHZKNc9CuCHu+juN1Ns+Tv04ujvHKu+UcyfZvxCDGLhoJh8Cr5RySjwy4L38/EpcSmgaY64OEmRnORuIEES0kb2ryjopFaWXUL2Ds8r24SQ6f28jLZRjllLRmysylclZwYXcY1iJQH4et9XXFoHGmBphAWiMqTeVEEOoYeSCg6f687IRy8igRUcvDY87qbdzkrrbR6m/20j9vZMi/loqAWWuH2WhlIoaY8xPgjCkb1DzB2c0OmLuznpauLue5uN2lh7BEIUSgMwYXMu9grNkEMkoFsMZDZ0ny0j/oEWgMaYmWAAaY+oLwo+ZemT6MHGhp6/ZVf8epZyjEk+cOynrpJ+Pck+yfIxwkNNniD76ABGKZP0Y/UC2EEFpjDE/BVoNEUgGbzYPmp+lH3B1MfcDlj5AlYiGCJRjKLcbcchNNAQjpaL0E8bXiEGVnloEGmNqgAWgMWb8nOXePsTeVMn25SPu75dZffT2HWexh/DrM5x9r6HRDfpa5Z3F2IVsYLymyhhS2pkNXYqY5NalncaYnwOhhlbjBofPEILZ8GVGvX5Tc7MShgg7CcNKAIbom7+9qhLRhTvraS6+xlUUoYgLKeWgDLTX17P55/J3edi8MeYysQA0xowXxB99d/ThIdbkwDkoA9mzk+dZHAxdV3/fYRZ7lHUODlpy7pQojMfI+lEKmtB3EnvZxIWwittsHJP/TmOM+UUkyGL9kBisRFrcVUY+qIcwxCBzAtUHuHYuA3gzhCB9ghorEcf6soxiVBrKUbKHCEgJytJ/aBFojLkMLACNMZcOQowwRzqMEs9hiD9KPMnckcGrhrMj9OJWGT+cPYsIpJcvD3PPZZ68Jo97yKMbLPKMMZeBhBuZQXr9FnEOpUwUMbiY5wgiCBksT3ZwJZePzvIYJaK313LpKIPmQxxiPKO5hfzcogNZxVw2aoy5aCwAjTGXRxFl3Ki3j28p9UT8tfsSdQg9mbfsnKTe1pFuu9zi5BmPM+YBoZhKaecPB75b/BljLo0qMxiHxCAOotV4CUxgQtzNhSCcjgMjmVwiupbm72+khfdupbk7RQTKPCaXlepnovn4Px3ccIcxxlwMFoDGmMshRFkl0sjSkfHDwZMSz2EzZ/Mo5RwcNBMunr2d4ywC45bvZfZCpq8b4o/h7JSNGmNMHUEU4iJayj6VGWSWIHMEb62GANxMC49vpvm768oSIhA1h5DB9GWmoETk3HRKlJkiDI0x5oKwADTGXAoSfvT3dfpy5hzQt4eJy96JTFwo8xxS5okIPMnz+rKrZyn5pMQT0UjGD/HnlcsYU1fI2mH4EkIQ4xgJwZIRxEmUrN/cjVWJv5n1Ui5KmSjZQG71fb6fx2cW5/UzjTHmIrAANMZcHGT50GYh9qaqjB/mK0X8VWMcZOYS4q/36ih1Xh3mks/9Rhri5MmsPnr5EIsc3fi6P5RBjBw8K/HnMk9jTF0ppZs6SnnotJxD45YMXxGE2TwmC0KJvh8YyFAuiqMoTqMaVF+cRPUzy5HrRY0x5tdjAWiMeXuKGMti7yyLNrJ1ZfZezvoV0xbEH8YuZP+2jlNvO47d42z4ctzRc6cQjHGcxpGzfZXw4++JYMfizxhTdyTMYq2KW3r4EGtaueJ2GjHHEUJQbqAr8zn7t7GU5m6G+EME3l7XSAmNkaBMdIkM4rzKRJVNrAbMWwQaY34jFoDGmLenEmhxyMmz2c1OniH2NK6huHnqQADi5Ml9lH4y1oHvm9nJk2yfM3zGmOuA5gHOx0E2cDnEHYPmi2HMHNnAkhFEEM4iDOkhjFuVjq7Fc+kZREgiAo0x5ldiAWiMeTsQavwZ5mHr9PeppDMOSjy7Lw9T98VBwswFMSjxp3l9A4k9ZQoZ9l56+15n+owx5oozlbOB9Aoqm4cg5JbMIBm/5bk0u7aU5u+spcX3bqX5RzfS4uNbaeHBZpq7mx1EqzmCxhjza7EANMb8eiphJsF3em5wez+XerZ7yvL1dkIAUtp5TgBKFOLkGeJPpaEIvkD71hZ8xpjrzvkyTgnCOOZn0sziXJq7lQUgzqELiMBHN9PcvfU0d2NZWUDNIQzxiOFM1StYlZrmXkRnCI0xr7EANMb8OqpMH/P7KPVs91W+qVJOyjzj6DGrj6HtByH0yn3M9RtQ5nnSCYGIUOynxBgI+vsChyXGGPMDEICIN0ZJMBKCAfIqBV1VKahMYvg+BKBcQ+kfXItbykJxGaWv8FyfID/PGGMqLACNMT9NCD4l5vg/SjNLxi8xfL03VI9fd/s4DXZPspELB7P79pvplLEN9AHi+tnuvR7hwOuH+Wc562eMMT8DGTs0G0IwDs0EZIQEswJxDqVPENHHqAj6AuNQj2DVK7gZwpB+wuViGIPzKCKQnxk/uzKk8YB5Y64nFoDGmB8Tq0KV6dPQ9nMlnmTxcPQky0eZZxcnz62juD1KAwa3HzTyGId4Pq/VITdPRB8/l//zsmOMMb+IxFmslXFb9QmSDdQoiYVZlX6S8ZvdzCYxlInO3V5N83fWlS3EKIbREtNkA3EPjdckXlv1DCIuJTQtAo25blgAGmO+D5k/RBrirz9MwxaOnt3s1lnKPRnaLgdPDXJv5K/342tm+WHw0hukFKIvi73yc40xxrwd6DWEWwg4ZfUWZ/NgebmGhuiTSyhicDXN3Ij7KBeNgzJRsobKHi7NyWRGZjPqEbQANOa6YQFojPkeZP7I2Gn4OvP7QvR1Xx69NnQpB6Ivl3mG4KO3T1m/uO2H+KO9jywff5ztM8aYi0MikNEP8XUlBOOYXpzXKImcFVzWAHllBO9tpoW762mWr7kvHqtKQ2UWg/6zCDTmWmEBaMx1pmT7lKkrPX4jV89WLw0bHWX4ui9C/L04kBDsMNIBARjC8LSXDV3yCAcyfrnMM0cUgcWfMca8GxCClXijvy9EIb2C08oKLuRs4K21NB/ib/7eRhxxe2c99wkyWF7ZwPmUMJkJAYnhDD9j9DONMVcWC0BjriuV+Kt6/ELwaSB7HD1KPHHvxNGzlHqOyjwPuD+OZkeikVJRlYsi/vRz840xxph3Czot77nFF2i2mRCBygbO5XLPtUUNlUcMkv0bOYlSHhr3zfAYQ+URjKuLyiRm4xlKQ/nBxpiriAWgMdcElWJytXOLYDtf5tmkx6+V+rsnabDXlLsnX/d28/B2HD+HzZ7MX5QZxN2TPr8q4+dVxBhjxguCLYQgfX0Mh6c0FLMYsnwSgziGYgxTmcbcxjRmLWcFKQ1lpiCGMTKamcnD6cvhjKAxVwsLQGOuCcr2kbEbDEP4naZhpzh6NjrZ2GWvkXpy9DxO3VeHGuswwOTluJXOeox+CMFHtrD0+J0Nh+UH5xtjjDFjBgGIVisZPIlBCcJp9QdmIbik7B/ib+HepgbKL1Aeenc9zVAaymB5+gMRkHGMzGKMMVcGC0BjrglnzO/rDpS9O2v2Uv8ou3lS1qnyzt0QgMzxi1u5e6rcs6nRD7nEM5YKVgv39RljzERRicApxkeEEJxbX86ZwFurMoiZu0Ov4Jq+p1xUrqEMli/OoWQUjTFXBwtAY64JZPHo8UPskd3DybPz/EDungi/IT1/KvWMgzLPEH64epL1Q/hJ91n8GWPMxKEyzhCBZ9MpTc/lzB5ZvtkqI4hr6I1lZQEXHt1I8w9uFFGYy0PJHhpjrg4WgMZcNUKkKVtXSj4rZ0+VejK8fedEjp6Iv/bTfQlAMn7Dk7ZE4ll/kE4Hw5HByyjzZ4wxZjKpTGK4UXlo1Ss4rR7BnBUMIRiib+HxzTT/8EZaeLAp59CFextpNh6rhshr9ESISFxD3R9ozGRiAWjMFUOiLwTfGeWe7X4aHBfXTjJ/KvE8yRlAGb00Um/vRCYvZ514DcKviL4phCQZP68Qxhgz+Uioxdoetyzr3E4h4jCMoTQUs5gQevN3N/L8QAxiMIq5lQfM4yiKEJxm8HwcKg2dn7EINGYCsQA0ZpKRSMu3+kSP2yEjHWTu0k0D+vx2QvAxuw+DFwQg/X30/sVj2d2zKydQzfOrsn36ocYYY64ycvnE4EVCsIjA1YU8OiLEnlxD49DsQNxCi3OoXETjQARWWUFEoHSgxaAxtccC0JhJBfFXlWgy0kEOnUOZtiD8Bodtib3u8/3U/WZHJZ8a88BjTfr7BnL0zEPc+TlxS32QxZ8xxlwLyAKOxkeEGGT0Q+4RnJFhjEZILM/lMREPb6g0dOnRzTR/Pw+Wx02UXsLphTm5heYZgkUAWggaU1ssAI2ZVBBtId6U8Suz/E4bzPNr5l6/EH+McVC/35O91Ns60qw/nqdeP3r8jDHGmB8gEVeVh4YYnNtcSbP3QvSF8Fus+gM57qzlLCGloWQDEYLxOoSgRKVFoDG1xALQmAlF5i4Iv0YnD3GXucthFnq7J1kAUuoZx+CokwaYvJD1Y54fGUMyh8YYY8wPQb8h4iQEp7Nj6Nri6xmCd9azCLy/LkGojCBzBOPxmRCBZyECp0tZqDGmflgAGjMJlHLP886elHrSw6d+PsxcGOvwZE/jHWT4sn+STuPxAZlBuXuWUk8GuHPVu9TTGGPMz4F2kxBkfMRUmimjI+j7m91cVvZPGcHHN9PCozgebqbZ0hc4RVkoQ+TJIM7OnMsI8jMtCo0ZNxaAxtSZItIk/ij37PTTaaunbN7wqJ16ZPrikKOnZvsdqexTBi+Njp6rjB+v50dxw8+0+DPGGPP3qLQa4i1EHH1+OIZKBG4sqzdwntLQOOburqf526tphpmCmMiQMSxuobxGZjP8jCIGjTHjwwLQmDpCxk9CLb5GvA1D/GmkQztn/HZC+FHy+fIg3+4cK+vXP8DZs63s4Gl34F4/Y4wxF0bVG0iv38xSHAg8xF6IPpWGMjqC4fFljAQZQbmFxvOm5kM4xsHrk2YRogMtBI0ZBxaAxtSNIvxOKdWkZFOD3IepH+JPpi6Uej7dT91n+0njHcj+0e/X6ObnciD6eK0yf77EjTHGvD0j11AyeTPTaWp25vUcweUFiT1KQRfoC3wQtw829DX38zglpJodyOt4PT/LItCYS8cC0JiagXhjIDuij5JPuXuedDSwnVl+GL10nx3I3bOP4UvcPzjuKONnjDHGXDYq75ydlhso4yHoDVy4jwBEDG6m2duraXZzJc1tLKWZtaU0TfYQMUh/oEWgMZeOBaAxNYMMXu7z66TBYTP1GOT+MkRfHMr27TRyyedhK502Xg9y1zw/Y4wx5rIJ/YYI1EzA1dIfWJWF0idIf6BE4UaIwbU8VzAeZ/A8LqMqLTXGXBoWgMaMEyo0GcBOuSaZvxB/w1Y3DY87qb/fkLunSj6f7MrgRYPcGfB+nPv8znoDvcZjHYwxxoyNqjSU/sDiFjq7vCADmJkQhPQELjzKg+QZGzF3bz0t3NvQ2AgZxMyVktDSG8inmfsDjXl3WAAaMy4QfyHcTvuDlCj3DOFHKefwqJV6OHmG2CP71311mHrM9yPrd9ROw0bJ+CH8uHoRkPws9/oZY4wZF0UEZqOY6SwEcQwNMTizsaSSUAk/zQ8svYG3VlU2OrMyr2wgr9HICJvEGPNOsQA05pJBqPGRNsr4tfty7uzj4kmP39ZRGpD5C8GnMQ8hBofxGA6giES5e1Lu6YyfMcaYOoJ4oy8wjhlMYpbn5RY6T+kn8wPpEyQbGGKQ/kBMYuZvrul5EoF2CjXmnWIBaMxlUmXqOJjrxzD3EHYIvc6zg9T+cit1cfiUuUsIv6N2GjQ6KSEUe4M0FaLvNISjMn/O+BljjKkriLdKxJWM4AxCcG0xl4SGAFx4fDMtvscg+Rtp7v6GegbJBM4szFkEGvMOsQA05pJQjx4ln/Tt9YZp0KTXLwTefiN1Xx2lzpO91PpyO493oNdP5Z5Z/BljjDGTzvTcjOYHzm4s5Uzgg80QgLckBOcfbqb5O+t6TPMFQwhOnesPNMZcHBaAxlwScvds91TKiZELIo+xDj16/LaOJAL5fnDQUtaPck96AxkJYYwxxkw6MnqZm84icC2EHk6hDI9HDOIUem8jzXEb38/eXJUYxFGUXkJjzMVhAWjMu+DsLFdo8n84fFLuKXfPtko7JfZeHafu8/3UeXmYBox62G+k4Uk8J55HhlDmMJR7utfPGGPMFQCDmNwbGLfnSkI1NuLGShaBDzezU2h8rYMZgquLaZqZgTKIUU1oHNy4NNSYN8EC0JiLBvGHaKuEX6efTpvdNDhqZWdPsn6a63f0erYf4o+sHwYv/WGaipdrPARXp3v9jDHGXAEk2NBs3IaQoySUMk8JwdWFNH9rTb2AcgpliLwcQ0MEVr2BSwshHEMIkknkqH6WMeY3YQFozAXzvV6/EHT08snUJYSeBN+rLPz6OyfZ+fOwKYEod08bvBhjjLkm5JERZXYgQnBtSY6gOIMyNmKBbCAGMWQCVRK6rIwhcwanZrMItAA05rdjAWjMBVONdzgt4x0Qe60vtlL7210ZvPTp9wvxNzzpSPQhFBN9fmQMLf6MMcZcE0YZwVLaOT03qwzfrJxC87gIBCAmMQu4hZIRvLOepuNx5gsmykL5ERaBxvwmLACNeUvyWIcs/Mj8kfXrh/DTCIf9Zuo83UvNz19JAPbp/SsD3TXMPV6njy2LPmOMMdeZkYg7y8Pj15fS7M2VtMDw+BCBSx/e0e38/U3dzwD56aU5ZQ+nEIKUhCIkjTF/FwtAY94SSj5x6pSga/dl5kJ5J5m/7guOA/X89eK+wUFTmb9hq6f+wGoovDHGGGMyjH7AKXR6ZT4bxDBA/u56Wgzxh1HM3N01jZGYu7UmIYijKGKQ1xlj/j4WgMb8RkaiLa4chrKr3DPEHyYuCDxMXbrPDlLn6X5qP9lT7x8GMIOTtgQipjAMgVfG0BhjjDHfQwYvs9PqC5xayEJwjpERN1dUAooYpD+QbGA1MmJeRjFz6Sw+oBlATzaQANflocb8GAtAY34LIf6qkk/KPeXw2eqFuCvij/6+F4ca6o4A7Dzb11y/005PQpFDvX4Yxbjs0xhjjPkxIdo0MqL0BuaREXMygJEQDBHIuIiFhzfS4qOb6hXkvpn1RYlGlYViEBNC0D2CxvwYC0BjfiVZ+GXxxpiGIUPdj9py8hzsNbL4Y67f84PEiAeNe6Ds86Qdz48XSPTpB+UfaIwxxpi/izKCc9NpejGE4MpCmt1c0XxAMoCLGMRgFBNikOzgzMaSRkpMLxSnUESkBaAx38MC0JhfSxF/eb7fMA2PO6n9bD9EXwi+ZwepF193nuzmkQ8hDIeNbohEyj2H8brTNMU2pMWfMcYY89uIj89pMnqMjGB2IGMjlubT7I3lEH8hAEMELr5/Ky2+d0tiEHE4s1qcQm0OY8yPsAA05u9RCb/hWRp2eum0HUerp+xeVeqJAGTEQ+c5JZ/NdNoZpNNS7inRZ+FnjDHGvDlVIq+Uh57FrcZF3F3X0HgygRKAZVwE/YKUhJIxRDCqL7C83pjrjgWgMb9EXB2nwxByIf7U63fYCuF3LFfP0VD3rWO5fvZ282B3hrqr368yebH4M8YYY94atBufqPT0catxERvLygTiFLqAQyhjI0IAambg/Q2VhjJSohoc75JQYywAjfkRI5OXUu7JoHYGtg+PWqmL4Hu6l9pfbSvbp/6/w7ZcPlXyyXiHeL7En4WfMcYY885QOSgicHlBfX9zIQZnNpfS/L2NtPjeTc0OXPz4jnoDp3AUnZ9JM/OzpSw0G8QYcx2xADTmB+Ryz1MJv7PeUCWfuHwq8/f8MLW+2kqtv76Q2cuw2ZPoSwjEbj/3B1r8GWOMMe8csnly+4xDzp8h8ij5JBtIT+BSiL+VPzxUiSgOojzGqIiZxXnNDNRrLQLNNcQC0JgfQO8eou+sGu9A2efuSc7+PdtP7W93UydEID2ApwjEEIoIRmUMjTHGGHO5UNKJkJMQnNHweEpAlQX85F5axBgmROHMjZU0u7mcZukNXM0jI1wSaq4jFoDG/AANdQ/R199tZNFHvx8GLy8OssMnox32GmnQ6IyEX57rV36AMcYYYy4XRBxibjr+LM7JIAaxN3d7PS3c3yjjIm6m+QcbuU/w3oaeY5dQcx2xADTmrHL5PE1D+v0o92SGXwi/zrODPND96Z7m/PUPmmlw3FaGMOHyyWu5gnwVGWOMMeOjyuJxw7gIRkWU/kCVhOIQ+vhGHhlRvp7FKXRpPmcCZ2csBM21wQLQXHvo2cO1c9js5sHuOyd5oDujHRjxgNtn3If4GzZC/HWY7RevidfxUeF2P2OMMaYmjMpBp7Kom5tR/x8OoZjDyCE0RODSB7eVCZynNHS9DI/HIMaYa4AFoLl24PI5Em6n2eyFEQ8IvN6rYw12J+NXzfbr7TZGWb9TjF402D1e7CvHGGOMqR+VCOSYnkrTi/MSgXM3VtLCnTWZwiAAEYKUhM4zPgIhuLKQznhpmRnIxzwjJ4y5algAmusFug3lFwcZvEr8McaBmX4yePluN/UQfwjBl4fp9KSbTvtltIP6/XD5LD/PGGOMMfVDwi0+rONW8/9mZ+QAOrexlOZCBC4+viWn0IUP4pbh8Q9vqGdQQ+NnaSRk4Hx2CbUINFcNC0BzfUD0VYYtcZDR6x+20mC/oRJPBF/72x1l/fr0AG4f58Hu7X75AcYYY4yZVCgHlQgMocdswIVHN9IC4o+DbCCZwHhs5BA6GhVhAWiuFhaA5tpQGb2cDXLmbxDirvNkN449Gb10XxzI6IX7+2WwO+KP/kBjjDHGTDYSc7OUhM6l2RB5ZPwQfbNxLD68oUzgIqWh9zc0SmJmeT6lSgQac4WwADRXnyrzh3FLt6/B7RrsTsnnl1up/c1Oan+3m/rbx5r5N2x00ml3IJHIazzfzxhjjLkCkMijtDME3TTmMCHwphkXcXNVJjEL791KK5/dzxnB+H4mBCKjIigLVSkpr3c20FwBLADN1SbO7tPhUK6dKvk8aqvks799kjoMdQ/xV834U7lniEPEnzKF9PxxdcgtxhhjjDETTxFxjHyoSkJn15bSzMZSmr+/kVY+uZcF4KMbygrOIQQRgWQB1RcYP8Ai0Ew4FoDmakLWjzObXj8MXDp9jXig168XYq+F8MPp8+WRhrtT9nna7KZhEX8WfsYYY8zVJpeETqvfDwfQuZsrMoNZfBzHB7fT4oe309JHd+UQKnMYlYOG+LM5jJlwLADN1QPhxp+SxVPm77idBrsNZfuaX26l1l9fKgM4PGqpHFS9fpR8Uu7JFWHxZ4wxxlxtSiZQmb1SEjq7vqgewMWP7qTlz+6nlT89SguPbipTyNB4lYOGcEQ8Sv9ZBJoJxALQXDlUuknJZ7cvYYehizJ/Lw9l+NL+ejs1P3+VelvH6bRTSj7d62eMMcZcT0LEaf7f7HSaXZxTJnD+8Y20/Mm9tPT7B2nx8U3NEJxdX0rTqwtpdmUxTS+GEGRcBCLSItBMGBaA5sqBaydGLpR89hnxEEKPwe5k/HovDvOw91eHGu4uh8+SKVTmzxhjjDHXCn38I+Rm8pHLQVfzWIj7G2nhwaaO+XtlaPzteOzWappens9lpBaAZsKwADQTTx7sHl+QwQshN2x2s/Aj67d1VOb77eqW+wYHTY14GLZ7aSpe67JPY4wx5pqDiONPKQedqsxh1hbTfBkcjzHM/MMQg+UgKzi9MKfMoYWgmSQsAM3EU833o5QT8YfAQ/hR8tl+ti/hJ/HHmIejtp5TOX1m0RcLtsWfMcYYc72RgDvLYm42ROD8rAxiZjeW0sJ9RN+N7A7KvMD3byojSEkoGcOZRYTgTP45xtQcC0Az0Sj7NzzL/X6Nburtnmi+HyWf3WcHedB7CEFcPgfHnTRsdWX2omyhz3xjjDHG/JAqG4gQnJ6SAczcjVWVfqoc9PHNtPzJXYnBuTtr6hlkcDxi0VlAMwlYAJqJpSr9VM8fZZ87J9nk5dsQfd/u5OPJvspBz3rDdBrPU6/fqfv9jDHGGPMLhJCTluP/EIHzs2kGA5gQe0shABc/vqsxERoX8Sj3B86sLsbz88stBE2dsQA0E8vZIEQdZZ+N3PPXfXGY2l9th/DbTe3vdjXyof/qSGMejDHGGGPehqn5GTmB0hM4TxbwoxCBH99JSwjB927KOGZqYdY9gab2xNlpzGRy2hum/l6e7df+cju1//YytT6P4+ttlYEOKfmk3NMYY4wx5m05PUunnX7qHTTVZtL6KmKPL7e0+dz+Zjd1XhyMHMblT2BMTbEANJPBWXbrJOtHD9+w1dMQd414+G43Ft+t1IpFuPPdXurGAowwZBQE/YHGGGOMMW8LcchpxCCnzV7q755kl/GIO9rf7OjohSikHQXDudOIUyQEi+Gc2laMqQkuATX1p+r1Y8RDt5/OuoM0qHr+vt1J3Vh86f1jzp8MXw5b6awTz+tX8/18ihtjjDHmLaGkk5bAYg4zs7aU5u9vpPkHGyoBXYhj+cM76gecvbGcZteXZSDDWAleq4Hxrgo1NcAC0NSeM0xb2HVTv18e8I7bp8Y7nOv305iHEH9kB88G+TXGGGOMMe+C6cW5NLOxlOZu5aHxuIJKAMbtQghDOYTGY4yJOEMAhmiUu6h7A82YsQA09aaUfmrAe4i/Hj1/mL18sz3K/PE94u/0pJMzhJR9clY782eMMcaYdwRGL9PzM2l6aV7ZQI2JeHwjLb5/Ky2FEFz84JZcQmUOM5uzhlkEWgCa8WIBaOpJKfs8HQ5T6g0l/vr7TTVYa9TDV1up+3Q/dV8eqQ5f9fadfhZ+xhhjjDGXQWi56TI0fmZ9UZk/MoFLjIf46E5a+vhumr+3rhERlINOLzAwflrhijOBZlxYAJr6UbJ+9O/RQE1ZJyWe9PhR9lndkvUbhvAbkvkrzdbGGGOMMZeJRj7MlIHxG8u5JPQevYF5aPzCo820GLeUiVIyOrM0n7OB6gm0CDSXjwWgqQ04ZLEMIvw0tJ2ev1ZXIx1aX2zJYQvxx/ejrF+7p97ANCiGL8YYY4wxlwnBSwi66bkZzQGcWwuRp97ANfUBUhK6/Ok93cogZn1RmcCkWYFoQAtBc7lYAJp6EGehLJJPQ/xhscyYh5NO6pdZO40/P08dBODzA4k/HsPp87SYvahP0D1/xhhjjBkHaLjp4g4aInB6eSFNr8ynuc1lZQFX/vhQQ+OVCQxRyEB5TGTOEI4zuITyMywCzeVgAWjGjoQff8jgkf1rdmX2Qoln7+Wh5vy1vtxOnad7uezzOPf7yenTZ68xxhhjagQloYx+mA4hOLU0lxbub6bl391VPyDGMPQIct/sxpJ6B9NsPJ/XICCNuQQsAM34CQF4ivijjLM3SIP9Zmo/2Uutr7dTm+HuOH1S9rnfSKeNbhq2e3nAu8c8GGOMMaZuTKU8K7AIwZm1xTQfgk+9gO/fSiu/u5eWPr2XFh7c0IgIMoGVCDTmMrAANGOjyvwp61eVfR63U/clYx52UivEX+vzV6n74iANjrPRy2mniD9e55JPY4wxxtQRlYQy9iGE3cKcHEI1JoJZgR/fVUnoUojB2Zur8dhSCMH5nA0spaB2CDXvEgtAMzaq+X6Ucw6b3TTYa2SHz6f7Gu5OFhD3z37cz3MwexkNeLf4M8YYY0ydKWIuzc6kmaU5mb/M316TO+jyh7fTwns3s0vowxtpNu6fXVuUm+hU6Qm0CDTvCueazaWTM3/nxF8jiz9GO1Dy2fz8VWp/s6vvmf2HOMw9f0OZxFj8GWOMMab2EK5wVPHOSSf1diPeebavCqfW316lzre7qfN8X20ug0YnO5vTFuPNbvMOsQA0l0tZDOn5o+wT8UeGT2WfMnvZSu2vtlPnyW4a7JykU9w+v5f5yz/GGGOMMab2IOKIXyKOoZVFs40Zb/X1dmp9ESIwbjtPQwBuHaXBQSu3w3T7r2Mei0DzDrAANJdHLGJnZPDY2WIhxO1z51g7Ye2vd3RQ/tl7eRCi8CT1j2MhtPgzxhhjzCRD/BOxz1l/KCO7wXE79XcbqfPiUEZ3jLnKMdBebnvB8yBE4NlwGC918GMuHgtAc2loDQshx5B3SiG0CxaCr/m3l6nxb09T868vYjEM8XcUwi8ex+xFgtEYY4wxZuKZUhzExvaAOCjiHWYdUw7a+NenqRVxEOOvhkced2XeLRaA5t2D8lP5Q975wumzv50zf8z4w/Gz/e1udvsMUXjaZtErw93VQW2MMcYYM+EQD1XZwFISqjaYiH863+6kFi0wERfxfW/nRJlCVULxfFVCERcZ8/ZYAJp3CwsdixY9f51BzvrFwobRS+uvL7XYYfZCU/TwpFsWurw4uvbdGGOMMVcKxTYpTXEb8U7eGO9I8KklphqB9d1e6m0dR2zUTqk/VBxlEWguCgtA8+5gkdICd3qu5v0k9Sh3+NvL1PxbLHBPWOCOlBXkOdTHW/wZY4wx5qqi2iZiHERdb5hHYR22Uj8EnzwRvngVt9up9/xAxjByBx21xsTh+Mi8JRaA5t0Qa5MWqVjcyOpp1MN+I/VeHqUWQ94lAF9o7l+vNDxjDGPxZ4wxxphrAaFOEYGnzV7q7Z6oBLT5xVZ2RY+v2SRHHFIuijFMZYpnEWjeBgtAc/HEopTdPs+0WA2YexMLmJyumHfDIcvj49Q/KHP+ernG3eLPGGOMMdcBRByb5aeDEIARBw0aXW2K914d5XJQPBK+2pZPQn/nWPHUEHOYKl4y5g2xADQXD4uSMn99ZfYY8k5JQ/MvL1Ljz89V1tDfC+Gn3axBmnJNuzHGGGOuLVM5DEIMRlw0OM6zAjsRO5389yep8T+eZBG4e5JOm93vt8sY8wZYAJoLQ+UI7GYh/jqD7PZJU/Pzg1i4dvKw0yd7WtT69Pypnr00Ndvt0xhjjDHXEcVP8Yd4iLiIGOqwpdFYbJpTDjpyBw0RODzppLNSOeWeQPMmWACai6GIv9NYjBB2mm3z6jD3+30VCxfC7+WhFi7MYM5KHbvLPo0xxhhz7TknAvOIiK5iqR5js54fpNa3ZWTWsxCBcR/tM2eDoXsCzRthAWjeniL+JOZi0TqNRau3d5I6ZP6oXWfnCrMXZtow5B23T4ablkXL4s8YY4wx155KBJLZ6xNP9bIIpJrqae4JbH2zrUzgaFh8n0xgCEHHUuY3YAFo3o5K/CHmEH9k/yj93I7F6sl+av71RWp9sRWL1eG5Ie+V+PNiZYwxxhjzPQiRJAKHaRhxE/ETG+mdYgpDVZUqqk5yO43jKvNbsQA0b4zcqzjk9jl47fb5dF+lChy4WHVeFvFXRj14kTLGGGOM+WkUW0WsRHylzXVE4EFLrTRyB5WjesRYOKrvlJ5AjGEcX5lfiQWgeWNk2xKLDdbFw0Yn9bePU/NvL1Pj354p80fDcn+vUcY8VHXqXpiMMcYYY34dEW0hBpmpHEKPWKvzzXY6/u9P4vhOWUGJQDbZeZ5irfJSY34GC0Dzxqg8IYQd4i/vTB1p3EPnq+3UpTzh1WHqH2H4MkhpkC2Lrf+MMcYYY349VTkolVT9Kt7CY+GLLbmsE2/hGsqGe9KICPcEml/GAtC8MZQmDMj87TfzvJqneypHoDyBHsDhUSedtUvZZyxeNnwxxhhjjPkNEDcROkUcRbsNcwD7+w15K+AIquN5HCECBwfNNGh1s2AkE2jMz2ABaN4I6tNPe9nwBTtixJ9GPTCjBntiev40rDQWoWohsvgzxhhjjPltRPykOKqIwGEDEdhMva2Iv0L8dUIEcuDDwGO05lgAml/CAtD8NrQTxZG0CPX3GPSerYlVhhCLz+ConQal788LkDHGGGPMBUBIxaY68RUjIg6aqU8F1pO91MEYJkTg8Kil1pspbbznlxnzQywAza8GMYfVMG5ULDCaS/PyKJcfUP758jD1YzFieKncqGKRctbPGGOMMebtqdxBJQJLT2Bvr5F6EX9JBKoSK2KxiM/6h80yd3lYXm3MaywAza8GQTeMxYTac0Y9dDB8+WY3LzghBAf7If7KnD9n/owxxhhj3h2nIQIx4mMmYFWNxezl1pdb2Y8h4jWEojE/xALQ/H3I/LHTFOKP8s7u1nGeQRMLDeKvh/hj3ANzaLoDZ/6MMcYYY941xGedfhoeR2y2fZxF4Nfb2pxXdRZtOfGYzGMQgmzOOz4zgQWg+WVYJ0LQaQjpYUsGL3KbCgHIThNf93aOJQx5zutB7/nlxhhjjDHm4qHaCr8Fxj8MIw7TjMCn+6mlDfr91KMcdLcRMVrrdTmo4zMTWACan0dmL2dp2B1o8ejvNFIP8ffdXmp9ta2G49Hsme/1/ZXXG2OMMcaYdwM9geoHPFU/4OCwrX5ARnJhzNd9GjFbxG30BJ7iDkomkDjNXHssAM0vcnYai0qnl3q7DdWTM+i99cWrfHyzrYzg4KSd0tCqzxhjjDHmsqlM+sgEyqAv4jU26VtfRqxGP2AIQpn0MZuZKi1z7bEAND9CCwmNxa1eGh53VD7ADlLnu718MOy9DBzFhljjHryjZIwxxhhz+ZAJPFcOithjLFeHjXuMYWjZwakds75GR5lAZQ7dD3htsQA0PyYWBcQfC4WEH4YvX29rEWHgOz1/PE7WT26fXj+MMcYYY8ZHadshJmMQ/OCkoyotNu7bX22rfUe+DXEfpjFyB9VLHMRdRywAzQgtAnFUtsI4e1ZlBLh+8rUGvR/mIaPKFHrdMMYYY4ypBwRmQ3oCu2lw0ErdF8xq3k9tRnYpjjtWhhBTGJ5nZ9DriQWgyXDtswZQEsDO0XFbdeQsGBJ/mL9Q9qnygW52+9RrvGgYY4wxxtQFYjnKPBnPxWY+hn3a0EcAhiDEFGYQsdyw25cIzNVcjueuExaAJq55MnlxsAiEsKvm/bFLhI0ws/6wFh4cNtOg2ZFAVM+fFwtjjDHGmHqBnot4jngNd1AyfvQAkgnMPg65movHcHqfcjvPtcMC0KQp/i/EHAsAi8WwWfr/YrHARrj9ZDf19hvptNO3e5QxxhhjzASgzX3c3Nu9bArzZC/PCMTPYfdEfYIaJM/GfjzPXB8sAK8xeWGIg12iLg3D7ez4GcKPEgHqxlkw5BrV7Kqp2ALQGGOMMWYCILFXbe6H2OuH6Ou9yu6g3RCBfZxB906yM2jl6E5s6AqvK48F4HWG61t14v0s/uj5+2ortf72MrW/3pYAZAyEBof2s/jzomCMMcYYMyFIBBZnUEZE7OfRXq3PXyneoyR0sNdMp/EY/g5ZBKIDHe9dZSwArzOUBYT446KvnKJaX21ryDuln+r7a3TSGeKP/kCyf14PjDHGGGMmBpV3EsdFzMcICKq72l/vpGbEe5SFyuTvqKURXxoPEc9Xe5C5slgAXmPY5Rm2e6l/2JLYYxeo9dWWsn9yito9eW0TjPCz+DPGGGOMmSzYv2cTv3+aN/33Gqnz3Y7ivfZ3u7nlh03/EIFUfeXREOW15kpiAXiNYZdHbp+vjlILsxc1Bu+rBzCPe+icG/eQX2OMMcYYYyYMNB1ZwN4gnUZ812fWc3EGbTHuq8R/9ApSLmpTmKuNBeA1hl0e9f3Fhd/626vU+mJLYnBA31+nHwsFJjFeAIwxxhhjJp0fmv+dRrxHP2Dn653U+OuL1Il4UK7vVRbQXFksAK8TXPiDoS5srH9x95Qb1NO9XAP+4kBzYc7aVQ04F7+rwI0xxhhjJh6ygAhAMoEhAun5UyYw4r9uxIGdJ7vZ/+GgqUHxZAstBK8mFoDXCC54ib+jloQfFsDq9Yuv+zvHaXjUlvjL4x54AYcvfGOMMcaYK4Fiu/gTwo54jzFfw8OIC0P4dV/kklCygsSFg+OICwfD/DpzpbAAvA6UlP9pf6gLXbs9iL/v9nSRc9H3D3LPX5X2V+mnxZ8xxhhjzJVC4R0Hod75qrCtbAjIwdf9g1ZpCaqc4B0XXhUsAK86Rfxp3l9cxDT3DnZOVOfNyIe8y3MS93cl/lQXrou8vN4YY4wxxlw5iPcU93UYFN9NPeJDSkExhXlWsoCUgtIWZBF4pbAAvA7ERasU/1Fbtd1q+OXijotc5Z+HZYfH4s8YY4wx5npAkoAEQQg8xn7hA0EZKKMh2k8YD3GYRWDEj4wNG8WJZuKxALzKsEsTf9T3R333y0Pt7DDuAefPDrs7e4101iqz/owxxhhjzPXiNERgr59Omx21BREfthkPxkG7ECaB+ER0+2oTMpOPBeBVpZR+0rw7bOWhn2ru5aKmvpuhn7vH6vsblvpuY4wxxhhzvWA8BMKOLN/wuJ16O8fZLDBiRrnEPz9M/f2GXEOJKxVfuhR0orEAvIqcE3+nXXZ0eqm7fSIBmF0/D5URpCxUpi+IP1/HxhhjjDHXj4gBVdo5PFNceH5QPIaBjAsb7L02C1TSgNdYBE4sFoBXkHwR55EPmvFy0EzdEH0dev9w/cT0JS7i1B96J8cYY4wx5rqDoCvJA5xBh8chAjGFYSzEsxw7qheQLGAPEZjHQzh+nEwsAK8ayv5Ryz1QQ+8prp9l4LsGfWL6Et8PO3HxIhQ96N0YY4wxxhTOhmdlbFhTlWPtyjRwr6HZgBgHki3McaRF4CRiAXiV4ALkGmTeXyMu3N1GdnL6did1n++rsZch8IO4qEdln75ojTHGGGNMgeweiYRBo5MGB8wHPJIQ1HzAFwcRX57IX2IKARiHUwmThwXgVQHtR+o+hN2w3Zdtb/vr7dT4H09T41+f6aIdHDa1azNVsoQWf8YYY4wx5kcQJw4GKvfEN6Lz7U5q/vWFjs53u7kctOsh8ZOKBeBVoAg65rPg4MRF2d06Tt0Qfa0vtiQEyf4xBJ4LOe/WeL/GGGOMMcb8ALQcR8SLZALxjei+PJDwq4bE4y5/ypD483OkzcRgAXgFYNNFgzzjImSXhuxfHwFIz9/z3PdH6Sfi0KWfxhhjjDHmFyG2RNQhAjt5SHx/O2LLl4c5voxbDYk/9nzAScQC8CpQsn+nOH7uNbLhCxdo3Pao0w7xx2NnuH5KAPoiNcYYY4wxvwDhIjFmxI+nza5EIG6gijGfIQKPUv+glZ1BiS/NxGABOOko/Re3cXEOTtqjwZ1k/rDvJT2vmS0hELU7Y+1njDHGGGN+DRKBZxFHnqXTdj+dHrdTf/skl4N+t6dYk/jzrD/IMamZCCwAJxkuSBw/seo9bOoiRPgxsHM07iEuVos/Y4wxxhjzRhBCDk9l+jLAZX6vIXNBnObJBjJuDPd5DZEPIShTQovBWmMBOMGcDob5QowLjzQ8F6N2ZLDp3T7Kpi/syBhjjDHGGPM2hLDDb6J30Ei9EH49Eg7P9hWD5kHxLQ2Rz+1G5TWmllgAThjaUYlDuytY85KK3znWXBZdhM8PNK9F2b9mCEDXZBtjjDHGmLeE2BNX0NNmTx4THXoBiT+LKUxvt6GqNNqS7DlRbywAJ4gs/vIFiJtndv1spm41oPPZnsY99A+aatZV758FoDHGGGOMeVuIQTEdJP4kAUEpaAi/HIPup96rQ40i4/E0CBFIvGoRWEssACcITe7jQgpRp96/Vk911xi/cOF1Xxym/n7efRkZv/i6M8YYY4wxbwsxKBVoEV+e9SIObXTTAP8JBGA1H/CgVKCVLKD1Xz2xAJwgdBGVC0+NtvT/7VKHfZS6Tw90e37YuzHGGGOMMe8CYlHKPjtP9lPry63U/mZHlWgIQ2ZPSyieuhKtjlgAThBcRKeMe2h2tMOics846PnrMYzzsJXT7q67NsYYY4wx75KINxF7+E70to5VicZBZdrgIGJS+gGHjkfriAXgJHGK+1IvDY/aqft8P3WeZPvd3l6j2O/2JRBPyRJaABpjjDHGmHdFqUwj/iQOxQmUUtD21ztqTUIYqirN1A4LwEkgxJzqqOMior8PwaeeP8Y9bLHLkuutmc+i0k9pP3UMGmOMMcYYc+GQbDgbDtXvd4ovRcSjmg8YIrBHJnD3RH4VVT+gfSnqgwVg3anEX1w8Mn05ymMfaLSV4xK11sdtzV0hzT66wJwBNMYYY4wx7wpizfgzRfzJkPiIUTsvD1L76V7qPD+IePUk9Q+b6bTdPzcaorzWjBULwAmAC+a01U3Do1Ya7J6MXD91ce010uCko0bcUfbP4s8YY4wxxrxrShaQ+YBUo8mdHm+KV4dqU+rvNFJvP2LVZjdnAm0KUwssAGuMUuuh5bioBsed1N0uDbbPytD3EIK9g5Yyg3b9NMYYY4wxl40SgSQruiECT9ohAkP0FVMYSkLlUh9xLL2CjlfrgQVgXZHyi4MLqt1X31+/cljC+GW3oVT7qLbaF5QxxhhjjLlspADjNmJWWpIYU0bcqoq1J3vFEKbMqe4NFLParHC8WADWkbgoVCc9ONUcFWb7adwD4u/5Qeptn2TXT5yVeB7XkC8kY4wxxhgzDooIRNydMiQ+YtfudhGAZAF3TtLguK1xZWeDnLiwCBwfFoA1RNm8YbbVPWuFADxsqZ6azF/31WHq7+GqxGyVEH/UUvsCMsYYY4wx46SIQEaSDRsd+VR0X5S2pYhj+7jWx/2IwClXro0VC8AakndPBrLU7Yf46++e5AxgiD9cPyn91FwVN9IaY4wxxpg6ofalXhocZkOYTohA2pj6uw3FtWftnAVUxtBJjLFgAVhHQgBS+inxR+aP3RPEXwjBwVFLLkupXDg6jDHGGGOMqQE4fVazARkDQSJDVWy414cQxBVU7vUh/jy1ejxYANYQ1UbHRcPIh/Z3u3mgJjsnIQgxhDnrn6bTIdsm5QXGGGOMMcbUgqnc48d8QPoBjzupF+Kv/c1OjmlfHSnR4Ram8WEBWBfiGjhF+PUGqo/u7Z1ozMPIPencvD8P0jTGGGOMMbWk9AJS0ZYzgV2NMnttZkg7U0siUE72imsd2F4mFoB1gOskTn52SXBI0hDN7RCAapyNC+Xl0Sj7R2OtLipfKMYYY4wxpo4Qp56epqm4xdRwcNSUiSHij0OJDY8zGxsWgDVAtdKDoRpmcUjSLgnZPwZoIgLZKdEAzUF2TbL4M8YYY4wxtSaXgmZjwxCBeFuECOzvlCNEIIPjPSD+8rEAHDec7yVFzoDMwV4zi7/n+6n38jD1t0/S4KCVTuOx5B0SY4wxxhgzCZCwIGylF7ATApC51gcR5+4cZ2dQlYKGAKTCrTI3NJeCBeA4iQvjbBiiLoQdM1GGx23NSaE+Grek0dBM10gbY4wxxphJg7iVLGAV6yICd09S79l+6jzdkxgcnLRLksMeF5eFBeAYqRySKO0k+9ffb0r8cUEMto7T8LAp4WeMMcYYY8wko3anVk8JjtbXO6n91bYSHpSGyhWUuNgi8FKwABwjqoumMbaRU+IMyMT5k6GZuIAOG9102h+UZxtjjDHGGDOhEPdSCnrUUruTjA7jdkAvIBVvrW4xhHHF27vGAnCcDE+1EzJgSOYOYx8OdUvPHylyLhI3xRpjjDHGmEmHxMcQQ5g2hjB5QDxeFyQ/MDwkGaLY1+PO3jkWgGOEemhm/jH2AfGnYe/FFnfQ7KWhXZGMMcYYY8xVgKweyQ96ARvdbAgTwk/Vb3FQCUdi5GxwmrOA5p1hAXjJnGH8wgWArosTnPEOnPD9l3HyvzzQxTAM8UdfIK5J3gExxhhjjDETDzHtacTBCLweSZCu+gGZd005KEIQQxjGRsj13jHwO8MC8BLJwg/jlzz3j4ZXsn3a/WDeX5z4qoHu9NMUlrlcJLzGGGOMMcaYSeecCDztDJT46L48SL3nB6mPAMQQppUTIYyGkBA0F44F4CUyFYdO5BCAw05P5Z8MxMT0BQE4oP+P3j/tfDj1bYwxxhhjrianvTwCDf8L5l8TC2sE2hEi8JwhjLlwLAAvkSz+cEAapOFJHvtA+Scnu24PmhqUiUD0jocxxhhjjLmyREysMWiHLcXBXbwwGA5fXEGr0RDm4rEAvEQQdRr7cJJ3O/qc6Ox0hBCkFxBXJA98N8YYY4wxVx3iYnoBMX7pMxpi90RzATkwRaRSjlJRc/FYAF4mEoCDdBpijzQ3A9+7zPw7CAFYpbot/owxxhhjzFWn+GKQHCETOKAf8MVh6jAfcPskDSNeJjY2F48F4GXBST4YptN2L/X2Gqnz3W5qf7OjLCBpbhxBjTHGGGOMuU5MnUWY3BvKGLHzbF8xcu/lYRoetuL+gRMj7wALwEsg724M8sy/g2Y2fYkTvIvjESnuZlfi0BhjjDHGmOuEWqRC6A0iTtZYCGYC0iq1X2JkykRlCGN3/IvCAvBdw65GnLQDXI4wenl1rF2NThy9nWPVPDP2wU2uxhhjjDHm2oGoIw4OEXiKQz7Jkj0EYFMisIqVlSxxuHwhWAC+Q6qh79rVOCo2t8z7o7kV8xdmnTS7uS+Q3j9jjDHGGGOuEcrqnZ4qXmb8w/AEEdhSooReQKrlzpgNSDmox0JcCBaA7xDm/rGrQf3y4LCZDV/I/DHo8qCZThF/nZ53NIwxxhhjzPUkYmCNPxsSMw9HhjC97ePUfb6fS0KPcj+gnmfeGgvAS0AZQE7kVyH+SvbvtNFNQ6WzT3Pam90PY4wxxhhjrhtFBBIXMxObKjmEX+fb3dR9upcTJ8TNrpi7ECwA3zXKAA5Vx8yJzPgHUtqMfbDwM8YYY4wx5jVKnFA593w/tb54ldpfbaf+7onmBSYLwAvBAvBdgOhj5APOn81e6h+2NOy9t9vIDa3H7Ti5s5tRKRQ1xhhjjDHm2kOWjzJQmcGU6jnKQfl+2MjeGc4Evh0WgO8AjX0gfX3Uzifs1pEaWAdHIQSLnS3ZP5J/trM1xhhjjDEmU5WCEksrkaJ+wDwegjERJFY0IN4h9BtjAXjBSNANz9Jp+1z98os874++P+qaOWkRieT+nP8zxhhjjDGmQCUdyRQMYVohAEtCpfvyKHVfHeZ+QLKAOIJaBL4RFoAXRDXygRPxtE/pZ1ezS3ovDnVo4Hujk7N/pK05YZ39M8YYY4wx5jWEx7RJkVChnaoRMfXOicao9baOFV9XM7QtAt8MC8CLRCdsmWMSYo80Nc5Fnaf76v0jjc1j6v2z+DPGGGOMMebHECqTBeznsRBdMoAYKeKmT1Vdu6fHVS5aJWHMr8YC8IKYiv9pF4ITsTvQvJJBCMC27GtDANID2OrqZDXGGGOMMcb8AiHqpuIYhtjDQb/74lAicLDbkCjMg+FzFtAtVb8NC8CLgJ0HxB8Nq61eNnvZb6bu9lHqYQDD2IeT9sj8xRhjjDHGGPNLkFyhDLSfhied1Ns7Sb3dk9SNuJoyUO4jE0j8nZ31za/FAvAi4JwjDY3z50ErBF9DtcrMLOkfNNKA3r84ec8GA4lFY4wxxhhjzC9AzEzYTIEdLVQh9obHbVXVqR8QQ5jDZhaBFoC/CQvAt0R1x6ch/gancirqcVJuHcmtiCyg5pUU50+lqS0AjTHGGGOM+VVQBjpFPyBjISKuVpUd5aAvj1L/oCXnfeZvm1+PBeBbULl+IuzYmSDTR41yf+s4i0AEYIjCs34IxCFCsTzfGGOMMcYY88uUWFsx9OBs5LLffX6gA5NFZmxjFuMY+9djAfgWqOG0uH5qV4L6ZJw/SUkz9uG4neeUFJcin5jGGGOMMcb8eqqEC1k+zdk+aCkD2HmWTRY1Zo0Z2/hxONb+VVgAvgUSdWT2enFCMqjykP6/k3xwQp60U3JK2hhjjDHGmLeDirtOP/UOGqnzfD9nAHdP0mmjG7H4a0dQi8C/z9SLFy/8Nr0h7DbQeDo4aqv0s/31Tmr8X09S6/OXak6VQ1GTElCLQGOMubJMTfEn307HMTM9+rrUitQIetHjhkBJ1SlxVO0MesCYvwMnO3903scXM5zrcc5z7tfufP+1+LqYCFhTZ6fT9MJsml6cS4vv30qb/+snafWf3kvLv3+Q5u9vxP3zaSqeo/WX89P8JBaAbwG7EIg/dh+YS9L6cjs1/vuTEILbKgWlJJTsoBtTjTHmilKEHqJvanYmTc/PpJmFuTQ9N6vvFbDUiQhmqV6hdYHZWmph4DNq1KrgkMD8AudE3/RMnO9zcUQwPjUf53yc+xKCk4ivi8kATccGG5sOsb4uPLqRVv/jB2k9BODSZ/fT4uObaXZzJU0vzenxvAlnfgoLwDclFgM1ou6UNPTT/dT+cis1/v156jzZS/2DbADD4sGOkjHGmKuHxB/CLwQfgfDM8kKaW1tMMysLaYad6AiS60R2rR6mQSs+v+JzCvOyYaefTvu5X92fV+YX0WZHtdExn2aX5/O5Huc9xzSbHhMF4i5fF5iIENf1DjEV6WiTn/t0XVgA1gM2H9B03MS5OHd3Pa38w6O08seHaeX3D9PC+zfTwoPNNLuxnKbiHJ288/HysAD8rVSLQNww8L2D8Pt2N3W+3kntr7ZT68tXqffqKA2OY/Ho9vU8LxzGGHM1YTd6ej6E3+JcFn8ReCzcWU/zN1bS7OqSHqsTBLOnvb6C3PbzAw1WziIwtyso22HMT0H2j/N9LsRfOdfn4+CWgHturX7n+98l4rOR+ItrgJECnVeH6jGTs2SIwLOhr4tagQiM4JpM9Gyss0uf3B0dy7+7p9u5O2tpZimXgubnmx9iAfgbyPXgcbAQxIHRSwvR98VWanN8vZ26lSORxj+49NMYY64yZP8Qf7MrC2k2AuDFuxtp+YM7afHBZpq/lYOQOsHn0rDdVZB78vnL1H62F8FuzgRS9qZshzE/RFmXqRB4+VxfuLWalh7eTAtxvnOez2+GCFwPAbgwl58/IchVstuX2OsfI/6OUvPbndTdOkyD47ay4xaA9WVmbTHNx1q79P6ttPDh7bTy+wdp9R8fp4VHm2lmdVFZQG1cWAT+CAvA3wI7RXw4DnOdeG/rOLX++iI1//oyNf/yQqWfPbkRkf2LD9KBP0iNMeYqU2VDEH9k/Zbfv502/vH9tMJO9IMbur9O8Nk1OGmn5jfbaf+/fJUan8dn19ZR6h81c7Drzy3zU6j0c1riD8G38sGdOM/fS8sf3E0Lt9dyFnB1IU3NTVYGEPHXP2ym7t6JNkUQfyd/fZ7abObH/bomEH+u5KolGMFMb8Tae29DIpBS0I3/+aO0+NGdNLO+mKaX5tM0PYMWgD/CAvA3gPhjt+gsxB0ZPuxnm//+XOIPEcj3fLBSMpDiQ9Q7qcYYc7VR+WcExSr9jMB49Xf3043/+ZO0/qfHCpK5v04Q0BLYnvztRdr5//4lHf3rk9R+vpd6uFa3EYCuXDE/ZoqNjgim52/mzN/aZw/Sjf/8SVr95F5aiPtm15fj8Wy8UXvYzC/VXP2TjoQfmfDmdzup8eWr1wLwqJVLQC3+agvnJYYvlIIuPLyRlv/wIG38rx+n5U/vp7lbq8oQskbLOMZ8DwvA3wAfjGqWb/Y04gHjl9afEX9xfP5KGUEe1+w/xKJLBowx5kpDcDG7upjmNkMA3l5Pa79/mG79b5+ljX/6IK18dFdZwTqBwyEln8d/fpa2/z//mg7/2zep9WRPGRAec+uC+SnIcnN+LxFkf3gnrf/xUbrxHz9KK/H13OaKNkEmItBG/EVsptLPOHp7jdT4ekvCr/H5y9T46pWy493t41FZtKkvOt9mp1V+TN/f8qf30sb/8klailtGQszdDBG4ms9N830siX8L6LnBqVyiBvtNDXxn8ZDjZyM3CyP+lCm09jPGmOtB6Y+qyuRwBJ0hM4gxzNJ8/Q7KpgjWNSuL8qj8n2HM9yjnNW6LnDMLBNjv3U6rH98L4Xc3LT64keZDFCIAKXVGJP7k+VajQyWDczNxrU5HrHamflg29MkCtp7tpc7L3PtHaSjmMKbeVK7Gp51eOiU2P2yl7tZR6iHgD1qK113W/tNYAP4G2DViN2jY6KT+biNOsmP1/MnxsxUnGTtFlH0i/qwAjTHGGDOJhPjToHc2NWZnlOWmp3Xl47tp7dMHym4jCLlfcwBnputvtFHKPsn8ke2m7xWx0Hqym5pf5QwgPYBkyIcIwBCIpubwKyKjK3OrnmZzU43Xe3mkGd3M41ZVnmPyH2EB+Ftgp4GTLARgbydOMBrn95tpECfYKQPfq7JPn2jGGGOMmVDIDFflzfM4fj7YTMvv3UorH9xOy+/fSov3N9X3J/EXAlEDt+us/yIuIz5D2BGzdSOGa4XYo/STks/W071shoTxC6XQZI0cy00GhN0h1vHnIHvbfXWUOi8OI04/0bi2nM3Nsbn7OV9jAfgbUN14b6AeQAlAUsyHrTQk+8cOgzHGGGPMhENGb2ZlMS3cXVfJ59pnD9NK3C6FCFy4t6Ge15lR5q+8qK4Q+0f8JgfcZjd1d49T89vtdPB/fZsO/us3qfHFK/X8aXazmUim+B33hyoD7cfvsvviQG1aCEB5c/D7LxV6FoEZC8BfwajGuLh/4gzFrL8+TfPF9dOOn8YYY4yZWCj5pId1YU6ZP836e3RTzrarnz5Iyx/cVuZv7saqTF808kHqr6YKsGT9iM806++4rc379vP91Px6K5385Xk6+dvL1Irv8XKw4cvkMorT2305GlP+SW+nkjSNrrK6eHhQyVf3/YrLwgLw78BOAYtHdv/sqr5YJxQHjcIMfO9RX1xeYIwxxhgzSZR+Pwa9z60tpYU76xJ/mL2Q/Vv99L6+ZwYg4nAmROKo76+OEXUl/iLoP+0P5OjZ2a76/XD93FIWsP1iPwTDSRpQyeWN/ImlitUHmMFEXC6xHwJQYjDE/euh/vm8MBaAvw4Gv5P5O2xqR4G+v34IQOrIs232QLsKxhhjjDGThnQcZZ9Lc7nn72ERf58+SGt/CAH4yX25fqr0c7GIvxr3/VHlp7LPwUCBfy9itvbTPZV7nvz1hXr/2i8O8vxLXNx7AwuDSab8vjFixBEUrw6SNDiBqmKPDG/E8f49v8YC8O8wFf87xfiFE2mvqb4/Sghw/qQclLLQkfOnMcYYY8ykUco/Z1cWVeaJyyczLZn3t/7Hx2mFge93N/T4xAx7Hw4V8OPT0Ns91oy/o397ko7+9UkIwZepV2Zf4goqUYBqNJMLvz6JwDh6Q8XpjGzDFVT9gCEKNefUv2dhAfgLKKXMEQsIGT/NFnmFtSw7RuVEipONhcNNpcYYY4yZKBjzMDejGXlz65R+rqXl92/L8AURuPzBHQnC+RurIf7KsHcyf3UkwjDFY7TtdPupf9xO3e2j1Pwuu32+dvzclQvooBlxnMQfm/iO4a4E/Bo5B4ohDLO6FbeHAGQkhMa1IRKNBeCvQc5R7CLESZSdhY7TKQ2lyvz5RDLGGGPM5KGyz+WFNHdjJS0w6uGD22n1k3tx3JXjJ+WgjHqovXMG4o8N+yL+6PnqRLyGycvBf/kq7f//vgoB+DJ1tg6VCVIpIP1ghHAO464c9H1qZvfeieL23svDdMrINpxeLQCFBeBPoEWEHYTBqXYLhtjK0ky6fSx7Wb4etrtxElkAGmMuCZk0TKv8il147cQzf2vUi1P3CM0YUxu0nmD6Mpvm1hbTwu31tPz4VgjAnPVD/C0y7mFjWRnC+hOxWMRk2rBnzt/ucWo925Poo+Tz+N+fpdaTPfX8yfCF0V32briysBFAomaIcePOSZ4JeIxrfwh/Ynti/Gsev1sA/hScE3HynHX7En86gRj4Tio5Dk4inD99AhljLgvc9lSqtZgt2uXEtzT/g0HMFoHGmF9GawmlnzOsJ/NpbnM1LZL9+/BuWvk4BKDE37lxD/G8ujPK/tHvt3eiUQ8Mes+Ony/j622Vg1IWincDz1X85hjuahLxOSPaGNUm80Zid2YCEtN3GPRv934LwJ+CXaQi/gYHzTLzL7sIUUPMnJFqB8GlA8aYy2BqZiqLv7WlNH9zVXbs7M7PLi9obtdIBBpjzM/BJhECcGY6Tc/NZNOXO+sh+m6ntU/vn3P7XMlry1yNe/7OQ8DfH6ZBBPzt53upgfD7Kvf8IQa7zIWr5jaPTF/Ka83Vg/OBCr6I1+XYH8J/iHkj50AxcGQT4DpjAfhTlJ0DZv6N+v5K5o+T6awfJ40XD2PMJcIuPAHZQog/LNqZybVwey3NrocIJBNYzBk0l8sYY34O1glKyRfnZPyC4Fv9+J7cPhn7wAxA1pqp2ckJERF0BPW9g6bE3/Gfn6WTvz5PzW938uY98+FCII4yf+ZKo18xoXpvKKdX+j77Ry3F9TmRYx8PC8CfQLXDlQDcOs4Wsiwgza56ArWAIACNMeZdgphTqVaez4VRw+LDCNZ+F8HaHx6lNY7PHqaV391PK/TtIAojeGP3HmMHicJ4bd71Lz/TGHP9YAmItWR6no2k+TQfa8RSCD/6/VY+vKNbegA16mFtabShVHeIxwjwmdOsQe/P9iT6KP9sP9tPvd2TNCB260fcVok/h29Xn/g9q02LeB4RGOeASkHjfKCVS46gzPC+xlgA/gSvBWBL4q+LhSy1w5QOxGPXecfAGHNJUKalUq0ZlXjOri6lxQjOsGbf+A/vp5v/yyfp9v/99+nO//HHdOf/8cd063//LN34nz5O6//wOMTg7byLv7o4EoHKDFoEGnMtqXqIZ5cWNNIBsbf+D++lzX/+IK199iAtP7qpagL1FLNpJPFX/wWDMj96/loMef/8RWr87UVqPdmVGOyT7Qlx+D3h5/Dt+hC/8yl+38T0cR4wwxtn2P5WnBshBhGGOi2uaUxvAXiOqiGY/j7VDZMB3D5Og90yPwT7WASgMcZcBmXHfmTTfg+b9jtp9bOHaeMf3083/uNH6cZ//jgfIf42/+XDtP4nhjbfl5EDu/nz8TrKvPgZMyEk6ft5nRW0IjTmyoP4m2XWX6wjm2Ud+fCO1goGvbOptHBvI82uLqTp4iws7VfH5YEwbZTZGai0rxtxWuu7nXTy+UvN+iPIl9tns5OGvbJxb64nxPTx+1cZqIbCH2mm9+CglftB4zGJxGsoAi0AK4r4O2VR6Q/lJEXTKDsGDAxlnoiaRl36aYy5BHL2b1qiTQOab62lJZz6Ht9UydbKJ/fS2u8fKojb+Mf3lBVcD1HIrj73r1IW+uHdtPT4Vh7kHK9nh1+loXOvs4LKDBpjrh5c2+Ua17iHjWVtCrE5lNePB2n10/uxRtzUvD9MpjCbqvO6wEa9xF/EY5R2IvTaL/ZV9tn4Ipu+aNYfVVtk/+j7u4bBvSnE737q9DSdhdirxrnpiK+J8xOGQHE+Kba/ZueJBeB5OAE4Ebp9uQRR9qmxDwfZOpaFRM8xxph3Ddm/4tJHOSe9f1i1UwYqF1CO22sK6BYf3pSLHwOcEX9kBzf/+cN04z9+mEu8/vhIJg/0CPI6rN1VGorJA6VeNQ32jDFvh/r42EhaXsgl5B/eUcmnyj4/vCsDGNaEWcY9xHqjtaDOywEb9f2S+ds5lsNn87tdCb/mt9vq++vvNyO47ylDmAP78lpz7dCGQZwD6gM86SoLKFPHg2Z2B21HvB/nCbH9ddsnsAAEfuv84jkB4kQgLUzGD8tYnSTUkcdiQmnotTtDjDFjIRs2zKbZ9SX159DXJ3v2CNa4v2KUJdxYVqaPzB/Cj57AO/+vf9Bx+3//fdr8Tx8p6JMIjOey269yL4bLW/8Zc7UgixdrCOsDG0lUEajs8x8ea1MIx08qClg3phfn8xiZCVgIlP2LGK130FCv38kXr1T22fxmK7We5t4/xGEV1JvrTVwBOb6ntasZAvC4nQaHrTjKWIhGN1f3XcP43gIwYIfgdDhMQ2b/xcmgkwPhd5h3CGgeVRkB2UGvJ8aYdwkb8ARuEbQx6B23vsVHN/Jw5vsbOWBjp76gcq3yXJV43VlXSZeygX94mDb+9J6Cvqrf50flofdyRhHnP5WAjXqArAqNmVS0gbQwKyMoxsVQJYBTMIPe6fljI0huwYyQYT0hU1jja574i1EODHKvMn+a9ffly5z5o++PzA5ZnYjlcrzmgO26owxgnAY6H3oDJXOI84dHLWWKifcRhtdxw8ACEPidD0MEtvuyiO2+PEj9WGAQgCPjF04MnucFxRjzDpGgw7BhYS7NrCymuZsraen+DZWALtxeT3Mh1Hh8hOI2dvrz68gOEtTptSEI5++speVHtyQI10MM3vhPH6Vb/9tncXyaXUP/8T0Nf16Kn8/zGTeBoLQINGZyYS3QkPd7G7q+13//UBlARj/M0Q+8tih3YV3nbDjV+VqPuIsAXaMeIj6j3+/ki5fp5G/Plf1DDKqnS46fw2wS41jNVEgBxh/OC3l89FIvhF9v+0iH5gJ2ehaA15I4ObS7xEmx28iz/3ZOtDNwhk2sxZ8x5rJg577K6IXYw7Idh76q929mlQHN5wQgELshAgnkIqB7LQQX0tx6zgqSQVz97L7MYnANvfm//E5lofQL4ipKdmDx3qb+Pv5eBkGrTLSIQX62BKE1oTG1JW8GTevandtczkPe6flDAL7PeJiN7Aq8+DrzV0vxVwXsEZudDrIxXzfiMsY9NL/ekuEL4q/13W7qlpEPI6M+x2rmB2hDgNOCZA9tXpg8FkMYNha4j/PsOmEBCDopYpHBJnYPAXgk909MYK77oEhjzOVCT57m/pUM3kKIPkq4cPFEzCHqtGv/d/heIMjPCRGJyGN4POMiNv9THhux8U/vqzx09XcPNGKCTGAWm6/HR2g2WIhKCUyLQGNqyeiaZ/0opZ9s/JD9q2b9cV1zTSvLX1fxF6h0j7iMsr2IzfqHrdRW9m87nYTwo/Sz9c1Ozv4x2BujvuH1CuDNb4cNglPavU46Zc73a8dYVftdo70DC8CCFhpsYg+LQ9BhO51Vxi/GGHNJEMCRfZNou7WahV98jSCcrjJyZOP+Hug0AjyygfE6CUpmgNEPdD/3FNILhPCjV5BSUMwhcA+lZ3D10wgY37+trGAWnvPZfCYEqhWgMTUDIRfXO5tHrBeLd9fV58emDtf58gdk/9ZDGC7pOh5l9OsKgXqIPwxdersnGvXQ+nZH2b/mV1vK/OVh7xG8R6yGM6iyf8b8AioRDgHIedMnAxgiUIYw9AHi9XF6fUSgBSCw00SpQfzyT5u9bBV7EidE2wNEjTGXCwKP/hzmciG+EGzasS8ZuLcnRGH8HDKDDInHMIbyMMpC7/w//yHd/X//h3Tn//hTuvV/+zRthBjEMAZ30VHZ2IX9O4wxF4US87PTGueAWRT9fox+keHLe7c0LgZHYTaDJuH6JVAnKO+G+GsWt8+Tv71IJ5+/Uhaw8+ooZ/0GNnsxv4GI9YelBJTsXy/OI0wfT1sR7xcjmOsiAq+3AET4DUL0dStnoI4cpBB/zAH04HdjzKVA6VYEZWT/tIOP82eIP9w/Kd2knGs0o+tt4UcoWMQkYkElYdjBaz7YHx+pJ3D9P+AcGsefHis7KNfQDyKQlBHNmnoEqx4iSlZrnUkw5grDujE9N6tNIsa7LJD5e/92CL8Qfx/eTcuPQ/xxzbKBUxw/aysAI9zSZvwQx0+yNM0Qeoep+dW2TF+Y9dd+tpe6WyXzh0mfgnXHaebXUSV76CkdHrU1HL6P6/9xK8f9cd6pT5Dh8Vf8vLrWArAq+9TohzgBsIRVMyhZQIZDxklyneqBjTFjYCT+snGLencY5UD51nt59h8jGi40cKv+zviZ2W0UsxgMZ1ZyAIllfASP9A1RGopzKIYxiEJlBEMI8txRL5EFoDFjgXWDjRzKxVkzqrJurlOygGQDtX5Q9jl7zsypbiD+2JRH/IWwGzTayv4h+E4+f5Ean79Mrfi6t3eSBk3m/HnUg3kDOF9CBFa9pafNEIKMDjnu5E0FSkFLJvCqx//XXADGScDohxB91JhzMPSdmnN2n0b1wMYY844gFlPmb/71LD9MWMi2UZ6JjTuiEAGoWV0XhURgcQydm1Xmkb+fv4u+Q0QeweQ6pjH/8SOJwI0Qgyuf3MtW8kUAXvi/yxjz92HdiOtOm0brSyrxpN8P4bf26f208nFcp49vpXlKyOO6Zo2pc7ZeQi7iLQXmIfB6B83U2TrUsPfGFy9T46tXKtkjSGfjXu05Fn/mNzOVK/si/qfkEw3AcHjON/UCMhIi7p+Kp1z1T7XrLQCxFg61r6HvO43Uj0MCsNnT+Ifr5ghkjBkDCLFS+olBw2jsAwLw0c3cu7NyeZm2qjR0IUQgASRZwOwa+lGeGUgG8MGmBtQrsKQnsKZBpTFXEbl9ksGPdYO5nYyHYa2Q+Pv9Ixk4UdJN9QDl5DJvqvE1msXfmWz4mceG42d3+zh1nmfjFwa+t77bSd29E5XuSfwZ8yZwrhHXFxGofsAQfZSBkl1mgwGTGJnFXPENhmstADX6oRWLTfziqSln9AM7ARr+zjwQpYCv9glgjBkv1dgHSjDJ9mkMQzF/YY4XYiy79l3O7n2VVZhZns9loWQD72/q4Gv1I4bou/Lbo8bUEdaAmdd9f2TiuTaX38/Zv1Uy9Gwc3VkfGTchFGtLJf76uSSPTAylnpr19/W2MoDq+QtRmN0+y2xmY96UIgKrfkB5fxy0ygSAOM+uSYb5WgvA08FpzgAeMhAyFpjdE5UeMPvPC4wx5jKQc1+ILcQVu/YrH9/NfTsRvOG4WRdYE5mfRIm8yubjIGCjksJ9OMZcDtqgiXVBpi83V5XlY8TDyif0/t3X6BaqCOT2WWfhV2DtUDUWmb/jtmb9Hf/5eTr879+l4788lxgctrvl2cZcMOgABCBmMLvZEEZGMGiAK/6xdu0EoAIVjkr54/wZil/KP37xZwpoXFtujHnHlDIueuiY0UfGj0COPh527ykHVaZtXLBUsk5SlhXCj9Irib/jVuodtbRrql4cr5fGXAoq/ZydVlaP6gCJv/dizXj/Tp7Z+ehmmtfaQc9wjcs+WS4QfqXnT7P+IgDvaNbftoa8N758lbN/bMx3B/l1xlwwKjtu9bIOiHOQ21PMYWQCGefoFf5su1YCMIu/+DM8zUENtb84gDL8fb+ZBgQ1ZUf7qit/Y8wYIZDjwPmT3j/m/t1e17wubNtVaknf3xgFoHbmY63Eka9/0s5Zv4OGSrGwzM5uablXgg9KY8y7I68XIf7m6RVmw2hdFQOUfK58kPv9yPypZHxhVs+tZW8uMVhZW2THH+tId+e4mL28Siefl3EPLw6y42eIQ8VkxrwL1ArW1VzAPA6CGeClskVloPl8vYpcKwHIUsiOE+6f7Cih8pn9h/0rqj/3/w30uAMaY8w7BROHuez8Obu+rAwg4xc0YuHmah6xMM4SLoK0+BBUX85+M3UiSGM3HhFI9k8W2qUfx8ulMe+YmVgvcAqmN5fs371NDXrH8EXZvzvFLZh+YcRfrC+17NNlsSDzh/jrMOuvJbFHz9/xn5+lk78+T+2ne6m3eyzxR/WBW3LMuwKRhxbQZxpaAAFYzQGnuiXO1Zrm0d+aa5YBjPUwDnr8lP1r5vkfmv3BL73RtfunMeadwweKdvPl/LmY5iOgY0ef8QoYOuDcV1m3jwv1/MVaSRDW3T5KnQjSZJZFmQwbZwRm7JISnFkBGnPxaKGIP1X2T9UCS3LoXX58U+IPl97l96gaWM1un3WGTSWOWDeqfmI2lcj+nfz1RTr8H9+p/48+QPoBR+LP64t5R6jKJfQA8wCpbEEAqgQ0zj2Vger8K0++YlwrAajFRwtPCMBYePhFq49F0/9D7Yf4Q/HnHW0vOMaYdwBlWdNTaSaCNWb+Ue7JqAe59t1YUe/fzOKcegO1iz8uWAdjTWSd7ERAhhlD59WhsoHDNqWfea10cGbMO+Cc8KNSYHZ5IW8SPb6Vlj+6qzl/ZP6W7ueKAR6fHuOG0d+F+CvWC8rGB42uRjq0nu6m5ldb6vfTqIdvd2KNCfHHpjxBufuLzbuGj7A4z6gKVOYvzk2VglIVeBJiMM5DlYJeQa5XBpDFJxQ9go8gRsYv9LKE2r+qv2BjTL1A/yHsyPAt3F3X7j0D3/laWT+Vbo1R+BUol+dDkWCs9SzP42q/PFQvIJlBY8y7oxJ/GvewOC+Rh0Pwxj88Tpv//GFa+8NDjY2ZKTNC2VSqc61ajr8GaUDPH+Iv1pPD//ZdOvivX6eTv+SyT9aabCxF5oWYzOLPXBJsePZPlRTqb5+k7sujNEAjxPc6H68g10oATrGThNIn1YsA3G2o5pd071X9BRtjakTJ/mHuQuCG6GNmF71/9AAS6CmQGyfaqS89Ou1u6h22lPmjLIu+HAxhcE4zxrwjtE6E+JufzYYvt1a1RpD1W/v0YS77/OCOKgaoFpBZVE02jn4ONtkRf5SQs5Zg9ILwO/7r89T8bid1tiPgpuePvmI25NF+1n/mkuAzL5Eg4hzdjs85Zk9iDsk5SSb6CnL9MoC9QRaAuyepvxNHLEZ87wygMeadwo5+BGnM8KoCu8W7efA7vX+Ugmp2F88bYxxH+XsWfz19+JHx64bwk/g7aqpMRs3xxpiLhete138eDzPDeJhYF5bev5NWPrkv05eVj+6oDHShmL5MVaYv41w0fgXEXpTWYfiiUQ9fbcn4pfXdbuoQbJeyT2IxYjW34ZjLpPIHQQ9QHdgNEaiREPF5J1+QK8j1FIAnbZkZdGk0pp8FAegdbWPMO4T4bIpdfQK7EHpz60vq+8O+feH+Znb+XJgrGcDxBXO4IMugoZkNshj4TuDG1/Tu8FguzzLGXDhc+jMhAGMtoEcYV+C13z9I6396pJEPWfyta/3gOZMg/oB1AzMpSj8Z96A5f8/2NAJC4q9UYhGnOfNnLh0qXzj/2PikB5Dyz6PiCHpF9cG1EoAELWfsQh23U08C8DALQNw/vaNtjHmXsLM/S1nXnAwbCO7YxcfOffFuBHSbK3l+l5Riec0YYAeeDz3MX3oIP46TdgjC7IymD0nvzhvzDshVAnL8XJqXsyelnhv//EHa/JcP08rv7qfF+xtpdn3x+7P+6q7/Yr1gTWm/2A/x9zId//sz3ZL5GxlteF0x46QIQFW+HJah8EdNtYg5AzjJVMq+N4xfZn/k8sPBHEBcQWX1aowx7wgFdYvzWfjdzcKPvr/zzp88Z9zBHGulenVifewx909jH3Lmj14I79Ab8w5gg4gS8XmqA1gjcn/w8ge3VfqJEOQ+ZoZSKSDxp76/8vqaoT7iWDPYcCfL136+p3LP5rc7cv+U+MOET+uKM39mvJxSIYhHSKefJwQcxXHcyRoB3VBtfsbzrspGxbUQgKopD/GnXe0T5v3FLzQCnGrWx9kgBKB3nowx7xCMGti5X7i3kVY+upuWP7yjvr9xz/v7IQRjqpLYO5ExA3O6hq3SJ+110ph3ghJ5sQ7MriyoL3g11ghKPlcQfqXkkw0keoj15Jpz1o915Kgl4Xf070/T4f94or4/jZI5pOQzYrBYa/Lmu9cVM2ZIFCHu+gyGzyJwGOdvlSziezLVV2lO+PXIAKLs4xeH8GPwuyb+hxg8I/NXFiCXHhhj3gkEdtNl7t/6soxfEH/M8KLEq24CkMCNjbKuGuEZ/B4CMII1dj8tAI25YMj8xfVP5m9meUG9wPT5sUm08uFdZQHVH7xC2SeOnyXzV0cIoiNAxmuhGvfQfrInt08OBr6TDdRGfMRfeVOJ1+WXGzM+4ppCC8TnnEqSRyKwrZJQtINMimgXuyKfg1deACLs2GViB5tfYJ9fJEqe7F8sUi5pMsa8K+jPqXp6cPhU+ee9EIAh/pj/N4+Ne90EYKyJuH9S+kmwxm01K9UbZcZcLCr7DGGHoydCb/H+Zlr54HauEoh1gu9nlf2bk4GU1oo6ZgARf2y24yBMCXmsG2T7GPFw8rcX6eTLl3IA1XpCRUE8D8MprymmFnAeciryOVdcsIfN3As/OHydAazKQK8C1yIDWAU0muxPOjcU/WlnEL/oM1m/WvwZYy4cYjRl/6Y1qBmhN7eZ+/+WH99Kiw9vhiAsc7xm6hPQsWGm8Q8HIQDVA9iMD8Pc/5fijzHm4lBp+MqCqgHI9q18eCeLvw/uaPYfZeKzSws581dX8Rcofo7gmcBZ4u/lgTJ+zPuj9BP3z+4Opi8dbb67pNzUjrKJoc3OEIEkijQYHu0QApCqQQRgPa/A386VF4D8oviFkf2jp6W328j1vKHkT7WjnZ9njDEXS6w+ZP80928ugrzFNL+5KsfPxQj0tLO/ka3cGfpcF1gvlQHEBCbWTOYAOgNozLuBrJ5Kw2M9oOdv7bOHcXu/ZP820vzGcqwfM6omqDUEzwjAZie1yfwx7uHLLY17QASS/ZPxXievJcbUGc5RDCI1N/y4o4MMYDYsuhrn7/XIAJLObVCSUAIaMoAoeZV+OqAxxlw8Ku0K8UdfD8OcCfA4yABS6lWZOoy9p0e7nvFhxzoZH3Ayy6Ji4qSdxz+Ucq08+8/rpTFvxajnbzZn/m6saF1Yef9OWvvd/Tzr79FNGb9Q+jm9VNyBa0rl9qlNo71Gar88fD3oPYSfZv3tHqc+jp9sJMVaclVK6MwVhnJmBF9ohwFly7SP8VmoHsDynAnnGgjACKyGZ9kAhmGj8Us8jaCGeYDe0TbGvCskAOfn0vzmikxfViO4w9Kd2X/q+yM7SDA45p191sCq56Ea/I74Q/hpo6wf62QEeVoqvVwa81ZoXZibUc/fYukHXv34blr9NMTfpw9U+jl/e00bR9Nz1VzQ+mb/WDtwDabfrxHC7+TzF+n4by80548S0N7OcakgiHWGtcYxl5kAKu+Q3kFD53BvN87jZulddQ9gvdFCQy1vBC5DzF5aPZm/DBCBDH6PXyJLan2XVWPMREK8hriL4K1y9SPIW4kgD3c/Zv/R96egrg4LEDud5wQgJZ99HM/o+9NGmXfsjXlrqnWBqoDFeW0MLT6g5+9urA33tD6wUbT48IZ6hWeqzF8dxR/xFSVysW4MIrbq7jdSiyHvX22FAHyZyz6/3VEfIBtKmrWM8PMyYiYElTPHZ6LMI/caaUAvPOPjrlD/6pUUgNph4g+71vyiYpFCANLMKVvXJk3I/fz4FfglGmPqg7J6lenL+pJKuZbfv5OWPwgB+CCCuxsr2tmvC4i7LAC7rzOAVEzQq6N+BxbTchhj3gitCyHoZhZm0wyOn7fWysYQ4i/P+2P+HxtE9Asr+xeCsXbEOvB6zcibRt2tQ2X7Gl+G+PviZe75e74vEyniLtYRYyYKzvHuIOuGg1YeBUEGsBfnMtWD1efiBHMlBSBLJuJuil8Q4i8CGfpasHTllrre18Mca7jAGmMmFgV5lfiLYG7xwaZ6eqrgbi6CP/r+agMBHeUusS7S80c5F6UvKv+8IjudxowdSj/nQ/xhBsW4hwc3lPWjNBznT76f21zJpZ/xvLpm/0bij/K4yu3zu93U/GorxF82fOm8PMyGL9psj3WEWMyYCYJzllYxnEBpIZN7bdEPnNN5fnh58oRyRTOA8X8sUvzy+GW1MTaIgIY6dPW0DCOwiSfxPAc3xpgLhOzf3FrO/C0+uiHxt/hgI8TfquYA1m7uH0thCD0EYDZ/qbJ/DtyMuSiqjaH5zeXc+/fBbTl+rn32IC0xE/TWappeqE9lwM8hAdjt576/EH8IvpMQfir9LH1/cg6O5yjOMmYS4YOxVBCqFJQkEgc6ojfUJgiJpknmagpASjsHpyH+Svo2Fiopd4s/Y8w7Znp2VrbuuH3S87f0+GYu64r7JP6wdK9TaRcBXayLbJYR1FVufaeUulgAGvPmUPZJ3x/ij76/G3nQ+3IIPko+NerhwQ1lBMkMTs3MlBfWkIiX2CiqHD9x9mTIe+Pr7PbZfrInIxjc1ivnYLfYmIkFmRCff2qDKJ+P0hGMhWh20llcB5ojPsFcSQHIL4XUreZ3HLRSn/rdWLBYuDTMmF+aFyZjzDuAmV30+VH6SYBHBhDDB5k6zJV5XjUq7ZJhVnzAUSUhAxh6AEelW5O9w2nM2KjEH6YvC3MqCVfZ54e57BPDF9w+cQNlFigicdyOwL+EMn8lrmJGaOfFgUxflPV7uqsh79lgL9aNEIrZi8FxlplgOIXZBOV8jnOfhBJD4YcnXWUD1ds6wef4lRSAVfMmSp25NHLwKQJQfYFelIwxF8m5nf7p8zv9j27F7Y08z2s+gjwGvtctyAuRdzqIwO6cABy5nbFeGmN+G2U9wMiFrD/X/8Lt9bT8+GZa+Si7fi4/vqUZgMz5YyyEqgLqqP9YAtgkok84gt5eBMDd7aPUfrafmiX7hxhEFI6GvDvOMleEuJJ1PksAHjNJoEwT4DOyP9nmRldSAJ6eU+uDIgAZ5kjdrgMaY8yFcm6nfzTc+VYIwHubsnRfvLteXP1mYsWtX4THTj0fZIN277UApGc61lCXgBrzG2E94NC4h5z5Q/yxFpD1kwCM26WHmzn7x7pQt02hgqoDOGIdGHYHKg8n04fDZ+vJTmp9E8eTvbjvOOKtds6IGHOFOH/+KwN40JQIRACqR3CCuaIZwFM1ILMgIf56uye5NEEBjUuajDEXB8HeNMEezp+by7J3p+dPx81V9f5NRyCYS7zKi+oEu5uUgCIA6QHkw43yFkq5zrxeGvNbyOKvOAFj+HL/hko+137/KK18fD8t0fd3bzPNbaxIINZ2XSCDx9oQoo7NoEGjndqYvny7ozl/ja+39T1OoKqwiud4g91cOeKU5rxW+TNJJUpAiwBUS9kEcyUFIL8sufQ0eyoBZYBjtUCRHTTGmItiaiYEYNXjE8EePX8YwFDeReaPuV/To/6eemYAFeSNXEDjww0TGMpbHNAZ86uR+KMMnEqA1cVYBzYl/m7854/Tzf/5kxCBDzQLVCXhsS6M+v5qqADRfzJ96UfgG+sBsVQzRN/Rvz9Nh//6RCMfegcNVwqYK482Ntgkjc/GwUHVJtErGcA67t78Oq6UACSQ0ao1DLVOMEMGMMQfB2o9ZwC9UBljLgCCPUo/6fOh7PPmmhw/cfhDALLDT38PpWC594/X5JfWApZCxB/rZXy40SOteUexVsrCPUSh1lRjzN8HEUffXwg7xr1o1ANun5/cS+t/eJTWPr2flh7e1MaQ3ICrdaFusCbgpI7woy8Yw5dXByr5bH71KjW/fJVauH7GfQMqq4ZeJ8zV5XUJKJoiPh+rHsBR1juulXh8Eq+BqyMAefPjIMPHjhUCkLLP/n6jDCSNoAYB6IXKGPO2IP44zvf53F2XtbuGOkfwN7vBLj/GLxEYEhxy1AWWwfLBRgCnXX7WzAj41P+HiRblLS6YMOZXoUt8ZlqD3DGAqtw+Vz++p3Ew2hTaXI7H58+ZvtRrXaiCXUrCGeVAeWfr2V46/svzdPzvT+X6Sf9fd/dEwfDrsk/HVeaKUk7vs/6pKmSGapPABKajpJIcb2kt4zkTpi+uVglovPe4fI5mdoToGxzSsBm/rDY9LTaBMcZcEKXUi4BvbnNFfT2a7RWHgr21EICVwUN9YrwRCvb48GK9jA+y004ecosQVGDHY94wM+bvE9c4M/xYD8j+IfjI/K3+7p6MXxburUv8zSL+4jkIxbqtC7rWIz46xe0z1gANet86ksvn8b89SUf/9jQ1v92WAyjVVaddHD+xwefF+WcYcyUJgUeVzFk7XxeYSkoMxnXC56d0Rzynhh/zv8iVEIAKZFiAWLwIZti9jkBGfX8n8UuK44xfVDUD0Bhj3gIWevr6phfmJfQwe9HYBwTge7fz4HcGO8/Wc7BzrJh53aT3j4oJyj9jjawOgkDZuVsAGvPLSPxNp6n5GW0GMdR95YPbKvnUvL/3buU5oBi+zJ0TfzWiEn/q+cPtMGKn3t5Jaj/f05y/w//2XTr6H09S68musoJ53EO8htd5jTBXGZ3jcctnJb3xCD+y3834mu/jsxPdofnjE3YpXAkBqKU03nn1rCD+KGNqxi+Jg8wfu9kqZ5rA35Axpl5o557ev5kQf4vZ9ZORDyEAKf1E/CEKFfDVcOyDPsxYCiPYoyx+2A7Rx8EHmTJ/w9zc7rXSmL+Lyj6X5iXyqAJgvt/y+7fT0nu3NfidkTAIQ/X81VD86Tovm+fK/B01U/sFM/62s9tnHGQBKf2U42fEV2Q99DovEeY6UK4RVRFSLUOlTAhBjYOoEkxcE5SCThBXJAMY/1d+OXKxY1hjo6syUO1iG2PMRRLCbmZhTuJv6WF2/kQAUgpKsKfev9npegpAqT82zEIAhvAjoFPfX7VeOqgz5ldDSSfib+nRrbT22YO09vuHEn8Ld9bl9jmzMF9P4VcYVQLE9U/s1Hl5mE7+8jwd/vfv0tG/Pk3Nr7aUDZQzMLOUY41QzGXMNUQ+I2yc4jHCnPGqH7bbn7jPziuUAYxfDMqcvr9YxLBr1SyrCZ/TYYypEWT+GPvAnK+VhQjyQgA+KALw3obMYHKpF0PfWV7rGfQJ+hp6JfsXwZ+yf1RJGGN+nrik2dihv1ez/irHz/dvp9VPH6j3jzVBY2DI/FV9wHWDSx3xx8Y5hi+HzdTZOlSZ58kXr1Lj8xep+c1Waocg7BPgsj6EUFQllXeJzDWFUk9pjbhmNBLioBVfszkyeVMGrkgGMBYxnOx6sZDFQqUhjTRqxi9o0n4hxpiagvgj8JudUYZvTnO+NtJiiD+ygLiAzoYoJODjeXm+V3lt3dCaWRnAZPGnJnfWSy+ZxvwsI/dfyj5vrKal+5sa7r7ycXb9xAWYjSHmAKoSgP7AuglAUnhaA7K9vUY9vDxIja+3Qvy9lPBrPd2TCYxmnpXqADmE6rXl5xhz3eD8r6pnSDahNdo93Sc30AniSghALWQsTBHE8AvpHzSy86cygMPyJGOMeXOk52aL82e18x8CEPG3+HBT5aBYvCvgo/SzpuKvxH5aM2X2ggjsZ9dPraU8Jz/VGHMeLuu4vlkDZteWXmf+Pgrxh+tniEB6ADGCIfvHZlHt1oJygXO9y/Ez4iTGOrS+200nf3uhg6+7iL+DVun5K9UBWjjyjzHmOqLPTT4zO331/+EKqvLoagN1grgiGcCymGFiwKT+wxB/JQPIAmeMMW/Nuewfu/tzN7Lz5yICMG4J+r4396/WlGCOXX1EIMdooPNkfYgZcynosqYE/Fz2771bWfh9+iBu76flEIIYv7A5lLN/dVwH8oZ51cvUj5hJ2b+vXqXjf3uq/j8ZvjA/uZ0NX/K6YIzhcxO9gROuhsHTdobZJFpjwq6TK9cDqBLQ42wEw84W8zmMMeZtmZqeTjOL85rnxc7/0oNNlX0i/ObWlhUUauxD7cVfpsoAagwEQR4fYBNWwmLMZcH1P831v7GUFm6vq+8X8bdSyj5VBk7mb62Ufs5GeFXDtSBf9wMZP2Hu0nlxoHJPev+a3+0W8ZfdPmX6QgzlMMoYoeuHlom4PiiPpuLwDAHoDOAYkaFBLGqVCQwzOipXO2OMeUswfSC4Q/ytfHQ3jjtp4daahjsr2JskiOmqNbMTH2aMz5nADzBjLovs9rmsDB/9fmu/z46f9P0tPrqR5m6spKl4Tt3RdR+xESMdGOzOnL/vjXmIGIr1gNjJmT9jvo80BZ+buIDunsgJVImnuKZsAnPZlHTsKQ2YvVzPrgn9sYjJ2c4C0BjzpqjkazrE36zGO8zdpOwzAsAQgPT+aMYXmT9s3icGPqRKGVismRoCrxmAxeEvP2yM4frH0Cmub5V9Mvbl8U31+lHyyTrA92QEZfpS440gXe/9HCP1Dlup8+pwNOuP7B+GL4Pjlkrb1DqjagAvBMZ8DzRHXEdyAY3rCAMlNAefo2ql0GfoZFw3ky0A+UWwqPGmU8ZEIBOLG5asOPQgCO0Caox5I0rwJ/G3EuKPQc93c+nX8gd31P/Drv/0xAnAgGWRjbNYNyX+vpcB9JppzEj8VX2/xfRlRY6f97L4exji71aIv3hM419qvA6ob4myTxw/GffwbE+ZP7KAnRf7Kgcl+6dStniu3T6N+QnimlDbBCYwzBtnREpojrP4DMUJlM9VXTcTcO1MtACUyCZgKdk//UJigZMIpKwp7ssBjTHG/DZo35HrZwR29P3R77f4IMRfCL/lD26nxQj+NPh9MQSgZv5NCOXDqSoBlXkWh5z+XDFhDOj6J/uP6+9y6f2Na375w5L907gHxN9iFn817/9lk7x/1Erd7aPUflrE39dbcvzUuId4TFkMAljiJodOxvwYhAc6LwSfWs4QgUo69dKAMlA2TyZEd0x+BjDEn/pY4s1H+Ong607lylOea4wxv4Xi+slsP3r92O2n7HP5/TshAu+kpfs30tz6cpqprdvfz8PuPjPAzgvA11bv5UnGXGfIAJYNIMo7F26vafNn9eN76vtTBQBunyEQ5fxbc7jWe/snqfV0V46f9P41vt5WJpAxEJSxKWYyxvw8fESySTKIz08STe1ceaiqQz5L4zpT+bQy6PX+MJ1sARjBisoV+CVg+hLHWShw5gEqDatgxtGMMea3Uw18nl3B+GVT870o/1x8kEc+EBTmnf9YRmu88/9zIPYI+NQHSEkL5SsTsnNpzDuD657MH2Wfqzh+hvCj7LP0/TL2hWoAib+q7LOG1z/XN9c1bp657PMotZ7kzB8D35vf7agUVD1MzY4CV1dMGfPLaPOUz04yfZX3SDu3nlFC/XomYHye1pyJFoD8EjSLIxYvDX4/aasMNA0RfuVJxhjzJmD7zsDn9aXS93dbVu/M/5pemI2grzxvEmF9VBYQA60QgHyQ8YHmddNcY/Kcv9z3y8YPJZ4rH95Nm//8Ydr8pw/Tygd38rxP3D5rvunDXE8C0u7OsUTf8V+e62DQe/OrrdR5cSj3wmz44gvfmDdBn5sdXEE7oUFCAJKICgGoTGHNL6vJFoCxwFG6lEc/tPL4hxCAMoVxL4sx5k0gCJydTjMh8ij/nL+xopl/yv7d3dAcMEZCTDo5A8guZqyXHFRNWAGa6wjXfOX2KcOXXPJJ2ffKR/fS+h8faewD2T8yf1MhEGsJQWdc15XbJ9m9zstDOX0i/PLIh5088mHvRNkKrQG+7I15I9AbajtrVCPomJ9ZtVPU+8Ka/BLQqhHzKAQgGUDc7Chl8oJmjHkDyAAoCFxdVLYP58/F+5tyAGTsA/dP3Ny/HxArpz6cWCsJFlWyonWT+8uTjLkOIP6U+ZtJU/Mzcvwl88eGD0YvDHvH9IXeX417WKnpuAdd0mzq5IAUU5fOznHu+aPf7/MXcvxE/HV3TlI/glX1/k5AoGpMbWHDpVPGz4UGUS8tGUCXgL5jEID0r6C4Sb2exBsfC5ru94JmjHkDZPxSTB/o98P5b+EefX9rxe59wlw/fwhLIzHfMNZJxB9rKI7JqpwoD1oFmusClZwzIQDnQvzFtT2/uZqW37udVj+9r6zf6u/upWVm/YUonIvrX+Xftbz+45olGO0OQtyF+Ns+zm6fX2+lkxB/J1+8Su1nZdxDNbfMWX9j3gq1UTCBIK4pDYQPPSJvEj5La35tTbQA5A3OPYA5A4gAZPEjkHH8Yox5E+j/UebvQR74Tt+Pgr/1EH/M/ItAcRJc/34RPptOyxgIyublXuZeIHP9IPs3PRPir5i+kOlf++xB2vynD9LGf/ggBOCDNM+4h+V5iT+y//GS2kGsSTA6aNP3V7l9hvj728t08pfnqfnVqzzsnY1yYiRjzFvDNYcDaO4BbKezVikBjfvrvrcy8RnAFEqbWnc1M5MJ9K6WMea3cr4HKEQepZ557MMdlYJh/DCzvKDeP4m/OkaAvxrWxjhi/dTuZQSDMoEJQejKCXPd4JpXry/X/GN6/u5qzAPD3uX6GYJQZd+Me5D4q9n1H9esruOIfeT4ud9M7Wd7qfXNTmp+w5y/ndR+eZC6yvy1Izil7LP+5WnGTAJTfI5WGcDSA1iZwNQ9SpjwDGDuX1EDJlnAOBCEU3H/JIdnxphLpBJ/syULsIb1+7oMH5j7RSZQpV8EgDW1fH9zihhU+sDiz1w/uK7nbqxI7K3/6XFa/4f30jJZfwyf1uO6X5pXWXjO+sdRs+ufSiiJvwhAe3uN1HlxkJpfb6fGly8lAjuvDuOxCErZ5KHsW9d6ebEx5q3IGcDQHych/koPYDaBcQ/gO0PNzmXXCwGoN72kXk/jfu9kG2N+DdrQr9z/VhfT3OaK5nwt3r8h8Uf558xqzv5dLfEXsE5SScF6qsDQ66a5BrDpE9e8xj3Q7xvXOAJw7Q8P0+rvHygTqKx/PKaRD2z8SPzll9cCLtW4XtkEH836C7HXou/v2+04dlLreR7yTqvMqCfJl7gxF4Z0CBnAZvYhGWUAdb2VJ9WUyROAVZDCH954DAxCADKEkVLQqvbWi5wx5lcxzdyvmTSzPJ/F35017f5T+sUtYyDU+0f5l7IAV4RYRwkKdbBmVgGiMVcZxJ+u+Vk5fnJ9Y/bEnM+1391Pqx/fSwtx7TPuhU0hhGIu+yyvrwHaAOcYhgDs9eXoyby/74m/ZyH+to7kBppL0nxtG3Ph8PlJDz2taI2ubkc9gGQBa3zZTWQGUDtZ8caqpIE3vmrAjDc+K2+e5MXOGPP3wdFzmuzf+rLGPWjeX9ziAqogMILEURbgCmUACSDV/9dndA59gEPdpw8sL5/mipLF34yy+tW4B1w/OZYe39LGD7P+5PY76vktL64D5frUBnhcu3nYezF9+SLP+qMHsLd7XEZjFV8EY8yFoxJsElGYqdGOFnrkLARgQgBysFFTUz0yUQIwv5G84byx8XWIvVHqNY7vKW8HMMaYX4HKPzF+ubmalj+8I/OHJfr+yPwRBCL8IghUFuCqwFpKAEnJPJtoBImxniobWJ5izFVEAnBhLs1vrsjhF5dPXfMh/jCCmVlZzJm/mrp9xsWbsw5s2sR1S4av/WJfwu/wf3yXjv/8bNT3p5nIxph3hz5LswhkLjlJKX2WcrDxUmNPkokSgLyJlfhT0IL4C7Ut5c0h8YdCLIcxxvwMyvzNz2YHQMrA7m9GQHhbh0rA1pfLzK+rJf6q5VEbamyWnf+w8rJpriijTP/aUgi9Nbn8rnx8V4Peyf4p88ecT4m/GV33tVKAXLNkG+JapadPs/62jjTrr0XZ5zccOxr0jigkRpqEYdTGTDL6LGUzVZ+j8XlahKBG0pXPVVUt1pAJywDGesyb3R9k589WHCH8eJOzjTkP8sT8fGOM+Sk0+2tuZhQMYvay/PiW3P/IBFD+Ket33P+uUubvPForWTPzkcs/vXiaqwnlnLh6Lt7dkOHLSgg/Zf8+uhdi8IY2gaYX6fnLGz51u+61YUPWD/EXAq/z8kAD3o///FTZv9aTvdTbP8nVUGQhCDx9ORvzbtHnZtYmaqWgqkb6pJszgqFP6nohTpQA5E3ULjWqmr4/FjoMYDTAmMfzc4wx5mchrotjej4Cwo0lGb2QDVh671buAbq/KTMYTGGmZydrifxtxFrJmloOb5yZKwdCjgx+XMfVfM/FRzfyrL8QgGQAl96/JddfeoAxhuE19ev5I/YpJZ/nDF9O/vo8BCBD3rclCDWHDPEXgahNnYy5JOI6QwCmUgoqQ0oOKhUlAPPT6sbkCUAp7HiD6ftj9AMloJR+utTBGPOrIMArfUA3VtPSg80QfxhBhAB8eEMzACn/nFE24CoLQGOuMJX4w/AlrnXKOxfvbabl9+9I/GnYOxl/sn+31lQKrtLPGlFtzmSjiUHqR8zT3W9osDsln8d/eS4R2PxuR6JQWQdl/sqmjjHmUtD1hg4JwYcAxJyJ1jSVgboE9ALgPYw3kvr3PHQR589Y8GJh1G6XMcb8HZQALAJwgfLPhyH+HmfxhyCcZebf4mwOBskGGGMmDpm90OO7vKjrWqMe3r+dVtX3l8Wf+v42V+I52elXjp91QQFlyfzh9hnij56/Vog9Sj4bn7+UCGw920/dyvGzKjdzOGTM5cKmy/A0DUOPoEs0FiIOlYDWNEE1UQIQha1ev268wSH+qIMfzf6zADTG/BqI8SLQoyRMA6AfU/55W6WglH2O5n4ZYyYWufsukuVfUXk3om/tswdp9dM4Prmn8Q+z60vqBZbhS82QjovAUaYv7V7q7TdT8+utdPxvT9Phfytuny8OchxEJVTlg2CMuXS0X0P2vWQAqVI8cwbwAmFBjDcYd50hFscauhiHGp5DZRtjzM9BSdjsTJpenM/mLzdW5fZJz9/i3XUFipSK1TEYfBfEuyGh+/ooDxgzyXAuh/jDwReBR3/fyod3c8nnR/eUBVSf78243pfm1R9Yq3OfWFHZBIRfHvPQ2S5D3r/eTo0vX6XmV6/0fW+/Ec+JQLNPFVRlhGCMuXSqDGDoEbL1g5M4EIIYwVgAXgBIbATgqAcwxJ96AOvbZGmMqQfKCGAEsZlHPrwe+L5eTF8W8uBnosHroIb4T5yOjwAynhwhfCUE86PGTB6cv3Ee5/Eui5rtyXW+9mnO/i1j+HIHw5fX4x5qdb1X4i8CRja6KevsvDqS6KPXr/HVltw+ua9/0FSmQRkGMg/ER46DjBkLeUQdCaq+tAkCEJPKOreoTZwA1EIXbyj1tTKBIcXqHkBjzC8R8Z3GPqxGUHh7TYHg8ge301IIQIJE7r82pi/EujpysCzxx383YrAmcbAxvxnOZw5MX5bm09zGcoi9DTn7kv1b/d29tFj6fHPmL8Qf2f66iL9CbnWpyj4bmut38tcXMnyh5w8DmN5BIw2aHfUbWfwZUwO4/rgWS4WiHHkxgglB6B7AC4A1Tk3RzAFsdfNB+UMslnYBNcb8iCJ2CAzJCmgOWIi+1Y/vqQ+I+X/fy/7VMCB8N5T/TsQfgXAlAq/Ff7u5akj4ccxMpRmyf2uLeeRDMX5ZCQG4/OFdzQDkMRk81Q00XNnkJmgk+6dxD9/tpON/f6qDr3sYvhBYOvNnTK0YZQAxqRwJwIF6A+vIZG13szPGGxwLH5m/Kr2qmTdeAI0xPyKCwukscmYW57X7j9unXABDBGL8gigkaOR510EA8V+o41z2byQCLQDNpME5S9nnLH1/cxrhQmZfwi9En3r+7m2keXr+Vmro9jkigpjT0zSM2KZ/2JTjZ/vZnkRf69sdfS3xR2lZBJkEm9oVd+xjzPgpmzdoEnoA85g6l4BeKFMseOVNRlmf9WMRHLIIehU0xpxjlBWIwJCsAOWft9bUE0RGgGHQC3fWsvPnlR74/hMUFTjNe1OJv2sigM3VglNW13iIP/r+6PFb+eR+Wv/j47T2+4cSgFz72giq8fldZf8o7Ww/P5DjZ+7521UmUCVlbHxrw9vxjjG1Ii7JKVUoDtNZCL9hXMdqUavx9To5UQ+LI28uGUDEHwthHDjuMCPH9sfGmPMoMAxhJ+OXGysq/yL7hwCUAcy9jWwDL+fPayYAA4ljxB+lr3PMPSwCkBi5vnGyMa8p5zBz/Oa4xjF3CsH3etB7Ge8Sa0Bd3X1l+BJBoxw/T9qpt3uSHT+Z8ffdTmq/2E+9w2YatLt55BUb4A53jKkV6t3l2tS13AsRiEbpfS9br3LtGjEZUQ9vGu/baS7/VPYv3lwNgefNHZRSCGOMqaAsDOOXtaWc9fvojoY/8/XCrVXd/z0nwOsE/7mlNJbs6PR8vAe8DzUNko35HtqoCPEX5yvX8Nzmsvp5MXpZ+/2DtBICcPm9WxrzMrexlMs+y2vqBsEhAWP/KJd9Iv4o+Wyq7HM/dbePVVKG23n2OyAecrxjTJ1gZaFCkYSUklNxTSsDiGYJjaI+QC7bGl26E7PtLYtVBp2iruNNpUwCJ9DqDXYdvDFmBLFeCByye2T/Vj68k1Y/IzC8m5YeMgB6OQeFleipX1z4DtFHlf67yf5lARhHvBc5S1IdxtSXqncVA6f52+vK9q3/6XHa+NN7afWju8oGMvJldmlBz6sdCgZzyRgCr7tzktol86fs35PdkePnsNPLmT+LP2NqiUq4qVJEp5yrUjwrGzeUh5LE0vNqcg1PSAYwjnNvLNP1NQdQDjtZXbsE1BgjQruw24+gofSLOX+rnz1MG/8YgeGnD2QFz8iHa4venxxAS/iFSJ6enzvnglqeZ0wdKZm/UW/v2qJMX1Z/9yBt/stHafOfP5DjJ6JwZmWxnu6+BIAlYKSNRaYvL/dT46tX6eTzF6nx9ZYygd3to9Q/apdNbsc4xtQWLml0yDCu6xB9EoDMLKdKket3lAE8q81H7EQIQLJ/cv6k3w/xR20t1qqobPr/Sn2tMcZUmT/6+zB9IROw/PiW5oHR96eSsAgKrzsExXJOJAtIkEyWpIYlcsacp8pcz64syPCF6xrBh6kTZd58r9meleNnCMW6iT+VfXYo+2yl7s5Raj3bS41vttPJF69k/qK+v72T1D/v+GmMqTdFBJ6SlCoVizoQhNzWTKtMTAYw9/310rCUferN1PvogMUY8xrEjIZA391QH9DS45sa/k7P3/Ti/LlSx2uMUoAlizKD+JuOr/N9xtQZBCAZ/IW4ptc+e5A2/vH9kdsnMz2n4zFtaFAiWsPTmSAQUYf4k/D78lU6+evzdPKXF6nx+YvU+m439fdfl30aYyaP1+WgJK8G2cG3P8h6piYacDIEIIq61NRS/smbmRDSpFud+TPGEOghaMhq0fcXgaBmgb13W9k/ZQRWF9PMQun7s9ApGcB4L+bJAJ7rhzSmhuh8DWGnnr+N7PjJPE9EIJk/vtcmD1m/UTa7PuezXAIH2cMAt89OGfLe+OKVRCCZv9aTPRnB8HiOcywAjZlI4nqn909loCSv0C8hCLMZTD10y8SUgOZ06mkaavYf9bRD5/6MMYrxNNJgJo4I/BQgMu/v4Q0ZQygDGAKQfkCNO0DkXHcByH9/6aHCRXE6hLGyJnpvynOMqRFk9HRtM+7h3kZafnw7l31+eEfX+vytco2XjYzs+lleXANy2WeIv+NWiL+T1H5Oz99WFn/f7Oh75v2RGaTNRY6f3uA2ZjIhP4Xgo3WNsRAIQLQLmUELwN+A3khqaBF/pe/P2T9jjCDQQwBmR8tqGDTjHpYJDh/fUmnYjMo/a9YPNA74z+ctQwCG+CNo1kF21BlAU1PYvKG0e/HeZlr+4I7EH7ca63J7/XX2r9rgqdmpTAwzOGmn7m4Wfzh9Vtm/1tNdZf4Y9q6eP8SfYpzyYmPMZMHlS6sa5Z+0rrX7KYUgRABGtFKeNF4mIwMYQm+KhZDa+VgYpaCLnaox5nqjWA8xQ3lYiLy59aU89P2922nlw7tZAEbgSJbrOg58/zE5O6KMymIIwJUFDdKeXpjXfbWLnI0JZkLcLdxaU68fbr6MddGsv7jWub6V/dP5W08oBesftlLn5aHE38nnL9X7hwBsPz+QE6h6hIwxE8/IvLJTpha0umplQ7/UJXk1GQIw3rBhvHFqouSwK5YxpgLXTzJ/qyXz9/CGRj3QE7RwZ0P9gAhD9/6dI94G+v+mI2hG/CECEYNkUaX//DaZcUMZJ5s6cY4y6J2h7ksh+Mj8rTLo/YM7If7W5fbLeax+1jplsCPIk+ELsUsEf3nUw4EGvDe/2spun6Xsc3Dcyj1CjmuMuRLIBKY/SIO49kdj62ItqNM1Phnb4QhApurzJmKLTDqV1GqNlLQxZjwokxUBIK6ABIZkB5QZiO9nlhF+2eFS2s/Cpgi8eD/ifUEYMytNIhCR7AygqQn5us79vCsh9riu1z57mFZ/d1+l3Yv3N9LsKiNdqrLP8sKaQHyCkcsgYhYNeX+2nxpfU/b5UgdD3+n3GwWFjmWMuTKQAawSVzkDGLpldK2XJ42ZycgAxhumOloUdHkjq1paByvGXFPOlTFS9kkpGIYQqx/fVQZw7ka2hOc5tcj8sV/FrmCsZ9rAos9nDIEf7wRvR/XezYZIxlxj9F6V5xgzFqrreiGu67VFlXOT9cPts8r8LT28KWFYbfDohK4LXM5xTdOuMmj3Uu+wmdpk/r7bUeknR+tJ6flrdEfGEMaYq4Pa1jCB6fTSoNmREUzdNnsmRAAyRyNUdKsbb2SIQEol6AXkTfSumTHXjxIkauD76mKau7maB76HACRAJGicW19+bWwixTPeIJGe5ewKNsi20DiDIQTH8oHA+0fP5JyC6JEJTLynVn9mbHBdx/Uqd1ocP7muH5RxD5/mcQ9Lj25orufc2pJEojYt6iIAS0xyNsyjqwaNtko8GfegMQ/fbqf2szLq4aCZqll/9jMw5mohnxJMK+PzXjPM48iJq/pc75MhACmlKKlUNVTGosnumtdMY64v9PzMrhZbeExfHt2U8cti3JId4DF6iLL4Ky8aJ2UdoyeA0q/+UTuLQNayS80A8H4UAU2gTRloCMFRKZ0xY0SjXJbm1btLVp9ZnpR9kv1benRL4o9NH0ydVN5ds/JPmT/ENU3Qh8ij7w+3z5O/5SHv3e2q569c+w5kjLl6xGXNhm8qRjBkAus2wWAiBGCEKnojq4n6uWQiHvDCacz1I+uXEC8zGggtcwiJv1u6ZUYYphF1cwVkp5+gr3+MFfyxjkGjE6Lw8kvAiJdHmRZGQcSBAMR4o07BtLlGsCkRhwyd1pfTfBnlItMXsn8hAOn7I/OH42/tKHFd3rDu69ruxTVO9u/o35/G8Sy1nu1lt0+ueWPM1SUWAz7zVfaJbuGaH8Z9sT7URbpMhAAkZUrq9CzeSA1VjFsFTFpwa/JOGmPeORpfMD2d3QHLvL/lR7dkDb8cwaLmgVH6ifgjozU1xiWODwCyAWT9CAYj8OvtnqTu9lHqvjrS11kAll3By0LqL/7wPuIEGgG3BsEvclsygZWjosWguQR0XVPKOU9WP67ru3Fd4/ipkm6y+pR9lll/9KrWKVNNHEJQR6tKda1Xs/6e7GbXzzg6L/aVEaQvUGXfxpgrizaCyP6Vlg9lAUu/b11Wr8kQgCywlFQQKIWKzn0z8UaenTo+MeaaUAWJVdni/Oayyj2XP7qrLAHGEJhGkB0Y9QWNcYFgc4oFvx8BYefVoYwfMILgth3BIAOhCRZxCkMoXi68N7yf8V7F+6WB8MsLCr451FuFCOQ9NOYd8vq6DvGH6+eNlbTCrL/f3ctln4/jumbUg0o+yzlZo/OS61zZ/biOh62OMvuNr16l4z8/Syd/eZ6a32yl3l5c65oDlkc9eOPamKuNPtMp8ca/5JwLqHsAfyPaRUf0xZunGYBFADo0MeYaMR2BIpm/pXkNflb273HJ/sUtWQPm2Y3mgY1zgShBIesV/X7tF8z/2tbRerKjvqDefgSFmFpJAF7+B4LiaMZjjARgHqKvLEu8x7kkdDL2CM0EwvWJ+JsN8Ycb7cpi7ufFzOmDO2nlo+z4yffq+Rtd1+O8sM/BJXvuOh+ctEPoNXStM9ydnj/GPbQ07qGZq5ciIFRFk15sjLmyxCWOCQwC8KwdB+aVmMKQ/bcA/PUoOCoZwPMloLyH3kkz5npAyaKs4Rn5oIHvN5UdWI4Dp0AcAzXMXOVhYwwSCQo5Ys3CuIqeH3p/ml+fs4B/dRgCsJmzAvGhcOkfCFXwHe+VBsIvZNfFuY0lHbLXny8BtzEXjXYfyPyVnr+VyvHzhkxfKP1k9h/X+MKt9bju43yU8KvJ+ZiDjxB/xdiJss/9EH8vD+T0eYLpy+cvc+lnXOts9MjHgB4gvbb8HGPM1YTrnPUBF1CZV4YAlAto1i51YEJKQHMplUxgdISqjje2Nu+iMeado8Hl9AeF+Fv58G5a+fheHvjOyIfNFQmY7PrJk/NrxoHiO2UFmF0ageHeSWo/3T1nA7+vwdBkBrMLaASGY8gAjkRgKatlGPzcxoqyqwTk3CdTGGPeAWzosPmgcQ+31pTFZ9bf2u8fhvi7q8yfNnXiXMzXdZyLdTgduVS5xqlMGlD22VU5N5k+sn4nf32eml+9iu/LrL+jttYCXeNaHPKPMcZcYeI6J9snR2CSV9ItfNY7A/jb4I2MN3FA9o+FtM9OWn3qaI0x7x4ECX1/SxEorv/psQ6+pmyMnsDXfX9jjhJjXcrZv+L4qTlgWQA2v6X/7yB19xvZAIbykHjuWD8Q4v2i3FMZwHgveT8rAegMoLlw2HQg86yNh5zRJ9OH8Lvxnz9JN/7TR8oAzt8K8bfEnL94PqdhbU7FuL5DzCmwi+uX8s728xB/IfwO/s+v08F//VaZfpk8MQCaDH+Ngj5jzOWgdYIsYMn+V+aVdaH+ApD3C7FHBjAOKWmVTMWfchhjriBoOQJF+v4QJyH+NBcsRB/mEGQByQaqP6gqVxy3+AsQdCoJ22uo1w83QExfKAVDDFIqNghhOChN4axv41zIRu8xvZURjJMB5P3OAtA9gOYCQfxVZZ8lm89sP416+N19ZQD5mn5eXdc40nJN1+C6FnGdKrsf1y3XOJk/ru8WTp9fbqUGZZ8h/pj11z8pmT9vVhtz7VAbSAg+Xf8cERfkz3oeLMeYqfene7xB+Y0rByKwvIm5ZKomHwrGmAtH7oClRGzhzpqyBBi+LHEw8uHeep4JhmPlTCxlNQkShxH0dXcb6vXDDILMnwJCBr/j+hnCj8zAsE3/X6xnp7GejfPDQO/ztPonJQDjQAxq1lpdAm8z+XCeabOBbPO8BrqzkbP+x0dp7fch/D6+q15estDagMCEKMRibc7BEtBxzVL2SYaPvt6Tv71Uzx8Ov5R80vMrc6fz4q8GwZ4x5hLhmufQmhFrAdoldMzo60oMjpFaC0DVyvIm8WbFoqtZgPH1lNKoeZaGwxNjriBc2MypCxEyu7qUFu9tZrfPyvGT/iACxVGv2piXsnO7feoJ2j7SDDAJwG93UrfYwNMIftrpqfdPX5MBjHVtnCViCsoR2ktZADJHcba4gCqraswFgI6rHD/n4hyjx09ZvxCAq797kJbeu61eQGX+NPKhlHTXBO3oR/zBtUv/LmKv+dVWOvn8hTZ5yAQquy/xlw0ftFE95iDPGDMmiobJwg8BmHWMDu7n8TFS8wxgVs4ESa/FX9xdKecxBUzGmHcIgSLZgpni+rmRe4Qo+cQWXtm/W6saVyDXT+zhxxkoVuKP4JCeoJN2ajP3L4Rf48st9f/1D1sSflrP4oNAQ2H5vlu+14cBweIY1jTe61ICivgblYDGfRaA5sKg5y+uZ65bhB7X8SqmL394lFaY9/fwRh5BQukx1zTnXp0E4PBM1zfjHtjQaT/bSydfvlQGsMr+qa+3lHXnzJ9jFGOuJbr+WTdOlbSSCIy1gYN1JLeyjXd9qHkGMAQgrp8lSEqI5WpHzQurMVeUCPpwCIxAEFEyf2M1Lb13S8YQ2fWz6vs7HyiWl44BrVOxmJPh6x00Umf7KHVe7I96/xgMzYDoagcQ8wgNjZY1NJnA10JQIvCSUQZwDhdQ5rCtynkxZ2Hmxp9ZNVcGssxkmBfp433/tnr9Rhs6d9bzxgMbOpg51Uz8ATO8qswf5d2a6fntjoRgLvFu6ZqW+FOc4hjFmGtNEYHSLSSuSGRVmiZux/F5f556f7rHm8MQRXbLNVBxGG+YF1VjrjQSJKUnTdmC22uaDbYcApBgEXdAlX3WBNnBxxrVP2hqxIOCwhB/lIGS+aMkVIt9CQx1G+uZsgnNjrIG6gkMITiONY73e2YhBOBaNuVQME4foILxegXhZnJhQ2HhzkYIvztp/Q+P0tqnD9LS/c0s/JbmtZlTN9F3Hq7XLmWfX2+n4788V+avKvukt/e0188lX8YYU9CKFp/pZAFHCa126Jq4lTAcI7UXgCqn4BjkAMq7asZcbcgAzK4sKhO1xGDox7c08F1zwSj9XF3MweK4ibVI2b9Y1On7oSwsZwZCADLqYa8a9ZA3r7ShxYEAjIM+oWG8bnCSRSC9RdhFa427zHWOXsvZnG0lGJ/fXNF7jAAka1PHbIyZACgtpuxz/vWgd8o8GfCO+cvyB7e1ucNjM2TzyfzV6Tzj+qZsi42auD416D2uazJ/mun53a5cfSkJ1eYNu/sOT4wx56hKwfPGbwhAtX9kAShNM0ZqXgKaU6bqkaF0Kr53BtCYqw0BI8Gixj387n4c90IIZtMXhpXXwpyEBZ2DdSmCP8q/lB34Zkc28Ix8wA3wfElY9UGg15YPA4QjAaSCyFZXP++yTSOIuatAHXdG+v9mluJ9XpzPZhylF7BWwbmpPcrk08O7tpTHtzzKLr7L79/R/M6Fe5vn+niL+KuT/mN+V4g/Znmq7PPpXoi+HW3y8HVnK67xeExmToi/uMZ1fRtjzDn02Y9+ic98tX6w2Rtri9aMMVLvDCDrKQtrvGnq//P6aszVhMCPjAHliEvzOWD88E5a+8NDOQRWwWKtRj6QxesNJOJ6B02JvlbpC0IMEhyqgkGBYXlNRSxk9A0i+ngeBz2EbHRJWJanXQ7xXiLwZmeyCIyAnN+BjhCBVXYmK8UaReimnnCaIP5w8GXcQ9nMwcSJ7B99vIx7kJHTykKamisuvnU5tbj+4pod9fUWwxc2djB7kfh7dfDa8TPiE+3kOzgxxvwUfN4rXiDzlzOAVDa6BPSX4E1jh71kAHmzHH4Yc8WQrqBcLA6NfVhUgLj6yf20/qfHcgpcuL0mQSIhMm7Qc3Gw6y9L+ONWDhJfHuQA8cmuBkRTNqaM3g8pr2dzi94/Xs9geMpBtdnFZwLHZVG9/4jAmSwCseqvsoHKBFJyG48b84uMruXXjp8L9+j7u5tWP70vEfiTpi912ViIC1MbMMOIOcj+FdOXxtdbqfEFQ95Lf+/OSd7gYRff4s8Y8wvo875U/VS+Jqwd4+4ZrrUA1C5cqGTtokewJLXshdaYK4UCRmULFuRCycw/xj7Q90ep2GLl+lmH0k+R1yFq+OX6+fJQWQEMYDqvjnJmoEH27+dKPMrr48OADMIoA4gAZJ0bxxrH21qJwBB7CD9K95jXpveeLCCPWQOaX6Rcy6sh/Bj1wPgWev5C/FHOjZvvfIi/UTZ/1GNaXj5OFKWF+KOn96SjTZzc87eTGp+/1EzP9vM9bfbk3l6LP2PMr4NYQC0jaBrWDsTgT8YHl0e9BSCKGcecTi8xDF4mCl5rjblSkAGg1JBSMQWLH9/Lw97JEiA+SqCYM1DjjxQVJ8ZaRHlY+/lBanz1KoLDl8r89Y+aeXGvNqx+LpVHoBkfADKBOQoBeNQalZONG95rSvPmNldkuoMpzDTZ11nK9KwAzc9QNhC4lrl2VcL92YO0/sdHcTxOKyEAMXLCYZby0DrCdT1sd+Xgi/BjyPvxX57J9ZOh72QDmfP5k5l9Y4z5ATlqif/nM38Y8UAcam2rweZRvUtAYzFWMIUIjMCIGlqHH8ZcEQgYQ1RQYkhQSN8fpWIaCk2Z2K21NBNCRAPJGUeQV9LxwQIeCzc7eAg3uQI+z2MfcASkL4jMQR5Zw+LOa/JLzyMBGQdl7TkD2FIGUCWgBJb6UPiJF14SjOAg65cF4Fqau7EyKtWzADQ/QsIvruO4TjlPKO1ceripuZ2UcSP8NMLlwY18Li3XpJS7olzXeSxLiL+4rlvP9lPzmy1l/ZpfbuXRLi8PNeqFsm9d38YY82vhcz/WDfUMU9XoDOAvw5tDmdWABZed8fhebjrGmMmGoJHMn1wCF9P87XWJPsQfGcDFhyVYPNcjNO4+ocoVEMdORj5g+oI5BMFi5+VB6u01srtX2dn7xbWKx2NNq0pAB/QBNsuweF43xmWuygDiukoGECH4+vdQnmRMoSrhpkd3lo2cO2sq9dRmzsd3NcOTzZ25zeX6uPieg+ta4u+Yss9jZfUZ9dD4aksz/1pPGfdwlAe9l1hk3IGbMWZyUF/xKeIvhF8pAWUjeZyf81DzDGDelVPDJItutatujJl4MBaZYd6f+v42ZBGvjEEEjZjAkEmg90yqowbKA2MINqPk+Enf3znxR78Qmbw8DPrvbVTFY/F4zgBmE5hRBjA+IHLp6PiQMI/fCwE7Wdj5uKWsb5qsjRWg+SEzedwDWWPOl0Vmd+L2GQKQW23mlGHv0/Nk8+t1HnEdKqN/kOf8Meqh+dUrHXytkS5HbbWiKIArGzzGGPP3yBu6ERPEuqG2j9A0Gh2DALQJzM8j21QEYByvy6q88Boz0RQ9NxXBIKWfmEKQ/aNMbOV39xQ4YgTDY2QWakEl2BrZHKL5JM/7y46AxxKFWcD9igxe/jzIgWcrzwGUE+j3MoDlGAOjDCAloDfPZwAjeLcANOeJ84HzAnHHebJwf1MbOcr+xbH0fu7llYOvzF5qcv5waekSIxM/UF9fZ/tIpZ4nX7xMJzJ92crZv7jeCdr+7nVtjDE/ItY81g0qiCj9lK9J1jWqFhojNc8A5jIpXLmo0Z8aU0BkjLkAiP8iCJSQmJsNkbGo4BC3z+UPbqtUDJMIyg5n14r5C/PBxgkBIgNc2YyKRbt/yLy/A4m/PO+vDHxvl3lgZO9+7TJVNrgQgYjHQSPfDlsMiR3fhpcygJTzrYU431zOph2LmMCEGHcW0ADCT9cyBk5z2izQ6JaP7yqLr2v5XlzLcT+bCTJ9qZH4U3tJCL9qjAumL+0nu+r5a3zxKrWe7EkQ9g9buj5zb255vTHG/Aa00VT0zJBKgogX0DXjrvaptwAk+JFjTun/U3DlVdiYSUS9QhEwUtaZRz6saMzD6kcRNH50Ly1RKobrp0RGedE4YdHmKAYRfazhNRR6X46AiEDN+1OA+Bt38qoPBERgfBAQiGIgg7EMRhPKBpJ1GMMOIYG9Svrid4SdP0J9Zmkuzwecna5XJsdcPlzHupZn0kycE4wLoYSb63j9H96X6+fi/RsqCdWmQc3QNT3M11w/rjeVc3+3I+GH4yeuvmT1R8LPGGPeEK03yJYiAKs5gNxaAP4CvGmUSSlIigVbJRjGmMkEp8D53CtEaSEZAsY9LL9/R0JwVCoWArAOpYYsN1p7YqHGIIL5XzJ+ebGv0jD6hcj+aTF/o1p+Frj4UKAUFLOrEH29w1YcCMBuGlIuMoYPCAnA+RmNfmAeIE6sM0sMhJ9T5hbnVuu/awrCj8wfpi/Lpezz7kYp4b6rWX/0/S3cXs2GL4wOqRMEY4g/beiUss+nexr5oKz+Nzup83xf41zo0xnH9WeMuTroo5J1h0oi9EyIQFX+6PPdJaA/jxbr8qaxEPPH67ExE4nKxSJoVObv4Y20Qtnn+7cVPC7KJXBFmac8768GsP4MTtOg1cvugC8P1PPHwTwwDXwPoZabud9gYdJ6ltc4jZaIv0eGMMwEbPFzy7p32SAAMehZmNXv67UInP/BTEZzrSjiDxdP9fxtrMjghetYPX8Yvzy+pWxgHvQ+q02f2qAgjD6cEIBcawfNnM2X8Mtun52tw+/381oAGmPekqn4sJcLKJ/16BkqhuLrcZeV118AsjseC3EuAR2vWjbGvDnVfDnN+2Pcw6cPJAA1HDpEIRkDMkxKL9UhA6hgcZAGx+3sDvhNmfcXQpDSsSFlmr1cpvnG1QmIQNY21rkOZaBtZSY0TgJH0Df9uW+ByvtC5E1R8rk4JwFIHxcH/V6y8Z+q90eHuXh0WcY1jLDL1/G6Rras/eFRXMtk/m4ri4/4wzVW51ANruMKbbbEdaaMPmZO28cSf5r1V+b8kYHP114EaQrQLACNMW+H4oNy6POejSV9O971peYCMP4M4//oA6wW4zG/YcaYNwNxx2gBsgTr//BeWv/H9+X8uXB7TQElPWYqL6tL0MiOXQhA7OEJFE8+f5GaX2+pZ4hyTVUmsDZpXSqveRP4UDgXmHIQhI4tA4EALFlASnYrQxgF9pT1xe/JGcBrSDknKAfG3IXM/UZcx5v/8mFa/+NjGb9g3iThN1Ou4zqdJmzosNFC799hUxl93D6P//I8Nb7d1qw/rkFjjLkO1FoA5h34CII4BqfjCYaMMW8G8R9BYwgGZQxK35+GRH98L4s/Mga4TFJaSO9fDYQFm030/zCbryr9xCRC2b9XlIg1Uu77Q/i9pfgLtM6F2CMwpf+P0rRho5uD0XFVPUgETsu9cZZer41liXeG9ld9muYawOVYbQjMz+WyT0Y9fHBHbp/0/Gncw8Mbaf5mGRfCNVwX8cfmSlxDyrBzfcn0pcz6o+wzbinp7mHm1MibOsYYc9FoOSRmoGIo9AybUeNOaNVbAJL16+WZGaqZrQIuY0ztUSkhAiLE31IZDr0Soq8q+yRgnF3NGSUyBnXJFiDGqgwBQWLz6wgUn1W28CHOWr28Nl0UCEBKTSMAJRDFgZBeQJlQXOTf81sZZXxy3yZDvjXQOwQhpYDmisMlWcQfWT1dx49vprXfP1TWb+M/vJ+W4lrG0IkeUUqDJfzqgsRfHGyuxLVEbx+CD6fPw//+XTqJW8QgZdfV2BWHF8aYi6SqEFL/H3qGtSbWo9TLrW3jpOYloHnx1hFq2Qu0MRMAgSNBYwSE9AJV5WKIPwnA+JqyT+bLVb1CYw8cWVdKwEjmjUwBmQEJwG+3FSj29k80qoHHL7Ia4ews1rV+FoCMmWC0BNnHYbsIwDGteUrizGHcs6Agf57fGXPdKAN1BvDKI/EXv2eNBAmBt3BrNS2/d0v9fox6WIvbxfsb5TrGHKgeGfzRtUzARVl1s6usveZ3fr2dTv72Mp389XlqxNdcb4x7UL+trukxXWzGmKsNm1Fk/mJNYkMKMXiRccSbUHMBGH8QfrE450CIO7xAG1NnFDiSOYqgUMPEQzgQOK58fFcjHxYf3NCAcY0WUPZvzGMftKxk8cc6Q4YPEfZaAO7k7B/unOcHvl8U8bOUASRQ3WsoKJUAZGAspe9a9+J5l730lQygZjbeWkuLd9aVCSRrK9FurjZxTZLVQ/zN34zfP1n894vjZ1zLlHJT1q3sX7mOtWswTnSdcB2fu6bYzHkR4i+uY2b86YjrmnEuGvQ+yv6V68wYYy4IrYjV2sI6QzUjn+vcjnm9qX8GkKCMYIuveRONMfWG3jGyBqtl3h+BI0HjR/cUQOIeOLOyqP6yUd/fWOPGsr6wO6egsaMyzDbzwb7ZidtdCTOs4bVrV21GXRCsb+oBLJkK/i6cR19nJkpwesng9KksLtmfEPEL9zb0+2QwvEtArz7K/pHBv5Ezf7lv966+ziXciL9i3lQH8VfgWmFu8MjsJYRe428v0vGfn2nYO2WgZAP7ca19z2zJ4YUx5l1BjMFnOZ/3CMGia8aJP8WNMRcK4kBDom+shPjDMOK2xj5w0ENENomgsS6wBqtcbEC/cZ7F1906VN8f5Z/tZ/tpcNSS+HsXNftZAA4iGO3KAIYRE/wbmD9IvwBZwJEIvMzPCzKA6uEMAXhnXQY+87dCAOLY6gzglSf3/S1orh99fxt/epxWP7qbx7ZUxk2UfUr41UT88T+uJzZyGh1l7ptfbaWD//PrdPBfvkonIQTJ7A+OSt8fFUa6ri7zwjLGmPFTawGonTwWaNxypJbLA8aYehFBoPr+ZkL8KWtQ3ALfvy3zl6VHeUD03A0ySAshIGq09IS4oi6fEk85fj7ZzaYvLw6yIQtlYsWISrt2Fw3BZylZIyNBBpLgFXMKbrmPDOFl9ygR1+v3GYE+AT9lu5jAjMZBSADM1CCDay6CSsZJ+K2U7H25hnH7XGUDB7fPuLancYJVz1/J/I379x/XUHb7PM2Zv4NGar/K13Lj66108sVL9fyNZv11eq+vZ4s/Y8y7hnUm1hvpGW04l82nMVLvDCCLM+UZjIHoD9JULPCOM4ypGZX4i8BRYmFtMS3e3UwrBI6f3Jfxi2b9VeViEgz1uZJZiJUtiOCQMrGjf30iswiyB5Rlng1j/WHhfoeLNT9bR/w9EoLx70GQEshyWzmCXu7nRfxO+d1SCjg3q6Cf3+HcehaCcxr4XURgjX6f5g3hVxi/R1xfKfdd+ehOWvvsQVqNg76/xYc3S9knGzjld67X6NXjo7p2VMLNRk4ztZ7upcbnL5XxIwPYfXVYHHyrMu53ez0bYwxoneEPn+1Fz7BJhbZ5FxVFv4V6ZwAJuuJNkute2a3zom1MvRiJv2L6wrgAMgUYvqzQM/T4lrIGPC73yLqIBQWNZT5Y6RU6+euLdPKX58oc9HAIRHixSF/GusNfUf5NmFcg/DCwIKBlDaRv4FL+HRUluCfLU4n7LACX1BfGXEDNBIzHavM7Nb8dfsdxXarfM36fiHtce1c/vpdWPw0B+Mn9bPhydz3NMgYE516u45qQxV+OE9jIYZQKfX6NL1+lZhxcy136apudfD0ThI058DLGXC/U96dNqkGIwDgwtzyNz/QxUvMMYN7Rq1xAcyBWHjPGjJ1RhmiBYe8h/ugVe3hTRhEq/4xDPUMhDNX3R/avDhA0xpoyJGhk4PvOsbIGJ5+/SI0vXqr8EwHG2nPZqIythQBsyhQmZwCZPRiB62UKQFCWh99xHAiE5XmJADJBjITQTMC5EIB1+b2a3wxmP3L7XF6Q+KNUO/ftVoPe72TTFxxgK8fPOv2+Iy6gn48RLRgojeZ3frWlWxxAuYbyPOEi/i77OjLGXFOm8nLDssP6g54JAYgQdAbwF1CwE29QFn+UP3nRNqY2IA4iEJRRyMqixB/28GufPVTwKPFH318IhdwzVPrFxk1ZjFmAKQuj1BNjCNw+28/2U+cVfUJNZQZZey4bdgoZN4EwZXj1+RLQsQSu/Mrid03fpsx9yADeXsvlgPQC4uZqATix0MunUQ9lzh9un1XPH/27uPjmbG8Rf3XK4gdVCXd39zi1nuwU4bejDZ3Oq6PXbp9UEY3rGjLGXG9i2ZGOYSM3DmmbMa9F9c4AGmNqi5JDZeQDw94JHjf/6YN043/6KK394ZFKP8kozCzMSjxkkVCHwDEvvINWVwGi5oN9vRXB457KPim/VOUBAeMY1mdlJtv91D9py4AGIUiGg8ZxidcxQeBflQhKAFZ9nXMhCqb8UTKpIOD5nXK9rv/De2nzXz5M6398nGf9FdMXyn/rc/1+n9PeUBslrae76fjfn6Wjf3+aZ3duhfg7Pt8/a+FnjDEV/tQ2xrwRZPSwideQcI17uKOeIbJ/9BCRUahKBHPWgBfl146FCABVXknZZ7Oj/jqNevhmO7UiYNRg6KO2Hj/rh9gaU6lYFoBdDYOvMoCMpxh39uK8ACTbS69nZezjEtAJIn5ViDl+b/z+5PbJrM4P72rcgzL4H+TSbXo9yfKqzHfc128F17HaQ/Kgd0ankLVvfrebTuj7+2pb38u9l1Eq7vkzxpgfYQFojPntUBJI5u/2Wi4b++ienAKXHt0IcbAWImFJYkHlgUoVlmOM4Pw36vnbPlbZJ2YRiD+yf92tYwlDxN84S84pD1FgGwEsIjXb1o8/i/E9AUgGEAG46hLQSUN9u/E7o+xz8e6GzJpk+PK7OCj7fP+WBL76ds+7vI75+q3gGsDIhWtEvbvP92T00goByC09gIhCNlFG4m+M140xxtSR2gtALfY6+M5BhjHjpDJ9qfqGGA5OtmD147vKAC5EQMm8OAwlslkEmb8aXLexgNArhLkKWbVOBIntEH1V0KiZf/vF9VNCq7xuDGQTmDyQPruAhgBsl0xGiNhx/eMkABfnR06vyvCWDOAow2vqD2Xbs7P6PSrzF9ctfX9s4tC3u/Rgsxj8nBP3tbiG4w99M3EdqET6qJnndn63k5ps5FTX8e5J6jdKJp9em3FezMYYUxFrUURQeS2rwbpUawFYvVEc+Wsv5MaMi5HjZwSFygRFkEipJ4FjlTkYGYPUxSyCNSOOnDUYFLOIk1z6+e22BCCZQIxgVGpJ0FheMy5yCSgCsC0zGgJd+hVlHz1GF0PEfJ7zuKTf88gVciH/rnOWqDzZ1JYqA8jvkR4/ev10YPjCrD9lds/N7KwJuobZxOnk/tjuTh73MHL7jGu6q+u4GDixYTLG69gYY4RiitM0xXJE+XrZmBr36lrvDGC8Qex6E/hoaj67f17QjRkPiD8EwPpyWryzLvFXjXpYenxL5WSzayVwnI2lRZmD8toxonJOAkdEVQiq7tahyj5xCiSDgHU8wlA28WPuswPWuNMQq/T9DZsd2dvriH8j4yB4bCw9TaVvDPFP9ggBgQBEFCpTVIlAU2/4PTLXcXlBpZ5LIfqWHtzQnD+ZNtVpA+ccXMOUfZIV77wqmb8vX6VGCEBl/+K6ZtNE1/Go9LO82Bhjxoj0S8QXquRB18Qx7vWp1gIQO3QNQNaCzswMWzgbMy5w8iQzQKDIcOi1zx6odAzxR+kn8+Gm5+ey8KsDsVYoa6B1BMOITurunSjj1/gyZw0YGk12jeCyNrDGIVr5kNC/m37Apg6E4Gm7CNVLhmwQwp6Mn0RgiD9KfREMGvI/V8xgrAFrjRK1Ie74nZHFr2Y6ytCHjZuawsYHIx10/X7xKh3/5Vkcz9PJFy81voW+P55jjDF1QTEIsiUEoJJZoWdOO3Ebn+1onHFS7wwgihmVPIg3iTfKO3rGXC6Ui0VQSLBI1gfTFwQfc8LWPn0gA5gFzfqj7y+bvuQIc/wqgEVX/XTtngaq4wwo45ene5r5J6fAquyTtaUu6MMibhCu8YGhofAh/uQIiq19OwTrWD444nc6Tf/njEZ7SASuLupQLyCGIWSNTM3h90g2NxvBkLXPpbxs3tTs90fwVHbO6fvrMug9ruHmN1vK/NH7Rz9vb/8kDRps5Iw3oDLGmPMQCSka4nN9GGvZII5ezgJK04yR2n9aUzOrYIf3abzvlTHXC8TfzFTu+8L58e66ZoXh9rn2+wcSgZSOMQOQLJDGPZAlqoH4E9TakzU4akv0NSgXi4PSMc0IC1FVOQWOeyH+Ido1jH8T/zYZ1yAA904kWAet8Qyo51Ms94GyKTAjwYd44NxgOLyMf3CMzB93pq6Mfo8h5uOaVbkn1+5szUp4tXOexR/XsTL4u9m9l5EP7bimcfN9Pe5hTKXRxhjzS2g3Ov6UzSwO9QOOmVoLQBb/kfCrwZtlzLWBIFElf7lXCGOI5Yc308qHd1T+qXl/H2XXz1HfX10cPyHWjlNl//rqGaLc8+RvL7IAfLKrUlACSjkF0l/MWlMz9GFR9S4eIAAbOdhtjjHTcU48kDGaDeGHGYxKCFcXdL5I/9VIR5ifQL+jIgKro2blu/rYV8CUfQBGDr7bR3L7ZBNnUDnkYpCkjWIHCsaYGvJDPcO3Y16vXK9jjPk+xIFVkD+fSz8ZCq1B75/cC/EXApBh7+/dLsPeI/CP59aGWFRz9qxkDbaPc8/Qn5+lxucvlQ3UaAXEX78yixjvQvyT8N9RBCCBL6JVfYD0LOIiNjbi3IjzYyZEP4ZAI0fQOE/IABpzIXBJahOkKoXuSfBpNma5FjS2hc2QOl6/xhhTYywAjTHfQ+KPzB+jHtaX5BSI0yeGL8sf3c19f5VjYDynboPAyQTkvrlWHvj+gr6/XRlFqPQzxBSiisCxtuIvkIhVFjP3MCIAKQVF1HL/2OBXzSy5eRxh80iIuRurEoCUEpJZyk8y5gL43obUbHadXYx1J2618aS1x+ebMcb8FiwAjTHfg6BKpi+IP5m+3FS/3+pnD/Kw9zsb2TCippAtQCh1QvhR+olRhHqFjtq5XAzHz0nIGJzLAKoElAHXVQnoODOABOMRdBOMswmgDOBNMoCL2QTImAuAfQSJvtlZCT7ONQbXr3x4V+sRm1KUHnMe1sZ52BhjJgQLQGNM3kA/F9jPri/nGWGYvoToo/ePzB+loIx7UKanLpDEU6kYYxMYEk3Z51Ee9h4CkGHvDH/XrD/KPmnCnoSKMQQg2czuQPPNKHmTCUw1s5Dy1XH1PXGeLHCelKHw6gGsekEpES3PM+aNQQFSjZAzf5xfixhRxTq0+lEeXF9VIlQOxHWqRDDGmDpjAWjMdUdxFiVWcUQQRU8fmT8cP5X5w+1Ts/4i2IqAf2apXnb/cgpUpizEXwilHk6Bz/bzsPevt+QWSN/QoDh+1rns8zz8E1UGSv8TswARgcct3WooPGWsOB9esghUZib+j7l/DIMnC6ODHkAEoMryauYoaSaPal1iQ0FVCfPabFh8eCMtf3hHbsTL791OS/c3VYJcu15kY4ypMV4tjbn2RKRFRoe+P0Y+hMgj00ep1drvH8rxk9KrUc9fPK9WwT3jHkIk0RuHU2b7xYGyfs2vt3WQCSR7pqzZuDJmbwqZTUZBhNhD9A0QgUchAg/jOGmPTDAkai+Ncr7MMUeujIEgC4MAjCCd/tGRI6xFoHkbOH2KCCTjPLexUgyp6Em+m1bjUGWCNqeoTJjNrzHGGPOLWAAac50hRidWx9QjgqeZpQXtpmvY+2cP0sY/vpfWPnuYFu+sp9l4rHY77GTJhme59DPEUftVFn+Nr7fyoOhvtjQ3jMdkFX+pQuktIbPJMQwBGP99MrYJ0Yf4I6OJqB3Q0xgC8VJFrXRdyRavxPkSgXclALVBQBZwNs4Tl+OZC4SNBfpMc1/yrSwAP72fVkqFghyJMYapNh68+WCMMT+LBaAx1xXtrL/ur2HWnwIr+mtKj83So1tp4c6aHp9Sf1eNlgzEkbJ/fWXHGBJdiT9m/ZEJVO9fiKaq92+isn+g/0ZE4Gsr/P5JCMCDMhOQAdiDUtZ6mRBfzxRXxqU5ZQIRgN8Tgu7JMheIsoCcb3GuMXZk8V6uUmA0DevVqEy9VCp4E8IYY34eC0BjrikKqEoZ30KIP4xebvzLh+nGf/pYpZ+UfTLce7oEUtpQr0s8VYSRZv1VA6KfH2jOX+OLlznrd9TM2bErgv57Q8gOGvHfe9hMvfjvG6qvcRBvxxiFLZsIGMKsRWB+Z11BOOYwKgd1T5a5YPK6lWdQLj26mVY+ua8y9bXPHkgMKhsYApGewVptWBljTI3w6mjMdUNCrog/Mn83V9PSwwikPr6b1v/0KK3/8VFaef+2Mn/spKcI4muTyUHokBGrxNBJW31/nVeH2fXz221l/7o7xyqXxBzmqkAWEEfQYbOT+ge5D1BGMPw3XnYG8BxVZoZzifK8+dvrMoSZWcyOoMZcKFQu0K+8sqBzbRkR+OGdtPrxPRlW8fX3DKvUk+rz0BhjzmMBaMw1Qr1bHDMRtC/OZfFHAPVRBFDF8ZMACqMFdtjVz0XqrzrGCVk/jhBCuF8Omt0Qeiep/TyE33c7WfyFCOxsHebsH+KIss8rwo8ygHGoBBRn0zFmAEcCkNK8OJ8WbjEUfjHPinQG0Fwwef2aHhlWzdMTGGsYzqDqCSQLqNJ1NiKWNdOU52sdM8YYI/zpbMx1gfgHHTcdwdBMLv1cfHAzrX5yP6394ZHMXpbfv5MW7m3kPprl7Og4duFXgcbB8GUwkPslIg/B1/jyVWr87YVGPnRfhfireuOqkQ9XBfodu8Xt9KBZmwygSkAlABfyTMA4yAZq88CZF3PRaA0jC/i69Fhja96/rTWM8nV6AhkXMX+7nItzrGP5tcYYYywAjblGRPRDQD4TgRPln+tLyvat/8PjtPHPH0gELjzYlInHtEwU6jXuoXLElAhqdWXwQr/f0b8+jeOJhGB37yTE4TnxN8bM2EVTuZ1ieNM/zC6gOIPWIgOoXtIQgDdW4oigO76ekQD0R4x5t6gfcHNFZeyIv41/wLn4QalkCBEYj03Pz8WJagVojDEV/nQ25pqgsqmlHKTnss+7Kpda+eieds8XQ/ypb2ZxTsYvyt7UKF6inJOxB2S/cPhsMuj9m20drad7qbt9rLJQ5ubhDnqVxB/w30QPIAKQ94ASUP57EcTMAhzXf+/rEtAFmQlxzK4uqQTUGUDzrpEbbaxZsxtLaeHORl7bQvzhEMq6tnB/U5tdWtfmSj+gT0tjzDXHAtCYawJBOuKP4OjGf/wo3fzPn6S1T+9n4bexnAP2UdavfhESma7+UVsOnyd/eZ6O//xMYx8wfMEMhll56g9EB10t7SfUA1hGXvQpAY2Dr087vSx6h/EfPQ4RiABUKR4BeHYBrTYS7AJqLgP1BVLaPjutkk8cjNng0oiIDzC0ys60MoVBBNaossEYY8aBP52NucoQGLFDToYGl8YIhJY/vJvW/8P7aeMf30/LH9yJ+9aUvZmej8BopuyO1yU+CkGDqEP8Ue7Y2ztJrWchABn3EAdikKHolISe9YbqEbyyaObhQH1//eNWiOGWhC9ZwFz2Op5B9wTelOGNSkBvrhYHxoUItmezCCTgdsxt3iE6xUqVg9a5925plilrHFlB7sPYSjMC1RPoc9IYc32xADTmqoL4q8rzVpc06B1jBEqj6JXBMW8pvp/bWMlB0UzZGeeoA4g/sl6IvxA5mvW3dZTaT3dT46stlYB2to9CDLXTaYfsX+mFG0cW7BJQD+Qg3gv6AOP9YMwF/+0SgQ1EYLwHAzKgl/zfz3kWATXn0OzGcprbLMPg6QMkC0jGJQLzfG6V1xhz4cR5GOcY2WjOQcyslt67GQLwtqoelpkPWEaU0BNYnZPOBhpjriMWgMZcURRvsyO+vKCyPO2Ih/hj5ANBEWVSmCfMxuOjWVk1Coak5Yanynh19/OsP0Y+0O+HCOy8PFAZ5MgI5YqZvvwI/vPivxEReEYmMP67yQJmR9BSDhrvg8pfL/FtqM4zbTQgAlcX5cyoI75GGGYXRs6t+pxf5opRTi/KQDnnKGtfuLuhPsDVzx7qkAikRzXWvNwP6BDIGHM98epnzFWF7F8EOZTjIfjI+o3c8SiHigB9ZrG4fSL+6kbJ/pHhQuwx5y8bvoT42zqS8Pme+LsuFCGII6iyottHqbN7LFMYegSzCL5cBahMinqwZjSfDeFHAK5DGZdcClqj/QVzFanORTa+Ym3DkRYBuPlP76fNf/lQc05xBqUfUFnAOF/ljOwT0xhzzai1AGQhP4t/oRdpY349KvvElKMM5pYhwod30+rHGCKE+CPzRwCE6QuZGfX91efawu0ScdNvtFNv/yS1Xx5mt8+vt2T6oswfIxDaIf56g5QY9n6VM38/hP9UCcCBZiHSF9nbPVE2kPdDpaL5mZcH50+cd5x7KgddXsiZwDjP1F86N+s13FwOcY4RO7D5RRkyGb8lsoAYwsj1+K4ygYv3Noo76HyaHlVAlJ9hjDEXCcsLm6CsNbPTWduM+fOw3gKQsiKCVMwpeNPiewcQxvwyBOBkXRZV/nRHgQ9HLvvclFFHZdGv3fKaXVM4WtLbRpaPPj9m/Z387UXcvlL2D7GD6QmulxI710n8ifzfPAyxhytqb6+RjXDohRxDCej34HxS9mVOwk8loJQYxzlZyyyzuZqwpmFOFHEDAo/1EBMYxN/aHx6m9X98P61+9iAtlhERjJFQjOH4whhz0bAcoV8YrxV6hvWGTXppmjFSbwFYdpP1hsXtGWuz12djfkwJvLlOZpn1dxPDl5tp5WOs0O+r7HPpcXbCw6ADd0YFSXW5nhBy9LfR89ehtLGROsz6+3o7nYQAbHz5UiWgnZeHudSxO9BrxiZ0xoj0Xfy3n/ZyeSzvFQdfKyNKOewYRfFrAbiowJssDA6ztTrfzJVHpxtr4vxsmlkOEXhjJS3HGrj2u/tp/Y+P0pp6AmNNvLWWy5TZFCMg8zlqjLkgqk129AuZvzSXRWAdNkVrLQBZwVXGEQs4ZWpVxsIYcw4WmLg2dK1gfrC5rPImmR9EsMOx/N7tuG9TQZAyMmPeefoeiD+O4VACBjMThrqT7Wt8+UoZQEpA28/2U3eXmX8dGaFcW6QA409/kPoMhT9spX4cvC8qAdUQfJ4zHhGYBWBlBkMJ6GKcm7NxjnLOef02l0RZFyUC4/ybi/NxIdbA5Q/vpLXfP9DBiAhVRdxcVcZaQRkxRnUYY8xboE9h1hL1yMdnY+gZNqWI18b9cVhrARghYVbIHLxRY36zjKkjWfzNvu53eYj1eS79XPvdA7l+YomOIQczslh4dF3VBHQK4wvI6imjtXeS2i8OUovyz69eSfwp83eA02Xu+7tWpi8/Rbxpp4yEaHZV+qlxEM0QgPEeahj+SATmp18mjBNhk4E+0/nN5df9phGIewPPXCpxvo1EYJyDnItUQTAXUH3Rnz7QOkl1BGsnGxeJ87RG66MxZrJ5LQI5+IxkXZoex8fz96h3BtAY83fRIO7FuQi2V3PWL4Ka9f8/e/+5HleWbVmCmzBt0JqadO2hrsrM6uzKr+ul8gXqvepXi/qqb6e8ocM9PFxRKxBag73G3PsYQQ8XpJMAzgHmcD80A2AQZrbFmnupT6/pIs9lcGNBnr8q7692UNCEap94s55uZPH39WOFf25+8TBtf/s0FzjZ3VczdBPbBh7TEM3kQtITkNeOW14jVUWVCDwbBTjWHsvhnzSFD6MaEah+gGFY+xDPnBmIQXICB90Yk+MSgYSCTv3m5qgnKl5r8gZ1Wo/B5gMLY8w5xQLQmIYi4Reijn5r5LFgwEy8x6n2ZVW7GxV9Ibxp1PeqRgYNOkbi7yA3en+2mbbuPJXnj2qf3Kf3nzx/W3ulyXn53otMpeuolrp3kI6299QOQxeVUUMUjkTgGbxeCgEl52pqKPGnIhskvDP2bFCfDzQGc87u6FLuaf5yHUHQyRNITiDRErEuEhqv6si3l9Lgxrz6BubeqN2X4aDGGHMOsQA0pqFgoBDWSW4fYm/iw+U08clV5fxhzHRLwRf6sqnCXc0McOX9EcYYgmVvbSvE3kra+OvDtP7ZfXkAdx+t5ubmu/thYIagQc1YAQrC41U0J14/icB4DRGAI0/gTrxm5EnKC3i6SACqCEzvOzmAYYDbnm4+moZF/O3n8cdtPnCoswI8JgJLyHwnRCB5gYPr82qRk1tEzMlDmL3WHrDGmPNJrQXgKASDRduWgzF5LmBIE2Y37GbPXxgsGC4TH17J3r+4X7V7kBFD6eE6iT9sxJH420/75P09WUvbd5+Nir5sxX3CQQ+3afdwdOaVLetIZYTLgxqvI8JPuYDrOxLV8gKexWtWPNNVL0Buq0bweT0vjztXlHlJ6GBco56H52jfOj7eOJRhbpJ3qkMHPM9NCNHmLSnrJwdjHUVPTKTBldkcPq/IicXUXZzM4aCMW97Pc/Q+GmPOghexjBzbF+I6a11TawEo06XaUGvwYhlzpjAHSB7utGS8tKeG6mPFyTWlzcn3m3g/e/96C1MyYPD81QkZkTIkaWOQK37Sw45Qz61vqPp5P2387WFu9r62JRFjvodKRNMLES/gbojArRCAq1u6DrcQgLSEOH2DHANbYXaDrsQftzKk8UKHCMybYHnweYB5iaiQZymeIxdiFxHYdDTOyrxF/MWclfDj0Ob5puauWpCsbevzRwrT5hvK99aR6v1iHe2XwjBLUxKAkx/FOhoisH95VqGgFM3S+8l7afvDGPNzKftePiDM+8NZL5G1FoA6TcV7UTbUvAiXLxpzwUD85VNrKtlNpyGV7N7L1T7HP7isk+ve5enUnc0lzfPpdY0mDIbhKGxxX+Jv52EIv69C+H3xUMKPvL/dx2vyZOVm7y768oPIyOb1pIIqr+du7gkYRvn+Rrx+hM6eQQioDOxYt8n7G4nA7wrBc2RM81yqhuMKeSXsOu7XLuf2ZxHji3nLgQ39OWNsbd97lja+fKRQ7fXP7uVCTXfw2K9rzvJYfU9tFWDAGI33RkVh4r0i5JPDtOHtpTT+/rLEIDnV3QV6BBLCXK+DNGNMU8DzFzesOa3c01yahn0QIXiG1FwAxsYaRgQVDumgj2K2F9BcVMZi8SCfikIFiD5VsPvFdeX90fCdsM/s9ctzpW7IMVC8CAfbe+rpR8jn6u+/Sau//Uahn3tPwogk7DNE4llVsWwaKqQjb+p22nu8HgJ6VR4Z5QGegYBmic6Hd7HZFU8g4zKHg2YRqBPQcwIHM7kYU24x0FfubRU+2OD9isMFib+YszEfCS1G6K398W569q+fpyf/nz+nJ//nX9LKf/1bWvvzXYVwqxdlPJbvyZ7A+s9fhYOWojBqD/HecppUe4jLaTyEIO8pIjF7rm1/GGNen2rdUIRIt5MukR7BYWhVGO0MqfcuzIuDSi5q+UW8iDYHzYVitHCEIR0GdGWkUOhl8pNrudpnGCmcXo8KF2B818lVjiGJ549cNcIUVzYU4kmlz1Gj9789DANyRfmAKiqBcGGye8L/JC9e5Lysg3htKw8gYlDFc84iJ4sNj8M6hUQiALPXmmqgqkZbg43vZ1PNx9iTEAXqdTg3qT6byiO7Pq+5SHGmsfg6PeUaB7qNQwU8y1WOrnpzPkubXz5M6yH2Vn/3bVr97ddp7fffprU/3UmbMY+3vn2qwk0KQeYQ56xyUN+UWC8rAZ/7qMb7eHtRnkDyqSkQw+fxBOacaho4N3T8GmPOhBxxQERj7H8cgrKOWAD+MChnvWixierWa665SJTxj/jDe4L462Oc0OT946sq+ILBqXw/hZ1Rta6leVMX/YcBmMXfoVo5IE4o8LLxl3syHBGA5P4RCrr/fHPktZL3rwnGYx2QsX4oo7vKATzY3JOQPosqoJDXbjY7KoJ2Q/z1JYo4xFBV2iYKI57TSNT2VGRpcG1ehzDyGMUlwXBtTmHYnPI27nlq2sV8xeuH+Fvbjrm5qhDt9b/cjeteWv885+lufvU4bX79WPN3My4q93Kos3N3RfmBFCYiR7XuaKzyvrLODnvqXylP4PtLaZzcag7ZaKmjQ7YYw4OGjl9jzBlRhYHG/6wd6BlpmrM11Gq/ismIIFyIF+qMXyxjTg2MEhYIwpNC2GFsYoCoXDkVP6n2+f5y6uFtkFESxibe8vie2jj/EHAYkzQsJ0dtPRuTW18+Sqt/+FbeAzx/eAPpAYgHKxcuyd9nXg+9zLzG29lgV/4kBTnwwJyRAAQdXsSYrAptIAA5yCCkX+O0KfCnMh+LSFCPw3gutA9A/E19ei1N/fJ63F7Vx1kAUkCkYQJQQyX+Qfwpp3Qn7T5ZT9t3nqT1P99Jq3j7QgDKW0+Pzpi3uzGfKeBE+OcmHv0QiohCQrn5frz+1TpQW1gyNVbxBLbl6esvTyuyAvFHtIVEYHzcXZhKnYlBzgmUTVJ+hjHG/BTVWsNBPbrmjKn37lQtsGy+uhq0mRrzc6nGe3UqHUYzeSgq+nI7xN8HGCSXZZDQBoICG7U1NPFOldBPFZAIQxEPwvP/8VV6/m9fhxh8nHYfr6fDTYxFeomFYLT4ezPi9cIDWBntagOBACSUlhDQs3o9Wb4Zw4TXTQ1HAjB7qpuxlud9h7kYm7bCPl+GCg5vzCsHd+afbqfpf7yVpn51Q0JhcG1WXqRGeYo0RrK3vvIm48VD3OHte/7br9Pz//mVwj/x8inUc2VT3ua9uK2q+FIUhkq+2/GxDiIIQ1Y4d81FIPA+h3GGcO8t5PeXQ7bJT66myRD5eAMJ85UnW15sBni5jDHmJ6j2k6xr9Al9/qyouQCM//FqVEUtavCCGXPS6ISoV8I+ZydSP4wOhB8GCGFJGCb9palsiFBUgxxZ5kfNGBmTm7syGBUq9uWjtPlFXHGLF2H3afYUvMz7s/h7UxRiy+u8kwUgOVsIblpD4Bk8q2Ico0OMMpbxAqo6bRjPjSgCw16D8DsWGpjn4mKIgiu5CNOnORSbz/VD+FE1sgrHxvupzb7uxNhQ2CeHCBQTkqceQfc4bXzxIG18dj9tfP5Ac3bn/vOSY7qr8aYxx+FOEYtbXz3K1XwJ636wol6eKgxDO5czGodvBGMWrzXvN5VBye2M9Zb3mDDfKt+aBvIU5CIcWGuv7RJjzI/AOqEDwdhTlAsY64w0zRlS610YFynGwiWKBmDkxovnddacd0ZV6eRlWFAIEt6FqV9dlyFCtc+xQffMF4+fQgIwDEoKkxAatvbHO/IgKERsZVMhizlMEZFSvsm8OTLeS9heGNsY8DSFVzN4hDUiEJF42i8yxjQCEAEV41nevxi3fFzHA4vvooMY8v2quXh9Xp6g2X95P83/3z9Oc//Lh/IOvcz5q7En/keQLlOYdvbUqzpvCD4q867+z6/S2p+o8LmS9p/TX5Iw7RBzMZ4q9L1be2kfD/+dZ2nzbyEC6ef51xCNMdd3Hq3q64zBJsF7iRAkx1ph9/RZ/TBEYJXnGWOCg4FR3rUxxnwHrXqxPrzg0DN0DCkQ2G91KIZW790KxcwLhsGA+IuPm7WFGPN6jLwlMpb7Cu0cXKUkOfl+FJi4HPeX9TmKwfC4ulIJv1zxc1PeBLwHeBNkED54nr0CEieVMemZ/bNBACpvK1cClXcmbhUGGqJQIlveVR6bv+W00CFet6MxjQDEYG5RCruOHkCM+GoeErYaf7O8QEvT8rqr9cqnV3UQM/3rm1n8lQqRtH1oaUNviACMcTAq9oLXb5MKspsK3VQuXwi4quALIZ9UAcW7jEhUi5bjhwlH+fABzzMe/Z17K7lADIVi8PTffaZDIB1KFK+0VGfNUd/Vfjt1pgepvzyjwzhVB721+NITSBQGIc2c6GPMWQcaY46RQz7LvtJpa29RHnzXVUB/lMooppQ2t7Fd5RfTmHNENc7JK3lZijw3eZ/8+EoJPVoMg4Mm7+P1zvkLMBAPNndUCGI7jEEMSCoEbn/zVOJP3j81ec9FSnKIYvlm88bo5cOQJ4SPsLztEIEY28dEoATgKQvtl+O6LYHUmQpjuYSAKn+qRuhvLX8vfx/hqr2lqTS8TjXIkgf2i+sxHyn0kvNvVRVyblzCVht6Y0I+GTNF/O0zV0P80ebhztPc3P1Pd3Vbibfdx2vyKmscIf4YR8cEnH4WYw8PdIjE3Wf8LFpGFBEYYpB1YLcKB9V4PL1x+HPReCActLT7IC+Q/E7Cfbk4FOjOTxx7/4lQsn1ijPkOLAtxaY2QU6s0hD/jA8NaC0AEX/XC5Yt/jDlnyNNNdUFKy0+o0IDyjEL4EXKmsM+rs7nPXzymrjl/IqYsHgU8f9v3V2QAqtVDiMDtKieoyvmrDMn624I1J7+OMsIpuHNMBEoIVhVBX5xyqC3jOjY8jGP6AFZFYPi4VjmA7Cv8rYi/MPjbw1wEBO+ewq9/cS1N/8OtNP3rG5qLGP4UZWorBzf3NVS+H3OyEVvUy/HC2KCQy/b95wrTXv23r1TshRBQBKGqeZJTKvEX40ee5O8MIn5czGX1DcQLTesIPIkh/Db+GvNfnv8n8gzKE0g46OFh+eYagwCMcYoIlEc4RKA8gSH+8QazRveWplWFmTHD6f5Zn+gbY+qJxF7sMVkEtrWunPV+UWsBCNXJrDHnEsa3vA54STAwSvnxEH8qMkHeXxihvcWaV/uUkAujMi68UJSP3woDkPyh9T/fS1vfPhmVhpcHQN4o807QSx+vfbymEoF7IQDDyKayqsL2tnZzhVW95qf4uqOHYrzKs00V0Bm8ZVW/ypqM47K/8PfoZJZ5iKF/dTaLv1/fTDP/8n6a/ffvp5l/vKXPMUfxZOp7EI4N2580VQnb3AsBGGMD7x8e+rU/fJue/n8/T8/+f3+VAKRlS1XA5bWq85b5zwEEXkMKwXD4s/EXisjcDxH4WMWgDja29TP1hzQIwu51MHAzHwzgGaZpPCH5jOvs2Y5xbXPFGHMM7RFlP9QVIhAxyP5zltTUmsy8VMyteNGKu7Rhm60xPwTjGaOiNU61TyoMzijnb/Kjy2kijAsavuMNlIFRY89fdfovbwLVAMPI2/72adr8ioqfOe8PQbgfxiTG4fd6EczbwcuJAY4IDOOaEFt5AEMA4nF52V8xP/w0qIRVzmvtKaeuNkVgjv1trYnseX85/66myU+u5bBPCn/g7WEujox9qj9WHr8G7keMk4Mcpq3KnTE/K0/95hcPNXeZrzo8wFP/JvO1/Gzl/8ZaQJ9ACUGax//1ftqi8u+TtSwCq3zCUx6XPxeFg1IQKMYA4b80h2dsTLyfi8KoJU+M72yv2FYxxuSlTcsbew4HhkQU4AG0APxxeLE4VauSrMcQg15TzTmBMY0xeTzcbPo3VPu8oWIDlJTHI1F38CYgOGjmPjr1x5ikHDzGJDlEeP6qptDmRJEgJxQvBDlGPuGg8uKcRU/AasMr63gL8Rcfn+lCXjZixF8n5l9/cToN31uMuXczLfynT9Pi//aLNPfvP0jTv7yeaL/Si6/nCp9h2J+DDUjzNcYH7RwIz1R13s/uK29P85QiLaOx8vPHCyGjFCVi/rMeqALwsTVhf30rh5aGwPxJ72IN4K3PhwY5HJQ87alf30gz//xemoqxgiBUNVjZKw0+IDDGvDN0EBrXGOHk7CGsDYSBah8sDzojai0AMR4wgGkDgeHAxzYfTaNhMcAoDkOC4gLy/B0/Tf7oinr94Y0gZ4pY8boioYG3iRLwq1ujap/rlID/Mht6hJHllg97Mgh12m9OFF5jPDd4YeQFxAN4kHMuT/XVl8Wcx7qS3lnLYx2X94zDvMpAPo1NUPMu/o743RjoHLww93pVn7cPLofgu5Fm/+W9bND/4prK/avQy0yu9Kj8rtP4W08axsF+ztWjyAueevXkDFGmdg0qzoQAjMe+xYBRmOnOvnoE6vdQFCYuDolUFKY6GNprSlRAHq+MISIyOLgjUgNPsdZt2kPEuo0IlJeYkFBCvRjjxpiLDXYfjiz2v7DrchTJ2UqwRghAFQ1ALaOgvZiapiIjlEUgjOEwhKmMSDEJikpgPJBTMqouWPdqn2GrYbS9EuoVgk+Noz/PRV9GFT9DhKjoi0M/TwUZ3ngAw5hXGN92zgE87RBQ0OknY56Tz9jw8uZXbouXRGv6SS3r+tn5d/B7mVPkIlK8Y3CNeRcGPMWWCPf8lNDPMOY/vJwGzMPlGTV/V74ff2/8rfp5DUf5oiVkGy/g7qM1tW/YX9vKYgyByGPecq7mA6IDzX9+D+vB9rdPlBtcVRilWJQOh+JxOhyq8/qgtz/GEUYchwjkiurwbnG0fjOe6Bc5ChXG480afg7GjTHmZ8L856L6Nfsfh0OEgbKnnCG1FoAK+ezmE1sMBj72QmqaitaAGMPKOyqGKLkjGA8qKlCqyo2qC1ZGZ01Rtc/VbXn5FPoZ4o/eYYR7yaPwZF2FSDACLf5OkUNCQHMhGFUBxQOoENAzMrBj4GcRGOs56zinnxzsMb5HHpKTG+eaQ8y72HTxqlPERVV2Q+xR2ZPQz2mKLYUQxBuIV5ADGPX2q3IWz9PewzCQOMtVQDnE0RVj5qiap+9imMTPYd5LBMbv4aCIhvLKN6TNxN8eSXzm1hAlH7Dua0QMAU7tObwggoPCXTSKV5/IWMMnfxnjKMYV4aG5RyA5gcXbbYy5kOiQM9YAwsdpi6RomM7Zrwu1FoC8YBJ/cekEFgPC66hpKjF4KRfPmO7I+zeZDdGPr6Qp+ovdWpTRoHLiNR/oYdrJaNt9mqv90TB67U93VPVzEwF4/7nCQlXtz5wqlQdQRj0ewLh9EWJdeV1nCJsgh3iE82MYa20feQHLg94l8UPzxhviL4xwSvV3MdZjnpGzNfvv3k9z//GjNPe/fKg2D4Rg09etNYi/q4g+fb95J1AAijBxtZv4/bdaK7bvPZMwlJc6BGDuVVl/5Alk3Mb4pcBR/8psmoh1nDFFCDGHekR3UPho1B7CY8mYC4f2ENYLDiFDx2jviz1mlFZwhtRbAPKi8YKhljkp9iJqmgZDthgKeBMQeHgYhreL14+QIcLNSrVPFoa6Gp7yGoSQwKtE6BbGnDx/nOhT7fPLx6Vx9Lryi8j/kefPnCr5faIXYPEAbp6xB7CirOd44hBjLfVOywd773Rd5/eUgxbC9HID7+xpn8RL88nVNPVprvLJHKTgUv/qXA7bG/SyKGUOar8pP9O8NYQh79Mj8FEOFycMlLWjChfff76VPYHVOK27FmScxcVpfmc69wikaBC9IsepHHuzVHFWYZhujCfbMMZcNDgslx2IAORgEQ8gkSWxD551P9xaC0A2YDZj9cvwZmyahvb6l8aows+uzqrMPCfFs//yQRigyznsc6LKMype7hqO9Vw6Plf1o3AE4Z70+KvCuXburxzrG9aMyn7nkmMeQHIAcxuILADPVP+xnnfa+fRzoq/2J5fYBCUAy4PeAWy0OmyhwBKemTDImW/z//GjNPvvP0gzv7mZwz1DFMo4Px5uzeSzgX4iKK+QkNCdfeUbUghm/U930/PffR1rSW4RwXitWkNo/aj7EsJQKXZKPuDLvVxZ1yd/wSHDFR3wdaaGYfxxsBCXx5gxF4xYyNjmCPtEAPZLGgR73xlSawHIIonnj5AhCcH4uO77gTGCsTvKFQnxN5Nzj4Y3aPJ+WUYoYWiD+Dh7/rrZ61A3wwCjDUERAkJ5PCsbEnqEca1/FuKPBs+loAMNpVXQgSqCFn9nRvYA5rwrhYEeLwJzloShLA9gjHX1BER4vW1+XTHAdbqKuMTrR4XPmFODyzNp/NZCmvz4qpq4z/zTe8r5m4iPmYc6eCHPjwiT6m+wXX6CxPhjLWFsUhjmyVpeRzhEokcg7SFiDVFlUEUPNGMdqQ75qtxu+gGOh+ib+Gg5R3nEGCTcn3xBxqeMQI8zYy4UigSLPSoXtuyqGIwcW2dIrQVgfsFa2WgIIeg+gKYRYBAwdjEKCHejWhxVB68vqMVDVXWQBsJ8vhNflyHMYiAjtCaDHPHHhfgLIUGujsK3CPv87L48gBJ/FHx5tKaCMBQfOfNQwwvOSACGEc37drRDG4jsVTnL90XhckWkUVmTUvpvlWunqRLzDPEX84yf2ZkeV+4V3j2FWcdcI9xz6pc35JFRyOfNXOiFQxkdvMQ8rd3By3lEwy97ARmbe8+31HtQRWFCCG5VB0mlCT1j+KzzVl8LxmCs3Tm/p6P1nEgP8rtZ7wkxpigMocjkfrdirOrAwRhzMWB7kUOAMNCORKDWAQvAH4FFFQOhezwM1Bu1qTfVibCMAYq9LEwpN4RiL3gjKBeOQUCj985kiL/KIGBs12h4oxVGxtrKRtq+v6J8nePVPrfCgMun9kX8kfNn8Xe2yGN7IC+KvIB4Uyiw8eKMjelYv/F+SKyF8OJCEP7cXkgSbTK82yrEIa/f9TkVc6GP3/Svbsjjh/CTIR5f6y1NlQqfPc3Pl6Gf5Yeak4U15ejloRLrCvl/W988TRt/e5QjCr56pDUl9yRsSA6xRCAGHqGgMRZnJ5QTOLg+LyFISKiqPKswTI3b+xhj3jmyCdn/OGzEoRUi8GUF7LOj1qsQC2o2FsiPeouTYmNOE4zSbjFKwxCgLxThnjP/dFtGKcUoaPWA4crBRh7TNRzXnNbvHymvb+f+c+X5Ifyo3qdqn188TLuPVxXORV8xUw8qA1utIEL8qbBGGNI5p+rsxDnjfKxVQuUQf68IsDcb/5ozcbEn6KCltFSZ/OSaqjDO/YcPVN1z9l/elxgkF7A9VZXlt8fvTGFd4YoxiZdPhWEerOhA6fn//FoVQvEEqpAUoctNQUMSI48xmQt+0SeQwwdajUzF2o8gZKwyB4wxF4MXsTjooBNNE/tPijWCfeiszb56C8DY3NUvgysMhewBLF80pk4UYxSDVuXmKUBBk2Cd/l5WKJo8f/QZW5gMA5jiFywKshpqNa4VQqgT+j0Va1DRl6raJ1X7vnqcdu49U5+/UQ8vwgtNPYi3gn5uvIcqBkN/tzC0EYUSggoFLY89TRjmMeaZIxjAiu7gAIST0dcY/zxOBytDQj0HyqvCk05bh4mYW2qnEmKPK1f4XI6vLWgeEpb3qsevRhPuQhIC8CjG4kHOLd5b2VRRGEUXfH5fYeZUGSbs/IAwZnmwG7DGMLTwBMY4q3q9qhAR45PqoIzHUvF51Cjedo0x55rqwFL7D2tDL+w/PICIwjOk1gJQnpR+PimWAAxjwRu3qR0xJmWcMrEHufog3ghE38w/3EpTv74hI1XhP5Ox6ZeiE3lR4Pvzj6kLiIRReBaev68fq7efQj6/fpJ2H66mg41cWKQOniXzKiPvShjNCL/KE5iFYLxnB2dUoZXxjnFcDkqqdguvu6ZzYiqv+sKkirgg8mb/+Xaa+w8f6sLzN/XLa/Kwy8ieDSM7Hi8jm99VCb/X/H3mBGH4admIsYoIrHKMH6ym7dIigrYyKgzzeC1EYoNyizXEYk+IMcd+0J1GBM6oGiiHgOR+kxJAiwhEILaNPdLGnFO058T/HPgrOqCjKqC5NczZzvtaC0AZyd0wFIoAzMZC+aIxdYCNHoM2jMzRie/StASfPBK/ui5DdXB19tWiE2c88f8ODDFCBxEOO3tq4o7hRWl2cnI2wiDbCiFIBVCE4eHunk7wZZA1wSi7aPBeIgAPQgAWEXi0E7f7hIOejTclZkqMewQg4q/9HW/cd+ZDmVfMFUKlVUxpnOqeeP1mFVZHcZeZf7ydZv/lvRB/t5XvN/7BZeUB0tA9e1hyfu1L8Vd+vqkHLB8cOMX4JI9479m6co05dNr48qFuOYQ6WN/O45jDi7PyYL8JDLUw+Kgwy6Ffd37yWGGYZY1fjVPakJDiIk+gD7iNOX/EYqX1ADsx9ryiaXJbmLOVYLUWgHrRMBJYHOP2BX+tNvL8ZWPOlFfEX8n5oNonrR5ig5+g6MsnFKBYzt4/DFJyWUdGb02oxB8n8WGI7W/uqAgDeTg6iadCX4jA3OR9Le2HMYb3z9QU3k+9p4TYVaGgeP9KKCj5mmch2hn2YeTi+dPmVw71Rp7wijKv+Dqnpbm651CeP4xohXxS3ZMiL7R3CBGIl13tHW5Scn/6WHGlGs0z871orMYYxctH3t8eB0/fPFHOMRdVhveebagHqcZvFXVQc+QFZAwTFRLjl3FJCgDij0JFigpZntLXdDDIfKjTvmCMeTvKniebj/OdmONqA1GltZ3xdK+5AMwLKAa2wusomqEXkle1PMaYM4JJzdisir3IM/Hh5TT16dWc83d7SQZr9ka8g55nJwS2FKKAMEF5/h6tKQyLfD/1+vvigfJzZIRRnt05f/WHN7V4dPH4SQRK/NEOAgO6PO40OSbsVAq7mg+s58dQniCeE4QfHnUKabyXq+jmlg7XdeFZV17tzXmFfKrMfhjTCvtE/NWgypp5DVh/YqwSsqwDKBWFea6IAx1AffV4dPikwjCxTjWnPUSMdw488GBPDtR7UqGgIQARgeM3F9PgykzOCYxxqzFrjGk+7D1csb+xz+nwH9EXV+XUOuv9qdarDQa2DISqYg7GQ7udXlSK2nu7OUMYm21yPCT+5tLEh1fS7D+/l2aoPBiG6uDafPb6tWLsMma1IJRvrhNhTCEOCLPapc9fGF4Iv7U/fpvWfv9N2vj8gU7lG1WW3RTwBMalcFDEIBcW9+krQHlEYi3XgR6ePUTa93jEX51Xs+qbybya/48fp7n/24dp9t/F/PrNTRnR9PPDsJaYZL/wntBcYkwyVhGBe083So/AR8o9rvKPdxCBHELhxW4YeL27VKu9MpvG36No0dU0yWHhh5e1f6g6KIfcxpjzQdh9ql2CfkHHxPyWEIyP2ee0950htRaAMlHiBVSxAE7R9MLxcfzZZbP3hm9ODQzYmLQYmzmsZzwM0Jk0VFjPcgn5jA2dPKRrc6k7N64QNlX7rONAxeBS/k2IP8I+n6znJu9fPNSF8UV/rp2Hq2mfap94kOz5awxoPFr/8R7jAXxBb8D9LALPJIeK9TrW7THmUHUKynoe95UrVTx+CpVTI/cc6jmJ1+/XN3I+bdxH+DHn8KZ01NqhM9oTvCE0H8JBEXm7x/MBPw8R+MUDVR8mEoGiMRrTGsvNWJPIfVWe+OxErhB9c0F7Bdd43O9fjvE8PdDekvNjY0x7PBvTTJi67EkIPe13VKEu4g9BGPP7rFeuWgvAymOik11UNIa0rvzCVZcxp4GM1zBaVYxifjJX+vzwcpr8xfXccJpiLximi5OpXcrO65SnjOO6ef8UdhWiQBU/w6jaoQx7GFr0+iP0iuILhIRSpl0VPxF/DTG2TKGIfMQ7Qr8qAnNWOVSaC2U9z9er4XGEeirM89c3VUF3WlV0r2ueYTBjOFMIpj1xzFDm5/AzbSw3H8YrHutYb9SGhsqgIQI3/no/bXx2P7egebCS9lc2X4rAhqxLjE8MP/YFxnt3caq0CcpFYahsq/E9Oy6hKKPRY9qYZsJ8j72pRcRL7HHYjmiYfFDJ18t+eIbUWgCCXiAuDsPixVSIBPe94ZvTgomM+MNToRPcEsYTm/fkJ1dyPtIvr8lIzT3HjiX1M9nrBsYShhY5N8XIqip+6qQ9LnIA1edPTd4xsppz0m4KvF8Y0xSCCQGYC8FQSfGMeqqVtXyUF4UnHWN4oq8CL2rkTnGXX9/I4u8f46KBNoWUYq5l8TeROvH47PV7Kf70s835gLWpCkvf2NbaRB4gIpCKxKNiVKtbiYrFeX1qwNrEMMVuQQQqxDn2EYoa3V7SwYdaQ1x/1bPtPFZjmskYNmPMX+xAFX2h8Bl7Vtmv6qBfai8AIbaDIv54AUNR40ato2Ftzh9lolaeCqoL9jm5JXwHY/UX1xWaJiP11mI+vR2wccdYZYLXYJIfRxX3uPAKhSCgqAJCb/veM52uy8j620MVYcDAcrXPZjN6r48JQPUBPAODmZmQDeB8kEcfJDzl8qZzoPL+subSDJU9/ykuRGB8PPEROVKlebYKvHj9vwgwbqkMirdPvQGpChprFGHphIbuPc0HVOptqcJGzTigYuxiy3DwQQ4r4cwjERjXMESg0geGMdYrW6dm+4gx5sdhNVLEYif2u9izsB8rD2BdpnMjBCAnxrhRyRPRCxn3EYReFM2JwvCKixMcStFTlEK5G/T4+4QE/pKPxKltbOR/1+evjuIPMUB4Ven1pxwb+vz99aGqfup0PQQhlfgQDPL8mebCLlTec4XL4S2Jj2Mw5K+fJhi+sXa31S9zGHNpunjRr44qexL+iRcQQxhvSH+5VEicLCGfXvsvDqxXRClsx1q1lvuSVk3iyVEmXxkReLiV85MZ52cyrt+UGLs60GYuqLflhA5ACAfV2I89pX+VHPJSPdoHHsY0D6ZsmeeIP/RLdl6dfe5fRTMEYLyIFAwYCwOAfmuX+ihpjADWUi+M5qSIjZrDhxhvCte5VrwUv7iWZv4pN57GSMWY5US39pRwQBlU6zsq7rLx+f20+rtv0+pvv1alvb2VTeWJNcKQMj9OvIUvPb5UAS3i74xEPes4Ik4h1KW659x/+CAt/KdP0vz/+kma+3fvq5ASoaAUytBhCuu8MQFtaohMYJ2iOvHan+7m9jTPt9IRecpNCQX9DhiItAoav7WQe1v++qZyAhGFzAMOTDhU9KGHMQ0i5qvSFHAg9GMv4/CyOAfqoluaIQB5wXjxyPtABJb8D15gm6nmnRPjSqHGFKconj/KdKsB9QfLuccfnr+b86kXG7cS9utqqCICEH54gZRTs5NLrNPk/atHaV05f/dL0ZeVkvN3NiGC5l3De1gEIO8nYXJVqNwZCHx5PXrt1Jnsx7ypiiiVMOriTUcYdqpQz1jzlTBvTMDB1N7zTYWrb9Ae4osHaet4TiBRC3v75ZDjbMb4zwGjUOGgSi3IjeJpEzEMQYgIxBNYHYa4MqgxzUBzlUNPqn8qejE7rl4wfy0A34B4IatESvpHIQbtATQnRW5ETaW22JRVnGJWxineCVUjjI25T8jn9LDkaZSQz7ohG+hV8bf7ZC1tffskrf/pblr9wx2dpm99+zTtPCoG1CjssxnGk3kNeCsrEaj7+uzpw8EK6zi5f2Hw4gnE6CV8urc0pVxAVc8NY7cK9fT6bipYx3LRqq20+3BVIaDr9AjkAOvrJ+phyhpHuxMee1YHHW8KewfjnTQDtYggH/Y9DhsvKxSajzvMi9iT6ppeYIx5FaZo5QHMAhAPIIc49Zm7zRCAvJB6EUNJh/FAJ/2cSOlF0LxDGE4xpsba5Cn1S87fbPb8fXRZjXuzl2JO4o/DCIk/HUbUbyzKAMLjQ87fqKT687T5xcO0+rtvdMnzVwq+EBqaK0TyzflnmPNAMYT1vp7dG8sUkRdQIrCTcwEnQwiGcUuOH14/jNxqTmVDt3yzufBwgIEX8IC2NSsbCv+kNcTan+/GmvYgbd15JnGodYww9sMy5utOTAzNi26JOJkjHDTvOUSc0B5CXsCYL+QRjUSgMaa+sOGxj3GYeUwAjtpA1IDGCEBUtF7IbiufhNXU6DbNhMMEXWzEMb5oyEs5blX7/PByLk7xSQjA24vyWKhEd43HX3X6fcSp+e5+2l/P5dS3OTX/y7208t+/TKv/9rUqf9IDUDk0hE6V7zPmnXNsjsmIZU3n4j6f08boNd38ALEuSQQSzbC5K4/fOgLwd99KBBIOyhqHF1CRDOQENmgtY+gzDzgUobAYObK0GSIktE9riCriBDvIB+DG1BrNUQRfJ/Y27EVEYCcu9rqazN1GCEBiaS/xwuFxGeSqWDkHkC/mxxjzcxkJv35X3ggauZOfRPgNG/Dkx1fkBexfmVGyPqe0GK11pQr7pPH3YRhKCLxtevyRN0PIFBX0QvipgMLKRm6oLM8f4q/8EGNOAlm5Md/YHFnXdeWP9TVjfoyytpHrd1AKWRHSvvnlY7Wv4WKto5gVRWN0qNUUyrzQAeTMUAeNFBljH1LeOUKQXpgIQYpKVOFknjbG1A5y/TjgJKWBlAcq/vJx9gDWY9I2QwCimLutURVQDPW8+DXDgWlqDptul+IUg5J/sSSPH1U+p39zS54/cv4k/Fr1FX4jyin54ebOSPyt/uHb9Px/fpVW/3hH4o+y6rlqXvH6WfkZYxpBrFWxxrF+4ekjd5kCVut/fZie/9vXafX336btuyuKeuAxjaI6HAmbB8OxuzCpytOz//59VcwlD509ilzZV/JkLQKNqRXMYyLFEH8t0hyYs/FxVb+kDjRDQemFDBVNDDwhELhT5QGMhbImSto0D5220pA6xlR7eqhCFOMl5FM5fyUHQ2Xp6fGn0OOajjdOxjGKSsjnASGfT9Zytc+/PVLY5/pn93LO38Pn6WCrhHzG9+TcsPxjjDFvwLF5p16Lewe6Ri0JPK/ePWW9ql5zcgJ3n26omBUhoVzbd5+mvSfr8hIqHJS1rjHvRewxY6VibuxLVAJVr8xf3dC+NKD6dAkJ1WF4qxV2UH2MSmNMwEFOp+S7hwgcw3nVLekO9gC+PjLU5QHsFA/gSxXt/dX8XNg4c4P38dzgvYg/NeN9P4RffKwG7/H11qCX85XqeOCAEarQqGyAqtrn43UZRIR8Svh98Shtf/NU1fMo+KJy6Riu5XuNMW8Ac+Y7847iIxy8KAeN8ENEoOfWiVCtWxKBuwejRvGseZtfP9bt9v0VHYKpujGVQXkvmvB2xBbDPkOaC4fe3Tl60M4p/3wi9qWJ95ZUiboXexYpCyouYU+gMbVC6Q3kt3dL+lpxXKFn6rIMNcQDGC9kvIiERGQBWKrp2Ptn3gIEHRtof3lGTXiVdK9iLyEAY7NFFCrxvh9jDvFHyHEtBWBch2EMUe0zjND9lU15/jb++lChnzRM3gqjaOdRFn88hl5/YRE1wyAy7waGrpfMd0bl+Xuxl+cd4o+Qa+YfXilE4Vk13b8QsHYhAqsqx7G2URiG8E/Wu62vn+j+3tP1dLS9n6MdmrLgxTxF1BHmSe6QKlKTnoAIZJ/68Eoa3lxU2wjlA1a5RZ7gxtQCmYqKMqODQWgWbhW5yFfrsQ41xwNIefBjHsAqBNSYN6LskZyWUlKb3mPDG1Rcu5qmfnlDeX+Tn1wbld5mA647lRdiFPr5eE2hnmt//DZX+/zdN2krBKHEH+FQCk1riCFk3j1eNt+OMn0kABEfzLuNnRB+G/KwI0Je9tT0PDtptP5JBO7qdec92PzqsRrFK+T9PiHvu/FehFhv0toXe5Q8e2E4tsL2IVKFYmQ5HPS6UhToo0kUS64MihewfK8x5kxhlUG7KBSUwxw0C/eZ1zWZqA3xAJZYWqp/hvjTiZdCQOvjSjX1p8r5U/+xEvZJzh/hni97LpX8CnL+BmWc1RUMnwNCoGjzsJP2CIH65omqfBL6SUU8ef4erOSwz6oqnsXfBYFNJtZODEPyhCichUHJpmRL8c3RfHsp+FRg6d6KxAZzjSq73Odz9NxsXBXKpsL7EuKOfEBFQMRaN3pfvnyokFBEIJ5AheeSo9kUzyzGInM2jEcVhZmbSIOr2RPIvkXDeO1ZC5PqpamDcWPMmTMW+y6iT7Uj0C5xpVaez3XZf5shAFkEw3iRF7C4UrUoyo6xIWNeD4xgxB+npmrxQLjnL+L69Ko2035srGyiuOzrMkF/jBeHL2SM7q/mU28M0Of/46v0/L//TUVfMIJk8BDuyek3ws/i7+LA+lidPsba2eqRhE4hI0dP/BwQc4g6hRriZQrRx3x79q+fp6f/+ld529WU/JsnKv1breMAAMKSSURBVEoir5MF4OkS6xtrImJPrW++eBhrYW4Wz30KYKk6aIjFpsFcJmqFPaq7MKU8wOlf30zTv7mpw0uKmKk+gjHmzHnB/ovjKuZkVQQmFxIM/VKT/bcRApDXaozTa4QfCZVcoaxfnmaXBxrzXRgenMRQ7XO8eP6uzMaGeVmhNBR9Gb+9lAbX51Rym4qgVaJuLdFpd1wYoxJ/W2nn8Wrawtj56wO1eVDOH0bo43WdiKd4rEPRLiixeDKetWZygBbzQGunBeCPw1lJmWcUEDnc2cte9mcbaefB85hfj9P65/fT6u+/UeuBtbjl0EXeJgotEQK6c2ABeKrkAy4KXFUifZuiMCHUKYTF+qicwHgPqYKMx/BlG5wGgCeffYzCMLGPqToo1apjHxt/b1kfd6bIWWeelz3M09yY04P9thy6KuKGfZf5SPoaEWWx9zIn67LiNEMAsvBhtMSihoJWKdUO7tX4PC5VL3Tm+2BYMCEZN9+t9knIJ9U+3wvxd21WITT0AcwV1fSN5YfUiEr80f9qVO1zTUZOFfap0M+vn+RWD2tU+yTcKRtGjTF0zLuBsa8NKdbKcnDGXKhTH6JaoqlSxB/VPTd3VdiF3D5VmfwSQXE/rf/5XvYsIS5oQP7tk3jMWoiPTeWjqfKkD15Oj+p9K/mAe883R43iNz5/kNZjbeS+BDrv0TbvUdWuo/7vk+Zy2EHqLRZ7FZEs2ssIBb29qENM+tV2ZqhanQvD+KDHmFOCucZ0Y38t4k+HMeXiYxWvRCDWZFo2QgDqReVFQz2zqPFC6sKYiS/qBa3JK2pqRB4bHBpI/FFF7dZibvXw6VWdnlJem0IwctFL/GEc13MsScNVRikGzjN6X2HcYIzezf2v7tD/ai3E3/ar1T7NxSSGsg7JYuNRNTIO0mo8xutBzJdy0MIc2ntecsrwJP3lrhqNP/9t9vptfhGiIuYc3iYEh0Kuyf0jxBDvn+fe6cIaGe+d8gG3eO820/b95xLoG7E+UhSGCskcnBE6X+VFN+JtYi4XOwjDkgrW5KsPrs8rHBQRyK0axdMjMPY9GaPGmFPgRXZGxZxTzt8Az18uWqlK8qFZXvD12Hvrstw0RADGohcvqsIaigDMqpqYWgp1OKfF/D0MCcZNa7ybWz1QQvvjK2nqF9fiuq4wUE5M25P9fLhQdyrDhjyk9R15JDjZfv67HIZGmBOGjUrQV94HG6AXG02CS2mMTam6dGBWvm7+Dh20UFSEYi9U1WWeffFQ4Z4r/+1v6dm//lUXc45WA3vK98shhZ5v9UGVkTkoe7qWtkL4IQBZLyUC74QIfLKmryP0m/S+VZ5A7B/aFJH7R9Vq9rMp0ho+WEq9+cn6FzEz5jzBphp7KxGKdCtoVc3f8f6FbkH8sQ/rIKcmG3BzVod4wV7ExQk2nhopaxY4PIGIQpS1MYFC3nqd1OaEdGEqDa7OqVoanj82ySE5f1dnU3dhQuKPx9Z2o5QxWrwR5CGV3JYtypyHMbPx13yqjSeQz+OBoC8ZBWJsjF4Q2FAQdXj4YrPBm021wH4YhoQ891XVdjx7udVD1QdmrxDz5LhnnQqeOc8vV9TlYAUP+9qf4xYvEl4/VZZcSXsrJdyTUGt6cXrO1QatmxyYbeZoCd5TIiRYO1Wt9e6znA8YX6eZvPI1m/D+FQNSthDzXZ5AROD8yz0u7jPvu/SxtRA05sSRqGMfJtoGB1Xx/uXQz6JR4jF1ilZs1KrA66YT7DB0pLDHe+kSBg3qukYvqjlbGA+cjA6uzCnPj/5+XJMfXw3xt6iNUcVe8ByTX1rXsSMNV4m//TBMt2R0Unxi5b99kVb++99CAD4cCT95/RTOZPF3kWD8ak2MDacznfNcMQSnfn0jzfzjLfUMq/paIgJbbEgx7k1GIYOVt+/JusQd4Z3P/ssX6en/9Zm8ffTSJL92516IvpiHHMZoriEyNNeqy9QJrZ9c8T7xnhEhIWFPrjR5myEKEfEHm1V7iIa8h2xZ2EMx99XaaGqYeopyWUqTNIqPi9xAwkPxBioc1DaSMScH+7DqlZD7F+IPxwKHsiH+YgWqpZ3ZLCuAFzD+YmJp1fx0WCrrxItsD+DFRkYwJy+9dupM9pUgP1CD9xzyqYIvJMpfmVU+oDZETmvquinKaAkD87j4owgFxstn99Pz336T1v5wR4UnOMUm34V8v8YYMObNYJgyXlslly/GL2sfBxkqCz8znr3dV2Zys+iPr6TpX15P07+6oTnQj8/zmPagp/WSn3UhQawh2vD4lXBqDk8QATuP1nLrgBAGqzG3nv/bV+n5//gyrf72ax268DUEIkLxCC87c42f5ylXb3h/4n3Cy8f7vH1/RdVaN798nENBadxP38bN3Zy7qfe0OW8qxfDaFDnD639tLg3fW0rj8gQuq89tjzQHvP+veCLKNxtj3h0SgGV/xguoOUfaRT2lVsMEYFwYQPHisqBh+MgI0om2V7SLisRfjAuKvVDJkx5JFHdRr78whLkIAeVzvcXcMFf5pLUWfy/z/SjogvhTSfMvH8kYpeQ8huqo5Hx1et0w48X8BIxRxncZ49pYQvR1pmOch8HHQQceP076xykE8f5y9gCox+V1FTvCIKRYhMY9ISkYgXUd+ycJ84oLzx2tHbZ3VQ1SlXTvrcjzh0edubX2pzs6YKGlyvrnDzT3VOFzDe+fG7w3kaODw+zlfZx7BPJ+c3Ef8U94Pa11qiiK7NmtP9r7Yl7TAkIHn2XvG0cAqsp17Hul0BmPu7Dz35iThK2aQ1psy15b2oT9enToUkNa//k//+f/vdyvP+RYkKexuZsOqOC1uRf3d+KKWzwg8TVz8ajEH7kQhHfmhPgwhD+8kj1/txYVHkMPQIxnncrU+MBAxkcYKwpL29iVgbr51SOFLVHxc/OLhzrBptnx4W6M+xCKI/FnzhdF/HGyiHebk37y+fD2UcAIzx7l3ykHT/iXDD/Kwsft8Oa8wqBHLU4q4++CegCYHln8HYb4Kz00yfX79lnOC6NQyN9ibjG//kaOWBYGBwiD7b18yBLzEg/icbIwz2E/vD+8N7wfCHNEOoZAnVBUQTwfBC1hkDv3n2fxoyiCv39+5wbef54bVxHwMth0uJJDKWW0xf7ABNHnmSf6p8bwd+J5YBzifYhb7nMxz3WYGHtJUkXoeHx8rHlwXt9nY84AzTn2gYle6s5PpM7SZOpenk7dpanUqeE+AI0SgCTZK1E/Nm9E4OhaDxEYFyEe5uKBNw9hRyI8og+vx9Qn19Lkx5fDEF5OvTDECAttzOlnbM6V+Ntb2VDYJzlIa7//VoVfKDtPXzLEnzZzbBmLv/NHDNOR+GuP5TE+PynRp3YmHHIQ4ixvX65si+ePzw/J/VmMjWdmmA89YmPSBsXPq/v4PymYK/Kq56bu5NMSTi1v3x+Lt+/PdxUaqLBACb/9HFot9fj9c0yGtwVg/Tk+7BkL8b6yzmJTMC9a8R7SWkHvF8JQByVlzjQA/ZX6u2Ot6FbhZ+x38fki+BB+RJbkwwx7sY15V1QpSO3pQerE3ttdnpbt2eUAlrSjsD/rRrM8gOREsXgRphEb81FsWIdr2+lgbUentPT0MeccNrPY0dicdWIbxq1yH2KiKQFe/f1Kg/cwgmWE0RMpNsSXBnD+UbUijEudyMYGnXuP0Xg65yRthuhb+8O38kxs33uW9sn5CyOWE92mhCmZ72E0lvNpPeOZTYI8PXn6whjF29edi2u+5PfdJNRz8aWXT72/4uMQHINr86puK+EXY749ng899HP5HRr7dRz8JwDziQsjf/8gHcWcOgjRx4EK82rnLn39HqmZ+yZedSrpfv1EoaDyrFMUhMqQIYg0xX5knlkANokY/4yLSgwhhOKWAxYEU5veXeWQMM/LSgg2YN7wN3NTrSXF2695rzGc33vyV0cCsAFPy5gmwHyjOGV7Zph6V2Zz3v1SCMEQgK0QhYSD1o2GCcC8oRPq+SI2Z5L3KY6BN+RgJQRgiEJzjtE+nDdkKniS06Dm7mEIj/KePrkqg3hQjC/lPRGHXW2EddzwKoOkHG6oefHdZznfj9LzfwkjNYzVnYfFUAvjzSE8DYdxyFhWk/bYOBB+MZ7x2Cm8M8a18vroXUleH0UdPs6HGyruwBi/Nqf+loR4dmcnJBgRIIRDK8eVAw+M2MqA5boIlPlEztfRDsIvV/fk8ITy/4RSK4dW8+phbgz+aDVXg6SabtUSgDmJ8PuJaWYB2FTyONGsiHmiz/Dc+VzsL1UFv5EXrQnzhzWFWx346DMan3gEuSX3FfHHGGd+6GCDyxjzVij3b9BJnfmJ1L8+FyKQ8M/p1J4dhh2aizDVjWaFgLIhszFzqhuLGP179p8h/uJ6uiGPoDmnsLGxqcVmzETCqMLwnQjxR56fPH8Ue8EwptLnHH3PBtkD0iYXInbDmu7ff2esYpiRj0Sxlz/dTRtfhPjDSCPsE/EXQlGGiqk3jDeN2zJ2EQoYlngbMC4ZxxINIfxCvMmTvUhe36z6eGXxF+M7BF/u74XXbzH3+OKEEU9ffE/29oXwizkh8Rc/P4u/+L0a9/Ud++8E2bDZcFcDd4W47YegocjLVtqT+KPIyxN50TWv6OfHoUp8nobg+6vberyiS9hjXkP4VVgANowyHfQWV+81H1NjAK9YfKh9I+aSCswhAKuDlCbAmlPmPX93q5P3S+5T5EZhrztxsY8ccsVzFuf8fTfmBEEA6hB3YSINbi2kHr2mKTpIBFrsC+z5daNZHsBqk9dCHZt8bFhs7vuU5n6Syzibc0jZ0HKMdUdGlvr8XZvL+X4l/0l9j3C74/mLiSjPH4Ywm2FNUZgaua2xKeN92H26odLk5PrhpSAniRxAPN1ULdSmjYFWjBZTTzReufDwhegb63Jlo7IdQgGDrD3RU+Ei2pIgGgbLVUGX+XywEeJv/IPc2Fkhn4R7UtFvaSb1EH5TJcyTsDV+tgzVbPhdJPIcOpLxzjxinpAWwIGJKnzezRU+R+Iv5tbmXx9onhESKq/fzs8/WLEAbCg8TewJ1lLGT7z/VHjl8+0hByrFmx4ikLmVmMtNmltaf/LYZJ1g/yRKSt6/vbjFE6hQ0PKee08x5mdDw/dW2J20XRm8VwTgfKz/k32tJ8y/utEwAXjs4qQ3NizE396jEIGxmVkAnk+y529MBhbCT6Wur4eR/GHp8Re36vFHpU8l8VPpM4zhmos/bbix8bIJM3bJPVKrBxmquVExXotc7ZNiFGGg8j2Mf1NfpMGK8cXpexXeSU7fNDl9E8oLkOALQTe4sZDz+PD4xYUXGwFBH8vB1TkJCdo46GBjsnj7Yi5g2CnUE+HHWL+A4k9UxcGICCF3Fo/f/RB938Rc+upR2vySqp5xG/c5TCHkU+1TQvTI4ydPyEtP0JtiAdhgtJ7GxTocz51xxNzN1aJD/MlTH7d95lo7pjZzrHxvzdEaFHsn4pWDJ/7wfICY0wfyOMgeQdVXkAjM32uMeTMUMRBir7sc6/8HS6l/bTa1Z8YlCtkf2CfqRrMEYKC1lwU7FjcS+/diE0P87T0IAbixo8eY84M2seL5w4Am54nKnjP/cDNN//qGQuPkFQmjC4+KNmkmGoZwzTdq2R6x8arR++qmPBK5EuE9hYASnqawT06l2aD1DeWbTX1hzCIK8Poh/iYHGp+IOIq05PDOJY1dPNf5omrt1TT+Pu0bQjxcCdE3n4u5VFU8FT56UUXej4CAU7uUZ+u5uEsIPkKn1cfvD9+m9b/cV+4fOYBEjKiRe8ypdxVGbQHYbPJsiufMGQAHAbF9yONHCLXmcVtzuK0wSr6hofMvniIRCVX4ORsQ3u/8vsf+chjvvfaYi/X+G/MuoIowET09irV9dDn1EICEf7JuhA3LYUzdaJQAZNnFCL5USjOzcO09eB7Xatp7uJqONnfL2mwDqfEUI1oFMqj0OTsugwpPyURMrulfZvFHvp+a3MYGTbhOFn/5+2sP+2yMZ0JyDjZ3sueCpsR4J55v6nNVY+KMN+Yzh3GJRxrDkJN1wj5C5CmkM4z/7Okbpu5MXLMTEgMat9fm1JoBrx59Krnw+Kl3H6GdVKyNjYMcQESDwjsn8PSVELQQfzJImzCuT4qYK/JcxHxQnl+IOPLAc8XcVR2gyOP3RQjAz++rp9/Wl/Tze6a5pTDqePyoyMs7mk4WgOeAshbz3LPnLM81CaaYfx0OF+M2vzIxB/la0+Zi/LnqEci6FbfMAeW9xlzKzz1ujuIf3n89tQu81hjzumidiD2Aw172/asIwOXUjf1cdukAuzT27xquF80qAhNXtehyi+Dbf7Qe4m9NlzyAfJ3FzItXc6kmVDGuMaTxmuRqiFck/MY/yPl+VQEMeUiIseb9L2OkEcRQlUFLaW7lL30n1DNu9Wz4kI2Zi8+b06eMSx1KMDbDsFfxFnL46M+Hh48CLiHm5OWrwjrfozn7kg4vJAJDDErshUDgeyT4Ziha1NdYVngnoi9+j6oRIjgvuvgLGP+5pUPOl917tqnKuAqbRviFmCG3D+85n6PJO+HT+3j8QvAo54kiHzHfNL/eERaA54WYX3rqZZ5xv9qL4v3VCX58TnNRc7N+J/o/yWgtKR/HdKiiCnS4UoVDB5cu6jAw5g3QOkCK0kRvVAFUAnB5Oo0N815ezbG60SwPIIsxizO3caOcjxB+CgHFA7i1mxdtXV69GgnvLRvuMQMbQ0qVPj+6Ku+fevyFES3jCvFHiWs2ZE2y8nMaQPWnaqhK2OUxq7wNngub9WjR4Ov5nj6jTTzPA32GO9VDzevDa6bXLl5LXtPKQGIMxsVtZexJlBHnj7dvSCEiirdUwo8CLiH8bmbRR38+xinhynj5KvGn6p00iKV1A8Jvepg6ShLvZm/fKzl95W8pf9+FIubCaF5gmCLaQsCp8vPadgi7jSz+vnkSIuZR2vgi58xW4g9xs7+yNSrwQn4XxZYIpa7m0btCY8MC8Hygp17Gm16H4hEs+wsewUvtWAcw6vgcD2/I3NQyEs+hahavfYbQtHgeII/gbswVeQTjfyagLn3ZGPM9qIdorP+Ef7YlAGfT8IMQgEtTaYwCbZ12TLx4YA3XicblAFZGLgvZ4WbJAXycK4HiEWTzOuIEywtXs9DuxMaUQ24I+yQMrhcTavzWQpr+1Y1c8OWDyzKk1eYB8aecv9iI9f3lZzUFni9/M7cYkfFcJAQ4NQqhITFQXpM8luMffU/+3EgY6HNxw0NgdMf8KHrpymuJQcR7gEEU70OVJyPDXkUgOrlBe1XMZSbE3+JU6pPTp8qdhHSS1xeCr6rcSfsGKnmG+JPXD4/fYunZNx2bRfwsxEE2JrPY0xt50UH8Ifq4qOxJuOduDvesirzsPniuAkn09KOyJ2GfEn8hCHdiTzgIkUjuLH3PKkP+pPYDC8BzBjaEDgzIi8u2hGZl/MMa3ern95o1olp4tRbXHdY6/kxuY8yqPUSMVw6eFP7JuIgxoMqgjIEqHPSCDwdjfhQEIHbbzCB1wyYg948qoHgDKUio6p81XR+aJwCDyvAlFGjvyUbaf7qeDp7lNhBViE9euLxyNYJqU2IiIYIwogipuzIr45nm14g/vCkU0ZD4ozAGAik2sjwe8o9qHDzvSoDE81fZ8SL+FGYYmzMGJKKwNQzBUDbsLBrKKXRVnpwLPO5fC73uRXjLgMezR0++Cap15tDOboxD5fFR2jnG44DF/VoJ8QwjX549rpLXpxDPGKM9GrQvVZ6++DmcDhLiGeNWbRv0Hpf3j/f++Pt3wcH4zDl+e8dE31oIlRXlyKqf35ePs+cvBAyVPXfu0cx9Le0924h9YEch1ZXxftJYAJ4zOIBA/BUbohKCDCUKO+lAiPnL+lut3UzdJszf+BtHfzN7TOwl8gDy5HiuxUNOQRhsqeq5G2O+H80jWjqFvdBZDHvh6kzq35yX7cA6wf5QVxopACvYxA4I81ndTgck+LOBcXpVTu8u/EbWFNiUMKIQPEX8DW8tqLH79K9vpqlfhvi7tSSDGjc7hpaEX2xi5wOMf27K5tzK4g/B0MXTJAESgoLQwflcIERGSCw8lQjW9zPcy0ZufoIy5qpcPnn2aDHCwQNi7+qcBF1VrXPyk6tp6tNrabKq2MkVn6M5O2GfCEO9P2Hwt9Wf73gBl3h/RiKv/H7zg0igIPxClNDHbytEn/pi/vmuqntSJXfjs1Ip9y6N3NfTwVqs/7EfIPxOe93X2mUBeA7Jiype6EP6RMZrg1iqij/pwJJwUE74WbeZ342grENlv3lZ7TQfNvL8KD4mD3qxp/Leom82xhyDQ/sWUUGx1veWplQFtHdtTlFCWifY/2tKowWgqsAh/rjWSqJ/XC+o8oYn0BtZvSlGuMJqBp3UUbn8EH/X5xRGR1l8jG5yqphYEj5lg9LG1ZgN9ycoTwMDAlGrmPIiTHhNECYIQeWLTYQAxvvJSXQYnNzP+WPxunCFIcqpU+VJRODopDp+pi5EM7/n5S/Nt02BP5e/ubxWEswyxGJMFMNMr131/OM15KKEO4cL2cPXzw3YqdjFoh0GO+GcgzDYs5dvbuTlU2jnrZzXp9w+vH4h+PgaIlH9+WLMdjj943Aifn67En54Fo+Lv+rvNzImlWOEh2GfIkgHEiWjXn6P1+XxQ/xtffU4bf61hHmWXn5bd/D4raoCKC0gciP3g1jzswfjNLEAPJ9oqsYYxROmXnmHL/KBG+tMOXzLB3HZE6h5znfVfY6Xv6/ab/IaytoZz6cXYzU+nw/TS0GyElWVQ6mNMcdRegjRQkT7LBcBWAoU4h20ADwhOJ06XN9V9U8l+2/FfcJAEYLxNRZsU18q8YfRREENimlgbONxqSp98jEemfZkP3tUEDMtNtm677JvhjZj/mOtiA1Zp8wYGYgYDEsJmRAw3MbrwP1cgXIijMxcUEQXYjGEciUWETx63RBEZTGSsVLgXmNeSb3tvEZc8Tz0GiF4Mb7jNQkhrDDLIpo5gcuvT2683idnj+br5O2FyMNIH0jQhcjTLaKvNGCXCIyLoi0q3JIrduIh1M+bwdNHWCchnVlkSnTy98TflV/nYlwxVhv1Qp8wsSwj/hRmRguUWLf3VynsEqLvIe0cQvRR3CWEH20c8PRtffVEbR524+u5pQPCL9b8MMypDFod+L3L6p6viwXgOYaxepQPKaA6fNQ6FPc177v5lJ+rKZ7AV/abuD82Wk8pCBOiF8+fwj/xgOYcXBWHMca8AoVeJP6WplL38rSqf3Jhh6RiC9SVS/fu3Wvsao/Xb+/u87RNk98vwkj4/GFcD9LuvRV5BfEEmhpSNki8JFn8DWU0Da7Pqdon1RMrDwtGFEKnOkmReGnABvuuyIZy3oTlIQmjV1UQVzZKeft9GdDkSjEfMOQIh9vf5FAkH4ionyCP4YAkjDz9nKpARtnkw8rJxvOPrQajr73tkvGd9++n3s7yfuumElWMBQwWmq1/1+OH4A1jXJ/jPt648hi+rjy8GHfclzBWUYcstLlo3IpHWh/rPp+Pj3ksxh5jsRiC5jXRkEGgccOYxquS+19K/MV43g0BiCgh34+G7Vx8jry+/ZXNGPcxtmM8E46HQSrRVwO0jk32R4WBiFpY+E+fppl/vKVDLERgnWD+85qu/v7b9PD/+Lf0/L9/mTa/fixhzddoBWD+Hol7wsOv5xYvhIBP/ybe4/cWle9DtIbWG4mo5oBnL89HCi3t6EBg/S/30vpn9xR6rUJLcTFmRnuEJrIxpj03rrYPgw+X8+0HYb/Guk8+IAeD2Ap1pdECUMbwo/W0c+dZiMAnaeuzB2nzD3fTzjdP00EYDISImnqRvSFxhfGMxwYPjcroX0P8XU4z/xAb6vvLOeQzDCoVewkDK5+s6gfkH3SB0KZbNmmMXirU6YQ2brVxl/C5g3V6o20oLA6DmVvdfx6CkFsMaERiCEeJQ4XNHat2x0l3tRp8Z4N/VRy++rU35zvvIUOi3B29v+VW/3KfO3GbhV8O+ay8LhJoeP8Iv8QDyIXnk8RsbiXgsncmh9RyjUsEIubkGeXnESLLaR2/Q4cN5Xb0MSfmx075859ofowyjnQjD10ea3gTOJzYi3GK6NumwEvp58d9xF8l+ji0UP8/xipjnnGqQ4u3HYfvBgvAiwHrBGsG7ydRAaQozP2HDyQEVZwsRCCn/jL6qsWhCWuEphL7S95X2C+Yg3jeybtd/e03aSXGyPa9Z3mf4EBS+0E95p8xZwlCb5w6Fb+IdQAB+N5C6t+YT50Qhpc4MA7boa40WgAS6rn/NAzeh2tp904sWH+5n9b/x9dp52+P9HkMB1MfZEDLa5MN987MMPUvz8rzp6IvVPv85XV5/yikgeFeGd7mh6lEoComriL24loN4znu7x27j+cQAUjoHFf2AsamrxC6bFyrii6GunKp2OjjF5SPdVIclz6pK//+16Z6GxFyElBceVzotnxOH1eeviLCJLoYC4yfItoYR/L0xTg5nuOnsExu4+PK00duC7mSCg+dyiGiGl9F9OW/IS7z7tD4iSvGlA4udvdVXEKeaMQf45Ncv4fP0869ku9HRc8HzzWGD9a3Q5Ds1j70zALwYqD1KNafLAIn08R7S2nmn2+nyU+vyiPIIaYKlU3087pVrSlNWVaYq7GXaHw839ScXP/sflr93Tfp2X/5Qocz2jc4kMEDjxg05oJD2OfEP91M47+6loafXEmD2wupgwMjbIzKvqgrzRaAhBBh0IbY273/PG3++X5a+9cv5AmkNyBGhqkPOkEld42QTxpmXp1T+AxNs1VYI4QgJ6uU38+hNG0b5q+BhFnxCh5uU72thHl+9yJ0LkRfNsTxqITwQwDG9zGXMM6r/FmJykNEYTHeeYwEYv6cvIWIwTehiDtdEl0vvW1jtLIo96mCKq8cAq8SenGN+vPxNd3m8Irjj9FFqGevuh9X9bj4OIeB5vBOvq8Smo0y1BpCNS5VUXCjVPUkzPPx2surCvfEc10uDioYrxqrJUy5zjCuLAAvAGX9UtGHEHnKWac4VLzHVKye+DAu3u+FqRgTsd7EmiPjryn7VzmwoZIu+wBzFa/8+ucP0tofvk0bXzwYFV/CO89+YsxFh75/U//L+2niH2+k8V9cS73rsyoKwwG07Bvsi5rSaAEo4zUMXk6LaQi/+ae7afX//Dxt/emevIKExLGomTMEu7p4cahYSeXF3uJ0bp4dm6cau8etTk8XJrWxYpxzciLj3Ib5T8PGjbEdhrLEmkRazI2YH9mrVwm56uO4z2O5igCsxB/eGRnePJav8XgMAr5ewvBGIvBN59axsVAJPZ2QxUW1TD4no0mCrog4XZ18Iegq4Re3+hkjMVkJyPL5yrOnr3GVr+v3ld97fHw1xUhrAmU8KswzxhKePETeThiOeBW2dZUqngg+vH0b2yW/L8aZxlqMsTJG676GWwBeEFgqEIEcJsV6pCJctCy6MZ+mPrkqTyBtYtjLCDUnLJ2xwZrUlD1MoZ0l55xUAYVn04bly0fKAyQvkKq88tKvbec9hYPAms9RY94pshdizMft4GbM///1wzTxz7He/+Jq6sf8Hxsn7aT0AKyxbdFsAYiBEMYpQo+QTwTg8//3X9LG7++k3XvP09H6biMMiHNL2TDleSFsBgNpaSa3eXh/KRd7QfxR7KVUTRoZ5jo14QfkH2V+Aoxuhjm3ZUMe3fKFV+5zN39OeR+IOjyAeA5LeM8rArB8XQJQ4i8b5/qZbwLG00iocb0q1ioRKE+fSpJzi/BDAHI/C7+cq4f3Ln6WhkkeJ1UIqX7P6PPlfhlLGlff83nz7mBsSPzFWMJI3H28mra+fSpDkkqeaugeBuTek7Wc46d81HzAoDWdccXYZIxy1RwLwAsEy0U5xJInMPY1PIF4/ihgRo9Qeof2SgVYDjQRi406yGSfiPnHnFQaAdV5Y75SMXb1D3fSxuf301YZLxzaKByUOduAuWrMW1PNZeyPuAj5nPl/fJIm/93tNPz0SupdmdXakG1ZHlvfid9sAciiEwaDDI2VzbT9l/tp5f/557TxuzsqDENz+FS8HeYMwMhuXVJeFoaReqzdmE8T78Vm+fHlXCp9OTZKmptPD7VRmlOkbPTZKxjXyNOHyGPeZKGnr5fPHclAj/nEnHrTDV8LZ140MaDyApoXSQm/YlhlEVh5A0P4jW7j80Us1n1hvchk8ber/FM1cg9jkWISatwehiSf23u2mfbXS4EXDEgOFVjPG4gF4AWDNUx7W6xRnVa878PcWuYmES2xt9HG6JOr8gyqMEzsf1qvuBoEe4JSClSpd0vhoKu//yat/fle2vziQW7LEnN5f2NbY6ap89eYN0FzOeZ+Ctu2FfO//95imvnfEIDvSQDSDiLbKdnzr8OfmtJsAYgByv8lF3ArBODq/ysE4G+/TdtUAg0jQ4UuCFczpwsDX4Z9S5sgCfPKlSBP4uMrqpxGiwfCZOQqJ6QvBIA5ZRCBzCOEYLle8b4c/3rcjD7m/s+sAqP1kH/0IcZU9fF37heR93e31WNMLZHnYGVTPf22vn2S1v54Jz37L39NG188TPshPNS/r+SUam0mn3Q0ppqHBeAF5Ng6xP5FT9De3KQiWQgFnfuPH6ugGS0jiHxR2LnWr/ztTYA5mQ8A49o/0Hxe/9NdCcANWkSECNz826MYN2tKIbCdZS4CHPykEHiKUoq5338fAfhpmkIAfnI5dRYm8zzXGlHvCd/oRvA6hYurWqgOCTe6/zwdrGzlYhbFm+GG8KcLE4RiG+2J3KhcLR4Qfh+RKL+cJt5fkvePnL9ciTE2x5pPlHNLmUOjsCbyWwizDKNWV7yPKpxSqm2q4uaw91YXuaDVz9LFz46FVH32uKrfrXDPGBvxd+niQIFx4rFSa8ghpb0D3j4EILlDiEA8gQiPSgBm8ddc4VehedPLlY3VK86N4C8GvEzYHhyOhZ2hXOoY++SuKwcw3vdqHVPeYBiNTVq7qn1Be0Ksy7K1iPyoJiw2lw7Yy4GBDnG48ofGnEeIartEkSdslol+6l2ZkQjsX59L3cUppTtp7jRgrp8Ll0teqPKbwkmcKvBQ5j3eCBYvc7qw6XXiPRjeWEhTv76RZv75vTT9DzfT1C+u5vyImCQ0225aSIwx5qfh0I3cvt2na/IayLMkcYHgKw8y5rxQHUDv5kbqhEVu/O1RWv/L/bTx14cqekRIdPZyN1cdccjRXaDozYLCXIniofoplVDxfFIUh0geY8416I12LmrYngmdMU3BpxB9jP2G2bTnQgBqSY0XXp4KTt7iDRmb7Oc3xQLwdKhEeLzenHz25idzdaRPr6bpX93QZoH461+ZkThshUjke3QZY84NeATw8hHuqUIvKxuKyFA4WYMNYGO+D+k6xjYewK09eb/pabnxt4dp48uHuk9fPeW77uW86iYKQfKwydXvX56Wh3v8/ZzvyC2F3LK3O9tcSufw3m7OIdi5qlJOX+GZ8bBnY9zj9QubVmHeDeJcCECBAAkFzhvRQvxNxBvS7zROkTeSSvzx+lf5EItTSoJX2OfHV9Lw1qLEHwVflBRPWIw3CGPOHXj6DkMAYghTQXAf45ccoYYavsb8KDGmCQOlvQ5pJ7Q9odLt1jdP1DJh65unaefBquaDqmYS/tzAMFuldgx7ynUlvFkikII3Hy7H/Xk1we/gDRl08/6O7eU93pw3SJeR1uin9uxQF6GgRL69aNh4PychoHGx2OB9ClWu+HvCP3ttC8DTgJeYXIFuiL8Q312S4dkgrscGcXspxB/VPmNziI2DHDAmigu+GHM+oXos/SRVQp5qn6vbMowp9mLMueSYCDwMkcfBB70uJQK/fhS3jyUK959v5EI7HIY0DHk+MHwlAvEEzqQJvIAfXUnj74UIvB4icGEq21/9Ugbf5pc5Z2gehA2LxujQ6iWuMXsAz5BYZfSmUJknFp4xKktyChVvCL3FzMmCJ4/Xntccdzhij8IvtHzgYqNoT5U2DxZ+xpxrMG7JeaIH4P4q7R6yALQH0Jxrigg83DvQ4UfVRJ1KmVXVTHJi99d3VAG3qcgT2O/qoJdevpOfXCsicEntMIjyQSQiFn0Ab84daA2Kfk30lBPLRQ9rPsfcaBLnxhpXFUO5ZXt6M+SSHXTSCy9Ap4rCOnnNq6M/DD7CXWz4GXM+wfCtwt/I/UP4rW3lK8QfYlB9JGMd8DJgzjXMhcPcT5VQUAogbd99qkq4G58/kEdw9+FztUnBS17NiyZVzuSwvbK1RtE+N+bT8PaiRCD3qfBNFXDqMsgotivQnBcwbyutQcFJQkDHc8VfewDPgiI6VIabKqAzw9QulXlcBfQU0KaXDUCMvj02vXsrKgFPf6ntu89yHtDOXmx2DgMz5jzx4vCFcvwI9dx9uKpQt93HOfdPOU+7B8e8f1aA5pyDnouxjrjjQORlVdB7af3z+7q/pSbq6xKBFE1qWnEkVV7nohk2Rd8Wp9L4rcU0+Ytr8ggqHJQm+CEC1ULCB/HmnICziSKGVSh0l6KGw5z36hzAM4DX/AWve7wBxOK2pvpZCE6UYiOcQMkrlR9v3i3sXVkAHqSD9R3lP+w8yEnw9JnKTYbX9LVXjUFjTNNhPqu5eAg+HfzceRrG7arC4FT5cL+a8zw4f48x5xr2xBB2uel+zIsQfJtfPkqbX8R+SGXQ2BPZIw/WYo4QHo0IbJgnsGp2jcBTYZirs2nig8tp4qPLOe+fom9z42GHVXn/2GC2w0xDYdzGGFZfTwnA7HBS0clBN3++YQcd50IAsmbywvMGkP9XhYDioq1yAVMr3hiLwJMhxJwS4MPQUwK8mkCvSgAS9oIIxDDcW9mIr5cm0DTntwg0pvGMBGApf8+833m0JgF4hNe/GLduAWEuEtoTq1DQx2uKhOEwlJxAxCCicO8Ze2KpDBrzqIlzhCgrbK7e4rTCPwkDpTfg4HrO/++GOFRRmNaY7DSlidgOM02CIcvYbYdk6oypj7VqjYT4UwEY8v/4WsPG9TnxAJZFJd4gYs7J/ZP4Iw+Q0yfeqH43RCBvkFeeEwERGBvYSARSBS02vI0vHo5yH3YePNeGp7CwBifBG2NeMhKAMefxbFD6fvfRqgzfUcl7iz9z0aj2xJgD5MFyACoR+NUjFYThloPS/edbJR/woJHzRGGgeAGpAL4wqQJwVY9AtX+iCFwpk6++zBzEWwGaplANV8Z5n/5/oS3QF3FJa1B4skPHAareNmtcnwsBKBCBKHROmfAE8kaF+CMfkDhdvVFVGII5URB3B2vbEnxsdOQ+bP61Cnt5rtygo739fNppw9CYRkPRCx36PF7L3o24yAVUyLcPeowRpD/sPVnTPrjx2f208fl9VQklXPqAVik7pVJu4yi2V9hdNILvzk9K/E396kaa+sU1tYJSk/h+CZPDRrMZZhpELjIZ+oEIw+lhDvtEAJLfWg41pC0sAM8QXnz+jzckC8B+6hCDPhsCMN44cgSblqTZROQR2NnTppZLYedTT8JeKk8glQLZEOmbdKq5D5zKEo7G36iiNdvySlKtjRA2PBm5MpvzFI35QZhHxbtxsLWn4k+75P7eX8nzm/w/wj8badAa8+4hFJqiMBRJ2yFX9usneU+MW/IBtf+UOdMorzkmFXZXCDu8fAoHXS6N4t9bljcQEYhnECFIL2DEYmWvGVNrYpxSY0QHHKSWUWMEEVi82pX4a6K12PrP//k//+/l/vmANysM+COKD2zuKgxJRj3FR+JKe2Hch+gwp0FMCTayskHkDS2fFHaYSMRNx/ulkxMm0UmL82Pij3Ab5WZQtTAuhazF5qy/QyeUzHj+pvi+k/67jGkSzCMuqhzK87eetr99qgIXePsRgFpzQxwmBGATd8Y3QIYvfaGoQj3eUzNsjF/lP+H5GHTLI+tBVZyEwznys3fuF8EeeyZf05ptTobjL221r8RcwsOAd6w9zOXkRZP2H/7Wclf3Y05UnyNElEN5PCigQ1/ssMMqOqABz89cWOT9i/GM4OsuTKTu5enUuzqT+tdmU/fKtD7PEG5a+CecLw9gAUFRNWrszE/oUiWq+FyOPzcnDgbi4ctS2BgZm1+RAP9QOUJ4CpQPuBECnSpoMhRjdzwJ24Ofqb+n8ljkJtUk5m9+/Sitf3Yvrf/5rno17T6kWmn8TYTjsFHZFjInTRmff3fVmRAJufVD9vxR5Xf32bo8gcwvmmF7/hhzDKZ1zBvtiZu7ijrBA7hOOCiF0ggHjc/latll/2mSGMcAxvZqh7FMTuDUIPWXp1UUZvrXN+O6kYa3l1J/aVrVExU+18ITyPfmH2FMHZGm6LYU+tmeGZcHUMVfONjgoKOB4g/OpwCMRYXFhVCE7sKULlQ6nid5m8zpENYfG9jh9r42NjY4hYLGtfXtU3kKFPYSm+ELSsWz2b1r47f8vEqMcvKdxd9q/ntC9K3/6W5a++MdFavZvkdlttK/DA+G+xaaE0SeNK4Y+7oI/+Iqn68j/Fn8reQsKXz64fO0ExehbRz2KNoi5tpoPhtjXhJ7CnsLhyfsgxRKy+2SnuQemk/LPCJPnjWhQXNIxnDYWNhaeDPxgNMTcOqX15QTOPHBskJB1Sg+7DOM6myT2S4zNSWG5mhMTw1Th+bvMzR/78lrH5tcflwDOX8hoIEWTUJZwuiX1ycMlf0w6qm2dbgRYoNQUHN68H6EQcgty/wYIVNFjFf3x7pUUsqngfk0hTv67reGfL7q1HU/BOduCE/yLvD4SfTFJkxTXsJCCddSsSAOETptheNQ5tqYdw6GHXMjLoxCCb9jp/5MA82Fup0u8jfH+sp6ql6f9Der8nvvP5fxepHEn0NAzRsTc6OKSOE++41CJWMsaV+kjgH7ELd8jiWgbuvADxF/p9YtQufazI1ObscVH+e8f8I/j1KKtU4f75Uxd0HWC9MsNP/CNu3EWj64tZB6N+ZSjx6XC5OphSebkO2mzM3vcC4FoBYS1hJuYzF9sXOQ9mOzOwgReFiqbZkzgEnCPInFn/AxNj9tdGwQtOpgw4tNIucDlse/DWVPQXzK8xfiDw8flUlXf/t1Wv/DnbQRhiuluKlaivEtsccG3CGMpS2Djr/PmHdKDEx5+RB9En5hFIUhVIVOQjaiijFVJ8qBCiHUhE6v//meKn/u3H2mZvCEr2nyXRAsAM3P4eWsjnuxFnAAebRNNMxhjJleanMYSYn5YmDWbh34CfTXlr875wTGx9pbQ+yyz8Y4Y9893CzFojzuTB0pAhDBN/xgOfVDBJIH2JkPARh2axUG2kTOpwcQqx/iPUFQ0INnl347hCjFRvfCAvBsYJIgyGKxV8nrWPDlZSueNk4LlQzPZvE2IhDDOn42YaW5Ee+OepRReW3zy8cqv73+xzvyWuw8XFNIKAaRKn/ye+NCjKrny3hf9zPxNQ2q8qEx30cRdxx0IOZk2HHSHWORcUbIM16y/bUdGUDKg6VolUKO4/sYg/IG4CVnTtRkwPG84jlxeHOwuZO2766kNQ5RKGf/zRN50VlrJWAvkC1nAWjemDKlL+mlZr+KtSKEX3U43Y59h0rm7I3yArI3si82CfZu/tcaxp4e/2NMa127pGIw7M2sJ6wtWjN0efyZmsD4jfnXGnRSb2kqDT4MARhrezfut6erPNYY0xaAdSK/GTp5ioXmMIyVvXuxyWGgxEZnD+DZIPEEYWCoP1is86NNTYs+p4NFDLJhYATztTecXIg/GdtVsZdHq7n3ErkWNOAl34JCNGpWvaPxIA8Mhk9sxIwb/R2xAcsDePwEFuP8Df8ec7GQZw9jLkSf2qGE2EPo0f+SXNidMLy3aZdw75lulTsXX8cgongCBw9UzMMbXafNReIv5gpFkvaebijkc/1P+SCFarqICESsTvMvEBaA5u2I+a3DlXzAwl5DSoSEkypojo08gU3be/h79V9s57rPYZaew6XRYVLOs4/PEVnAPnzB1g9TUxiqZW2njVx3eVoCsEv1T8I/S10ROSwayrkUgFoiq8WGk6bN2OzY5I55ADH2L8Wiq8ea04ONLl57CS5Enza+HAbHe9Ua9mQEy63OxGITfJ1NTzZL/Cw0XBihqvT5fEthaiTar5d8P1VbUy/CMFjXwuiJDQhjvfobZADFD2GzbfWyQcd9nVySz8At4tRcHI6NLd3HQNZA42LcMKZfjh9yWjCms5dvS6HHCCYMbgofbd8N4fftE92qZx6FkGIcjrVaqTMzTG1apIQAzB7xWMdeZ/yfAnpe8Zz2VjY0f7a+fKwKhuTQ4mEnx1bzmNfoAmEBaN4GeQG1lrAvFvGjeR9fi72mKmiHCISsnxpkuVR/b1wSteU+64TWiyBH7GQPqMZgg56eOZ/I/mQPxhEQezJ5f8MPL6f+9dncXxwBiD3YpLn4Hc6nB5CFhveEf2LBwQO4e29FAvBwbSc2v/0cnsWi473u9IkXHaOZ9wCxhrcObwnvF6WjaRRLdTAVh3kdwcVGUgxyNlCMGxV7ebSadu48k+hb++NdGat4AjG6c6uH+J1sQBjv1feyAcXfxu8mBxCjDkE68kySv9DwSW/eAMZVGV+MkSz4EHrltBrBRwVbjeMSckyxoTCoqXCLMOIQgup+CD4OIxiDeM1UfKh4oVMMQ6qKDa7Mpu7shMabBGBNxhnPn+fGc8Lbx/Mg708CAhGL94+5w+t1wbAANG8NL7nWGPYj9se8zuhQNMZVd3Zch6PySsSaMBJRDUJ/Mns5ohaBixjU/n4pj0kiJmLtlFeQx3sYmjME77tswGGs69OD1Ls6mwYfLKX+tTlVAkUYVvOxqZzTENCARbIsMjLIHq9LFNAcHkNF+TYssFp487eYU2K02WXRVRnSvFeUjpbIUt5DXBJfP16FU8Z5vJfZ+N5RSB3FXlTp84uHylEi9JO2DzStPlijxHYJVcNgrf4eNt39MIACFYNhcyoXm7BCARCBfC1mvkXgOaesDVUVWQm87RxaPPLufUfobVcevhhruhB8XNXH91ZkcPNY1qVLl2JshWhAKAxCMFAivTszLN6/Gniaef6aIy80txCsVdN3BCDPq/L+8RpdRCwAzbuAaabXPq4jmqTHJ7T3dLMHolX2wZfCqWGRKJVNVt3yHDjoKgKwOgzGJiA6S+sOr4eHozkDyLsdG8Tcmxqk7vxE6iIA319UKGhrqi/btOk24PkVgCNiIQnBd1haQOD9kyEnEcgiy0O8wpwFmjvHX3o+RpOFEGNijUJffsqAOowNMzYPPCl4Jza/CeH3+QNVKFSRijBWVQQII2cnGzk/9pazIfHH8XdQlZG/kdNXxGn2BpLEHpsXT6DZ89/8KLF2YIyFsDncDtEX44uwYhUUinGmcM4QdIQUI4bW/3Jf442L3pLrf7mXNv56X1/b/vrxq/l+sfYgFoa3FtLkB5fTxIeX0/jtxdSjSXJ8XsbdWW8uMe6zEZa9EYTPq3cmzzXmlnL/QkTo+cSaqgOVC4gFoHnn8B4w/bXHZMEUq1HcRTS1clrCTxyM1hmJQOZNCEA8gtqQy1qD+CMfWvs0h7Iej+YMuEQa0GQ/i78Qfb3rc6l/Yz51FmJNp0hTfL3pXAABGPqAQgx4fWKDO4qNT/k5YcypGiihiD+mBswJEpsbL3/+R8amjMi4xQNHzgMnnxhXeo/YNKpNMZAHUcY57y/5foSmZWOcBu+0e8gGzoqKwUj8VwbOj7zn+vHxdW1CeDVi86UqW5WIn8Pz8FLGZpy/Q/+bmsK44u1mvGBQxBiQR08nzgcKOZJnr1obtnaU6ybBV3L4qHCpUE6anofBrAIud1fSTlzbd7K3eeurGHd4xr4MsSdvX87xY1zu0YImfibjCcMHodBfnkmTCL8PltP4rUUJBkKgGe/5cOGsB1W8aJX3M16f3SchGL56rOe4/tk9PUdEoeYV8+RH5tR5xgLQvDOO7W2ZsudBfCqLP9ITYi+K/Wf09TNfK14f/anyAFLsBg/gWCwdx8Zc3GU9wROoVBG9FnEde4gxJ42KAM4MU3dxKnWvzij3r3eN/L9JFYVp8gFMxYUQgPTXUogShgqGXhhih4SDsuEhOLzhnT0Y6cX7x0LP5GJzwHhSlaXYNEZhI3jo+JbYJBTeS1GKKi8phJ8qfYYxjoGqfL8wbqqQT22sP2moXsobUjwWg4h8BUIB9Dfp1DKLUy0AZeONv0x/o6kXo/cx3vvcjoEQznwARB4ohi/VOfeebYzCOJU7Wnn3St7e9jeEcj5R+OP2nRB7IfpoK8LjJAip6sn9GIdU+iQsVEWG4vfIsI7xx7jl5LA7P5mG1+bTxHvL8vxJLIQY7M6M53FFiHENDDodsIQRhljgNeI54vUjp5ZDFl4nvibxR+7ST02rc4oFoHnnaI9iDcjrl9IkYoppD9JVDiHZExWNwsMbsgHF36k/lX1Ve7t2z7jJ+zsfMw6zLRBXWYeUH2nMKcG6TbXPbqzjNH/H+0f7B5q/8zUcAE3nQghAnWDvhADgtH9rV4VgVBCGE/nRCZM5M3j5ubTQZ0+CegXFBqeNjg2Oj2PjqzY9HoOYx3CXsS7PX/ZMKOQuDHeFp2HYUJyC91ib6mvC38L3sAmVjSlvWmHshTBVTkYY63xOG5cOY3nAOWT0slV33vXzfPV9+bt3iU+8csU/XNV7+gOXDAZEf4wpCb8wepW7t7o9ytsjJJNxgmdvGyEnwRfXN3j0crGW6uJjiUDEXxF8fO9eiEZ+1n6MRYQSv0PCiLDI4hljzOJF7i9Np/EQB5MfX00TH18unr9c+IXiRxrjeVDFEz1jEM17+/Ke58IvT0L85deB+YZXUyf1vMbxkl9ULADNO4e3QFfeE7FfOGRhP5QAxHPG/lhusxBs0P7Dnql9Mx/oan+tnk8rC0AdKrG2YL/FOkREjg9ZzWlBm4deCf0cvLcoLyDhoFVUmg4rGs65F4DayrSI5HCvFxiBz7fSPuKAsFAZaHqoOUt4D2LBl8GMAYIBHDcYlmwQuOOrEEw2CEJ398PQxgujHn9/fZBzruLiYxXZWM/FXn62dcrmy1X+LiWnx6cJv5HBHga9QlnYeHUKe452p/Ka6d/Ry/czX8efJH4uP5or9nj9av6pLgm98gXuyzCI2+rwJi69R8zzw/w+HVWGQ1wcAMjrF0Jmb2VLHrrdEHy78t79fXXOXDgojyddn+VwYgnAEIYq5PIAT99a2n8aom81RB9VZeN3qIhB/G7+1upEW7msMVZ6i1Py+k394lqa+afbaeqTq6l/ZUYVxcgxxbDTWKrDOIq/X0IhntOuev7l12aLK14rxC/PWXM23oL8z8XEAtCcCPE2qMVM7GFEuvDe0CqGw1AVSOMgMsaWilHE57QXNXEPYn9H1Mb+rgrgcf/4mq7Du81YW0ME8uziWebvM+akiCHWIf+Pwi+3FlT9kyqgFIQZK94/5ek3nAvhAcwLaRhlsYBykoYHcA8BGAJhZER6zzt7MDp5nwIt8dXH8UFLwm9Mm4KaUYcxjxGKR+Jlvl8prU+lT0J+30b8VVQCA8MofhaTHmOP4jRKYC9GfnWdC3jded4YH4TexHvA889X+bjaoN/mip+TWyiUE142+t0SpkmRpp3Y9Lfw3O2qPHgO2yQvbzsdrG7n/LwwXPcI4cSjRxhnydUjPBGvlcIyH4RgK+GceO/y9TR/TC4fuXr3S0gnnr0S0olA5GfIw1e8e/xO/gaVKw+Dmfxi/l6FGPP6xOuCDabTbITfRK4gNrg6l8bfX06TIfqqi4qfbCgIB3m6GT91EX/xPCiUtR8ij9dDPTRjniGAeU15Pfi61814y+J9swA0JwLrLAdaZS+rhF4lmqrCZNp/yuFR00SgDspYL0cewFgHqyHIOlQO8XQAWz039nUPU/OuYQqxnrcuqfXD4MZ86t+aT4P3QwBenlbuH60hNA8bNs++j3MvAFkwlAfEmxVGJ15A5f48CQMGkYDRFoYolae0qJgzp1rkEQnZsI73JyYklRMPNrZzm4cw4hXy+ee7MkzJ+cuGzKY2C4VuvrP3M/6e+FnaqKqNVqc/RRCSlI93kpPLc4C8njEveO0RZhI58ZqqWArvB59n3uAVfYtLBVgQdhu5rQLvreZmCDwMUlXcVKhmaaJObh7iDDEX73/VWmHrm6ej4iQbnxWv3Z/uprU/3nl5xTghPBghw7jB26c8PoRelbcnkYfA29bfpUrBRA6UsaTh9BpDSgWMBr3UmR6m3tJUGr+1lKZ/dSNN//qGvH7D24upvzydQ0nisVUIV102FIm/eH8ohsNrQoGb1d9/q9eOEFnCXQmlZ16aeNssAM1pwJ4Tb428grEmkZsuj1kIQPXLlXew2QeRrIDHBSGtmPis9oxqXJbDw9HHxrwL2IJjTmn+dNupE2s3eX+9myEAby+o+md1QFGn/fptuBgeQBaUeMNk2ITxSjsIcgARgGx4Wlww8ryg1Id4Lwjnk+CIBZ9NgfuE7WKsSwSU8vvkI+GVoFojho3ez3cl/hg7/Ch+3vE5X36+cjJiA25yVba/g9cegYZnbjfEH2HTeLwk0iqxFlcIpbe59vDe4bXjQuQ9CxEWt9XHCP29J2vy6FVtF+TNKyKw8tapWAuCMMaB8vYI1Sy3mwg9wjYp3kLVTlXmDME3ytsLgRl/B1VkeU5HIWxULAqPJN5JRA6vx4+NJ8ZIbArqG4TXj0IvbB4h8obXF9LEB8tp6pfX0+RHV7IwQPxNDfPJPUYO3894Oesho6dYxN/mjsJbaV2BSKC1BeGfamMR7x2vjdfLjN57C0BzClTijwNODh8ZWwodZwwSRhn7kQ6U9OgarClvgP5U1kIOVXlOPI+yj7IOS/Ah/LDZuIjeMuYdIVFHZVrsuVjHqf7ZuzknD2A/RGBndqivZ+8fQ7VBk+sHuHTv3r1zP4tkvLF2hIG393AtbZPf81+/TFufPUi7bH5PN3OlyN0waszZo00gLgzq2NAwojCoumFYtce72iAQgxgtlSFPGKAMmOpk8F0JQODviblOjgJl+qniiHFHSB+enYkw7NXDLRaM6kRWeYoNXSBkIBKGGUbiy6bnIdoqrxiewOMnsj8TBL5CPhH5CM7Rxl5OeNn042N+l35n8UAyT3VbvHNZrB7I86vQTIVlvnyMDKYYDxoSuo07ZYy88jld8XF8rfqYGzG68/eMjK+Sw0JOH8Ve+ldm0+D6fIyNpRB/lxXy2ZkZf5lELgNHP0H/nyXVGsnzxBOL4EZUk/e39odv07P/9jcdtsjDziELxtePvCYXCeViTfb13rIGTH16LS38p0/TzD/eUosP1q86wfvHIQte3Yf/x7+l5//9Sx2UcLBWHaCZGlK8E6wxeU9cTNO/vq6CUuPvL+VDh6uzsUcNtUeOcgKbtA3FmsK+wprNnsOhn3L8FYJ+P4ehk+bxaDXtr+9of/jJAzpjXgPm1iWiuWJ/pv0DXr+Jfwj77jdc11NnaSrPJdmDTZpUP8yFEIAVCAQ8f9tfxoLyb99IAO58+yztPVhNB0839HVTI5hosYnJo7IwKSOL+Gs+r7yAeL/kucHox3NzwoYLBjuhnu2JMPJjkx3cWFBYH/lclPPH2McAJHlY1RzZhBuIBCBiKl5TcsAwFhEE8sitbOo1Z3NGYL0NCvGN90we20rwHQvv0W25JOTicaNbicXy+LiVSJQ4LCKRn6nHxIXYO0EQfxRxUchnvP8UdhnG2BjemNct42JwbTZ7gzggIIyE08a6bCLSchheeDuPJAQwtDY+u5/WuUoxHIyx05hnTcMC0JwmGm8UlQqDdHhrUb1EJ39xLVcW/uiyxuDIg1andeYN4SCPqJ6dR2tp++5TicDV330Tt/cV9r/3LMZr7FNa4xGA1oDmLVCPzUHYd7OxjscePnh/MY3/8loa//RKGn5yJXXm67WOvwsulABUUYNYUHbvrKTNP99LW58/TDshBncRgfepardTHmlqQ2xeCq3rdmKCEnudRZUM1uIh0lVEw4mCIMXbQwWoWCzw8kyGsTf56dW8+dLU+/3l2IAnX4b3NRBeTzZWef5Wt0oY4COdxOYG5ysSA3z9reA9ZOPWCW7+OH+uus9N9bm45XG8x3xcbvPX4vH6WhkD1a2+xi2/7OTgUACv3+DybBp/b0lGP4YYnj9EIB5jhWrVNX+A14nXj5DreO8Jl332X75Iz//HV/L+EU67+5TQz1w1WULRjLAANKeJ1hAOncgznhqECFxIs/94W5WFZ/75ttacMQpLsd5UIrCBaB8iEmUzH0SyBz3718/T899mEUgKgApyxWNG+4ExPxO8fxRl6yxPpSEH+h8up/GPllP/vUWFgFIU5rxxMXIAK2KRqMLMyG9KsdEdhRGr3CY8GmH0mvrB4q5wP7xSYaBwKRRxjxwtDNKTN/JHYCjjceJ3x+9kM5Yxz/+IQ4V/FuGHYORq2gbMy4mIwvPGJhyvd87bY668zAHM70O8H7FB8zUVbqFoSxiXNOenTxz3f/CKx/J4Cq/oe7kINeXS74ur+l3Fy/vK+6+w0GOhnoyF6iDgJIRfdQDASWG8zwr3VKGX6TS4Ni/xl/v7XUkTH+Qef1T/7IY4rK34CzS/4rXEk77/fDOE/lMJP7x+tMSgR6I8f7y+NrL+jjzvnQNoThHmbLxXrL/c54CU6BjGoPYkbUh579HF99Rs3fkp8t6J2G2r3QXrOWOUNZ+2XtqHGa+x5r/7xd5cNFTPYdiVZ71PSs+N2LtZwxdiDZ/MkTvnjQslACvDkGVQhhgLKAYtJeVpauwQUPMGaHNiU0V04I08LCfn1TiLr7NoqJpZw9Ac4SqCp9Xrps7kIAzacQkempfTJBVxo6b4ReCcZ7KhX4q8hPDrL5MHmkUfvf2mfnFd4o+wLL6GR6gVG0rd33+MKUQ2gkD5NlRS/Sy3fCDXBnH/UhjY0PouFoDmLGB91i37EGtvvG8qXrV3EJ8kcqal6qBafxCBDROAYvQk40453JOg1ZpKYbh4vohBLU153/USZX4O2Grk/3VDANL2gQqg3cXJvI/Hut7UiK4f42J5AAOdKpXFkc1OTeHxVBD+ggDUgtPAhdKcOowSNqSXoagUG+GT8Q9jjM1XArASRpzExnfVfHjlKZDnSRaAxbiNxRGPF0Ztb2FSzfBZGNUCIwzgKu9EhgdesrhVw1QujJS4ZIjot9SUeM76GxHv+tt5LvH84/lVwk/PnwqfN+fT5IdXQgBeUSGgiaoQA8I4HocYaMX36rCpbshWyuMWzx+FlOiLSJ7NelyEfRLmi6cWsZAPz/L3mVexADSnDutUeZu4C8qDxjsWQknejLIeaw2LMSqR2ID9Z0R5YpXNVj7Q89BzieefcwDLvsterHWKD5ryJM2Zw9iKPZr1uzUVe/yVmTT+0eXUvz6X0zcmKOx3Pg+4L5QA1BoSlzbsWBxpQK1S8Co5f6wIjBcQ85oo5DAu5UaVE0rC5DD6JYTwjEkAlk0McVFtZnWFTZY/keegufLSuCXXqUuc/Mx46uD5C/GnhZMrDF2KnCAKCY/Ux/H5yguqjbt67nU7qeXv0vPGwMgCljzO9iCeSxG+Paq/Ls+kwdVZ5dko5POY8KPQCzlgPBbPn8RfHavBykaKcRpjFiGgQgshAhB963+5mza/oKfmivL+DtdzsR8tifrHfBftJxaA5qzg7Sp7EKHcvH+jNZc9qOxDY20KqOVvqf0eVNB6zC2HaNwvz0fCNj7PGlYdTlUFwar2EM14hubMYWzFPo3dogre1+bSQAJwVnv52DD3eNYB9jnjYoWA8g8LX/zPIkIe0cHTzbT/bEOtIMhzyQ3h4yF1M1BN/WCIIPhKbyZtPiUXTcRY02ZVQnTU1oLbJiwkbLZc5W+XRy+MCESRDN1K4CkkMhZOwkNj8cTg1YVAxAs2gYfwWAGU+JkSH/F61crQ1HNlI4jnSiloCiwcK+wh0RdG/fh7iyH4ltP4B5fzbXxMewfCYqtwWNpB5PedtSau2hGve7z2nJ7vrWyUUutPVPmTvL/tuK+iLyUvWu+V+UEsAM2ZovU0rnjvXnBYE+9fXnvi/7hl7c2tZzp6eBZV+euNgDWUv5mriD9FZ7CPxsWeyohl/63yA4UPrMxrwPqtg2z2+4XJ1Ls+l4YfLqsSKLl/5J/m3n9NmTCvzwXzAOY3cIzFMXgRxo3E37NNhYLysTZAGac8wAuI+Wk0mhCC+4fpIIwoTmEVllIZUiwwYSCyAeNNyx7B5pGNhvgXUYiYxbAIgxexp0Io8ozhCZuTp6w7P6F2Ga1hGB/VCRrGChs1hkpdhEUxLiT+wrjAYFe/x7nJNAgjnip7x/P81NT902vyAMrIr/Ig4/2twl3rDMsarz0Cj7BPev2p7cPn93N1vXtU19vO4VW8R14HfxQLQHO2FHuGPSjmKxdF7qpqruRvMw4JYa/WukssUax5DYI/F0Gr+YYIpPpyrNNEnTBm2VNUMKxUBa08g8b8GLJlYt2m/UN3eSoNbs6rBQRpHkTyXOLwuraHuW/HhcwB5I3kRqXu2fjCEDpcL02uMUwJK8Dw8UZoXgeGCXtNGE8j8QdsQvF5DTk8aBIHbL7VbcMWFJ4H//F3ty7lMMnYhFUNc3KQOtOxgMYiiuhDEOnCUxiLKKdoGMIKqdTn4hav4fQwvjcePxmPjUVYXsUBOYUdFZYZ5bJwW538toqYjL9BXsUfuHLeC99beS/jZ3DSV/0tLPr8DTPxN8TfTYgnuY0K8wwRO7w+X7x+S7mqZ9xS4IW+fvT6Iz/g7zycdRZ/iG+uWN8wksh7prT6xhcP0uYXDyUEafNBBVca9KvogsXfT6KxZgFozhreNlq0xPuXq2PG2Iz1iLWUNVYeQLYc7J+yBzWKYrfpOZUDSPVVjX1BFYpD9L5y+MqlNa98vzHfg+ZH2AAUfMHrR/GXwa0F9f3DFtGBPQPvHHLhBOCIeENZLCgvT/XPo9gQVVI+bnXyzemZN0LzpjBkymLBCaQqlHGYoE/kG21gEoQNDCvgz2UTjr9bdzEieA4YwRgVCC5EGp40RFyIv84EIisEFuIqjOI+nkLCLNQsPQzl+BjRpcIyczl0lPBLTqyVSxeiUbeEVnZfelEVCiSB+AMXBoKMhDDMQ4wiTLPYmwixF9fStEQe7Rro3zih/n2lqMuHl+NaVpVPPIDDY2GeiF3+JkJFK0NKr0fN38vjeX9U9qS/o1o9fH5f4o+8P1pzsP6x9ln8vR4WgKZ28BayLjE2y1qZ1+24WDdjXdT+0zTKvqMnw/OL9VcKjzHLc4vny+d1GIsoLB5RY34Imr93FiZU/KVH9BLFX+I+opCDZ42pc8rFFYABxtBI8O2VPnNhGEkQxscKBTXmZ/Aiho42ITzKcSttwB7FBoY4QsyECKzQplZzAfF3yJpgE65uEUNxyehAAIZRjMeP2Hq8g3jYFqeyhy0W2MGVEH5hJNN3p1uqikr8hVBDZMmDGCJQt6OP8RJmr9vIi/eDF9+XC7hgiNPPJ3v54m9YnA7hOZfG8fDdXkwTt5fSxHtLafw98vqyp49CLzmcdVrfk3MaQ5TioSwbQxVRUKySeiJ7PgTdwZEMf3ot7j3dUJuH9T/dVfjn9p1nuRJyfJ3HWfy9PhrvFoCmBrAMxUyPf0q7K9blY+sT65YiK3p4Nooo5As8pjHwR+fnJeO8/O3VvsPXD3fKgT5rGXYcY9prmqkocwLbhdYPvbBFetdm0yD2/N7VWbWCUOsHoo84ZDinXGwByOJAuKeuIwm/g5VN5b+8OB7KZ8wbwqZTVWWTURV7j7apWHjGOmMyCrUB61PxFU4zy0bWRLQZ8x/7Mc9lJAAxirMIk+dtDhEY19JM6iP8QpCRKyjxR+EYxN/0oNyWKz6PB7EbIlKfpwppCEIep8IzP3aFAa7fdzkEXwjPPrd4IeNSmCfeP8RedXtzXt5JidPKKxk/pz2B168rwwkjY+T5rDkSctg9YQBxwCXxF0Jv+96KjP+1EIBbXz1KOw9X42tbeU20AHgjLABNrSjzXbfcxH29r4HWLyIzygHkaO/hi03Zf1h6+a/628t+w7pMVAbPmdY27L2qzs0Vz9+eQCMYNwx1xk2s3a2wMXo3ZhXp0wsB2Lkcdkms2zSF5+va688pF1oAXmJxpHk3C2TcHm3vp73H68oJxFiiUbwxbwwbLxtwbDhsPomy1BpjbEAvtHHJg8TJEmsRiwyhk3HbaFgn47lpQ+Y5sSHH88wGRxjHYQgr96/y6hWPXuWpw8un4ivKJQxRiDAceQ2LgONSI/ppibTB1RBrP3SFwBsQakouH8VpbsR9Phdf6+t747o2X8TetH4PHsLuTIjRkceR0NPvtLJgQ2iCscQ41BrHKfhhafa+mrbuPFXOn4q+VALg+VZe83xK/sYwJiwATa0oBz+6OSpFt+J9ZZxqLWNdZj3TpVO7LKiawvG9htuy33DxpFXPoVTk5rkf4RFkLzaG7RtbS2NmLHXmxpXqMXhvMfVuzqv4C/YIc4Uqs42aF2/IxfYAjoydMM5jcSQfcO/hmvpiERqK8Y5IlCFlzBuTFw4abmsTIiRllBOYB9VYCD/lqnEyeywk9HwSG7VuysbNAhzPWbmChIqG4MLjJy/hUoi+yktXFWOJS546QjXJ2VOe3o9cH5XbqmUDHj6FdVaiDw/flDyMiM/KwydDgr+tEnqNXf9jjOngIXuiaepO2OfGX+6n1d99rfw/Kn5K/OGp9gn5z8IC0NQVbBzCIHm/OZDMBbSOrb0xZlW9uFrvGknZT8rzAkUxxHNnTasiH/QaGMM4j0sHITH2+8uxXoetMAgR2A8B2FmcUrG4V2yAc8qFFoCglhCxUCD0Djd25AE8WK08gMfix435GbB0sBlVp5FqUotRrjFFv6ZYZFhoSNTXYsM3xUbGHe6fJ/R84pmxoOrQOQznyhBBBIeh3B4VbClVRQn9VDjnRBjTIQzJ4wsDW966EIk/ei1mr14/LuX/hTE+CjUlzLR4+fi9qhDaobgM4q/8jfy9TVz8ZfvEGOP0O4Qdnr+9p+vK89uk3cNn93O/v2+fZsOfwy4M/9GBmHkTmL8WgKaWsNewDlDTADuHfYb9JfYa1roc3RBrnta7fDXN4xF/cf672T+Vr1X+ftZBBODuQTrc3MkH+up/kb9mLijYXGFzIP5Yr7tEE324lAa3F5T/154eFvGHkdKsufCmXHABGItj/Iv4O4qFgg3wkCp4sViol0wsGPTTcTEY89ZURhWb0hGhoSEI92NcYXTrymtNFWao+PTzuPjwlOKSEcJ/2q/jVgtu3MbzV4nvWKB1P0QZBkq+LRfGdreTcwzxHv7ENQp74uLnsPhz8VqX11tCvLzmx42hJjISf5x8r+ewT7V7COFXVfxE/NEEnsdoHFI+vgxR82ZYAJpaw/7Ce1qtbawPcXGfNTGHgMbXyvqr/adJsFTnf/Q89Klq/4ynjQhUKkZ+CfL66IP9CwvjXev1eKzXU/0QfTNp+N6SxB+N4OkJqMOEMpbOMxc7B5ALC5QFgTj52BSV/xcboWLIubazEDTmrWCv4apOZBlbNOvV2CsbUSw4I1EyWn+0tem23Dk/8HziSVaiS5u2riLIEGY/dHGSXb1WP3iVx33f91e/oxgKMhZ05T+tkWgYYdxkz9/++nbae7Yusad2D5/dy+Lv7rO0+2Q9HWzsam3DKx3D0PxMGE8WgKbWVBOc/YfDnhBALHcckLFWKhWhRGKwBwke0BSq5Tv+0cX6H/NSz5urWuPiHxW6UrGreB3MhQObQNFGIf66RBLRhurWfOqxXs+HABzQL7PJhsDrc7E9gKM3OW5jYVSoAJtgGOdskIi/Q1UEPSiPM+YtYC9iA947SAdbuUqZxN+x00idyLJxsZnxX97V+DBzQRYm82ZwkJAPGVjH9tXnT2GfVbXP33+b1j+j3cPTtPt4TeJQYWGMx/J95udhAWgaQbyt6o3HoQ/vc/Ay0oJc7BjDMVbZg6oNR/tPU2CfZLsci/lIWKsO+uJzI2/Opfz848opGTnqQXUezIWBKKDWRE+N3qkO3rs+pxYQiMFWiEJCQy8KFz4HUAtDMZ50KhRGkfoC7sTtxk46WNmSR9CYdwIGd4wzVWXTKWR8HAKQDSlvTnGfzRlRGOMyb2JxVXsYjO4YE7B+MY4ILY6xQxubnQer8vwR+rlOtc+/3M9hn8829HV5nzXGys8wPxsLQNMIYp1QOCSer+o9jr1EIgnPX7+T2sNePoQsh4/aapq031TPRx7Ach/vZpuD1XgePH/WPTyCui0fmwuDcv9oIUVl8duLaYD3j8bvc7kYHPmBFwULQIi1MJaJvBBgSJH7F5vhwfOttPdoNR1t7pYHGvMOYV+Njehobz8dMN7o0RaGGLeMQfZdFSeht1G1sY1OM43J6PyKEHbWrZ19hXfS3H3tT/fS2h/vKPePsM/955s5sgEPgI38d4YFoGkUZf9gDagOguQVQQBSFCvGcd5rxsJa5vCxmfsNfzXPg+fGvFS4K8+FS2L4hQ77qwI5Pgy7GIzFetxdmEwDev5+elXVP/H+IQpZq1nPLwoWgMdgwTgqAvBwMwzy1TDIY5NEAMoLo8fwrzHvADYhvDYY7rv7MsAoQKTCHDEOtVexGLFfcVKJYcYmpYEYI7GhG7N5RzB+GBL7B2HQE/YZ69XTjbT17ZO08ed7Oe/v8xz2ifijOTKPVcEXWzvvDAtA0yS0a7Bu4AUjFDLebxXIKmNYedNFAOb9B6uHzUjf3iDir2ZuUvBLzwvPTjxxng/Pn3nAXhv772g59NA/n2ArMaZbLfX4o9df/9ZCGv/F1dS7Maeq4OT+4f2zALxgsK7lHJq8OBCGp/BPvDFP12NjDAHI56vHeJEw7woOHLhiM5IHZ5fqoIcaa3yOCo2IQ53UYpzF5xWaU4qbmAsK40Nj5Cgd7Oyplx9hn5tfPsxtHuLa+vJx2r73LO2vbMjgl7HHQYLXsHeKBaBpFkXJsX4Q9cR+EmM4R5fkryqEsrrYZ3hMXE0i/uL8d4eQVXE1nh+fxbMZn9e+Sx5+rKGC14Ox7/F/vmDc8tazTvc7qUX455WZNAgBOPxoOfWuTMsryBpe9cm8KFgABkx3GdVaLBCAhIDuKhRv/9lmSjthOI0Wh3iwFwjzroihpI0Iw5z8P8Rf3GoMIvx29kenlNqsAxmcnbxYsWnpc9W/F2ftupjo7c5rkQx5Cr7EOrX7cDVtff0krf/5btr4y7209RXib0WFYOgDyLjC82fx9+6xADRNQ9uE9p0Xuo+NnD/Oe8yofU7sM2OdGN8SiA07cGQ7LDZdUj5gPjTVvslzibVQhdjYb1kbudUhmcf/uYKxHWMAL3cr1uf23Hjql8qfww+XU2dhQmNdAjGuPBkuBhaAwehki8UiFgoWAFpCYDgdlqbwLw7ic7E5KlzAG6Q5CcoGXIm/w81dVWvEA50N+Bh3MVRZpEhkVkiLhiL/5DEcI7i6a84b8TZLwGGsxDjhYIA1iqqeFHjB87f6b18p9HPnfog/Cr7EGHqZ88cPyD/KvDssAE1j0bKQ9x3tOTEueP/bw67GcyUCL+nAMcRTtbk0bI+phKBCXRG1eATjc4q6kV0Xz3/voNh6MQfyN+Vb02h43zV2Yyyr79/SVOqGACQHEBHIGo0tddHEH1gAFrRAaJEYy0b4bl4McuhULBKlOmhSKF4JGTDmXSLjvhKBMf40BvfSIWGhiEI2JjYrCcFYqLRxZ4NNyxb/xKVNWp8w54kc8snhwEE6iHVpb2VTQm/r68dp468PQ/hR7fNezvlb3VZhoResV8r5MyeFBaBpNPF2s4/w3itHOKD4WM6Hyi0iOHBshXCCvLU0b4+RAET4KRw0ezOriqgSgnvZ3uO+nhr7sWk+2PWxRrM24+3rXZlN/etcc7pak32NjYsm/sAC8PvAA1iFArAGcNq+tSuPjBvDmxOnWofKySybMhsT44/iRBhqiELlC8amTUL76JSrLGQWgecQTul3Qvxt7Cg0ffvOs7T+p7tp9Q93dCtj/sFzhYSqzQhjx8b8iWMBaBrNaL+J//Xex74TukgH3fEhLRQ6UwONbz00bzHlnwZSDe/YK2l8z/zlcFXh9Do0q6qCcsXjqsebRqLQ3/al1I4xTO4fPf961+Zy64fFSa3ZGtgWgAaUXxPGEwsABjUnQoSCHq7vqCKoFghb1+YEUZWyMg4JT1G56tig5JXei9sYk4xDndoyVstJJht3PrnkChl4QRe2cwEHAFzxHvPeI/zw+mG4b98vDd5D+G18fj9tfvUo7Yb4w/OHIZPHhK2X08AC0DSd3Aw9/tEeUvaduIiKwvvXmRxojOux7CccOHLY2FTiOfD3K5UibtlLFQLKoSrPvbwOmgueDs0lhmi1Prdnh6lP2OeN+SwAl6dTJ9ZnKsReVBvJAvB7UJ5NMKak4ZaMr70n6+oLeLSxq0UiG9k2rM0JwhDTZhwXHmlE32GIgbjNm1WIwZ29LAoRiEUQVptWFdLc6I36AlOJP4z1vedF+N1dSVvfPJHhTq8/Lto+7D1ekxFf5bDoIIBBwBgyJ4oFoDkX8Lbr0CluOUCKT2j/6LQ0hhU6yZ4S431UHbSJsB0iDOK5Ed6K8a8Ds2L36TUohdgsAhsM7zMHFYQw9zvq9Td4b0nVPykC012cTK2J3qjP8kXEAvAHQPwl/o/Bg1F18HgjHaxs5vAqCcD4v2yUNq/NicEQi3GWTyXZlOJC/CH6SlgyvQMPuI/xz+NiA4tlLzbouMpGPRqjF3ShaxTFEOG95j3Fq6dcvxB6m18+ysLvs/tp44uHyvfbe7we61IY8ISnHzdkzKlgAWjODbz1EkAxDriPAc0V+8hY3OZ8wBjrVAmNz8n6adiWwt7IPqh9kev4c2y3JXIVbVMOVI/YcyUCPS8ahd7TeH97rRB6/dS9PJ2GH11Og9sLut+ZG0+tYWn8bgFoKjQW4h8WOEogUxBm9+FaOniGANyRoXWEoRWLghYTY04JDHw2Jok+2pSE4UaTb4X+be9qo6pyArVZd9moy0kt+16+Vwa5qQ2V6Kvux/vIQRP9SHeKob7++X21eVj/0520Fre0eth/tqFDAOUs20g5EywAzbkCAUj9g2oc6GOFFGgst4e9MJzxnIRY0meDJu0n2gfjP/5kvICav109J+Yv81kV4Km+jQikkFax9/SEG/RULzIS92EDIfLI/6Pgy/CTK1kAEv45PZToRyheVCwAv49YGapTIXqDUPjl4GmIPzZJcgDDMLtUQgRscJlTg6EWm5BOJREHnFJSJZQDCUJBd2Oj4muEiu7n8akrNq9XPEOMb21k3slqAQYW7yvvE/nGYYhjkO8+Wc8hn18+Suuf3ZPnD4OdENCd+Pz+yqbGgYo12Gg/MywAzbmi7DMVWpcYF7FfMMbJm+NgEe/KyFZq2n5S/t4qTULtIegTF/MYFErPHlpa7lT7KN/nXbMZMD7V929mmHrLU6l/IwTgR5clBPH+0fy9UWP2BLAA/AlieZCBfagNMos/heDFBlqFguZje2NOl9HSVU5o5RmMMTryDHI9z4cWbOisdcrpaMUdbi/wyVedQJfr/UPUx/u3+3RdTd03Pn+Q1v94J63FRcjn1jePw2hfze8pxjoGiTlzLADNuaQyjhFBaifzQlEl2jd0QI5wIkoqe1FUHKbxYPHFf8xpPJx4iGI6MF94DUbY7qs9rMed2aHCPSn8MnxvKfVjXe7Mx5oc6zT9IC86FoA/QjW/K8NMvQERgHhdqAgat9osvRCYMyE2XIYf10gAxtjcCBFIiGiMUUJZyGcQMVbziWbxNvExJ5sawy8HMRsg/5sTAsHOy817gMcv1pGDeM/2Vzcl/nbuPlN+H6JvPS6M9O27T9XwXaG+GOr06+J9M2eOBaA5j2gLYGuIPYO9hUWLongIP20RMe5po1DlzeWLb2za5lH+Xp6ThG1cIQ7UAD+ei/ZWPILMDdA+yguTPzQ1o3ofh53UXZpK/WtzafDeYhrcWgwxOJPa08NYk3vZg33BsQB8HTDUOAEjzyZu2Sj3V8i9KafwsuaatuiZcwMbksRELg6jAjEKDd2Tp5q2EWxeOsgYfT1u8WQzpglnZgzH/zrFZSPXKlp+vnln6HWWAZGNKkS6KnyGuMMQ3/726ctCL397lDa/fhyfX0l7zzbSPvnH8b5qHSJHx9QCC0Bzbon1Ku8tYf+wP4RhnYnbuK82CqNQUKJKGhhZoq1O/2ThMEbuPN6/eC5MhZgP9AnUa4G5x+vBx16D60d5D1PrUmpNDVLvyrSqfg4+WFYIaHtuPLc06Ta4iu07xALwR9CJVvyn0x48JxhueFloxPxkI4y37SwA42taHY05CypRUTYmNis27Cz4sgg82CQ0NMbt2pbGLR9jBNJQXmM4fgTjnYR4FkZ0YP7HvDN4n2REhPiL94f3gPYNqvBZtXaguufn5Po9UoVPGruT66dCL7sIedYbrzV1wgLQnFsYCmVvqe4fYQvFOoRthJeMImPaMyiaR0goYZNNA+Ggf+JfnguhrtxKEObP8TUdshIJpsNTPIKs6flHmDNGNktcrMfx/nVmhmnAOnx7Ubl/3auzKgZzKdZqxmrjDipOAAvAn0ILQ8ACEDMdw5pTe5ouH6xup4RBdpgrL3ohMLWAPYmNms0qDD1EnzxMD5/L6Nt7up5FIFXO2MTisTrsiI18lPfAxxaA7x6MKUR6GBBU8ET4bXzxIK3/+V5a+/036flvv9b97TvPVASmCuGVuI/v9UFT/bAANBcC9hSED9Ej5TBKhnQxuGkN0Y6xzh7SSGTr8U85CCXHMZ4XjcLbE33dZ47o8LQcyHk9rhGYK7xvvGe9VuouTI68f4OPllPvykwaG3T0Pkr82b6xAHwtMIYZMGUBJP+PxvCqCEr4nLyAsRB44zR1IcYiYxMRiLHHoQXjllzW7PnLoaBUuK3CQvPGHo/na/GYI0JHQyBqfBe0Znrh/Gnk6csn51oz9B5sp72VTa0dHCBVhV4U7hkikNDPzS8fp90Q6nq/4v1QuCfrig2N2mIBaC4ErGkcXsWlSASGiWyjfHDY6ocAHA+hdEwAZkFVPmgC/LnF3suevxwOmufwi9wegr0RAUyVUPZGh4LWAnlsOcRmHE4N1ephcHtR+X/92wupPTsu77TF30ssAF+D0VCJiS73Pwb0Rog/vCdaALKRp/vG1JS85uWQZgnDzewdJL9s9/G6whERJ1z0FhyJkMPDvCnSWL6JOR6nTRF/eFePdnmNt0PUrSqkcyMMblo6rP0hV/ektx/9/AgDlccvXnPWkpyTacOiCVgAmguFNpK4iiDE7ml1skiSACQvMCspXY2NJIlpoL+c5xB7HnnX8vph5/Hcsft2cjio1mpPmzNF9kmsw+3JfuouTqb+tVlV/eS2F2KQyp/mVSwAXxMWMU14PCJ7YdjpdJ77hETExqmPj/KhWP4WY2pGjOFq41Ixo5IX+Dw3k8c7Rb5ZzhPcUYho9kJlo5Dv04XXm7FfnQSTE1Jtftrzz/kM0HON14MnXV6PvC7EWoAHlb6hvLZ4/Cjw8mg1bYX4o6CL8vzw+lHd84uHOdQzvo4Il/iL17syMEwzkAAsXoL2sJu685NZANJseGZcnpFsINbjYqwi9hh3jEELQPMmSNzFONIhV6x33GeMK1QyjGzmwsiLNtoL/n4c1v/KfzlPQYee7IFEZLDm6/5hTqPQgV1+rDkjeI/aY7EGd1Jndlzhnv3r82lwY05tIDoLE7nvn3kFC8DXoVrEmORMfAxgXSEE8QYSF65cnVgMWR7PuwFsmgvjNzYwhSWG2FBxmI3tLPjIC+SWMBcETIzrw+0sAnNYaNzysT6/lw9BOAwpRiOCqAqvOK9zIHvm4o7WgXjuvI6sAbyO8dohpvdWNpRnuRMGNsY1nj+8fFyEeG7q/qO0fY/qnusyvnkf9HpiXNiaaBRZAOYcKERgd34iDa/Np97SdOpScpyQuBgvdbk0ZmO8VQJw+8GKBaB5M2KM6OALj1iAB5zm8BKCVVGYuLJ6yo9v3BXrsJZi/onnMWqhFF/THspBCut2iMJqT9BjvX6fLgyxsDsUhTHeVZ+/3vU5Vf3shhDsLE6p9QOeafMqFoCvCwvAsXmdQwKOFApKbhUFYQgHYK2rHnc+TWDTaBicZQPjBBNjcJT3F1fVPkLiL4Qh4YsYh/ISPgthQzuCuH+AlzA2v+NtCRjvOcY+Nn8+OG8ikHkdl147DIB4vRDLEn1PN3KYZ4g6WjlQ3AWRp7w+2jnE/a2vn6btu8/SThjchN9VRrfCyvEgkktS1g7THHKxiDCAEYBxdWcn0oCwo/nJ1KHqXKc1GjN1uDhoYO6Sa8rYVKVZ+kvGvLcANK9F7CMSRIyXWPm17iP68sI/Kg6jA0GWtWrPaeTFEyh/fxF5ej4cAHJox9pdfT0+x605RRhjrRiD/baqfPYuz6QheX835pUHSO5fm9YPsQ6bV7EAfENk3LKwlVPdw7Us/vafYcztZtEXi0EsgXq8MY2gbGA61cTTF+JPBUuO9acjjHEnBA5Ch68hAiVg9rLRKEOYk+AwhhF/588LGJt/Zcgoh3JXwo/qqnj58O6t/+VeWvvT3bT+xztp9Q93dEszdwq+qJ8fFVhDVCu0liiCeN157S38motyT6g8F+MeAdiZHo7y/1Q9MPYLGYk1uXTAs74T43Y1bX0ZAjBuD9ZjLlsAmp+B1vlYw6qq06xrLXkE29oTMIUkjLi+Zzw25TqK53V8nb5U9sxqT1BefRGE5vTAHlcExngvdQn/vDqbBh8up/7NEICLU1qPCQ2VR9q8wqV79+55tX9dWOSY8CQD7x2k3TvP0sb//Catc/3227R7dyUWwF2FxSk3yBupaQpFrGkzH0O8xX02b07WWi0deJDfpOpaYdj2FiZ1dRemyv0plV3mvk7b4vHHQ4G0+HLLAQo/n5+tW35RvtV9vq5frj/nZGEDR3yxgZdr1O/z+OeZy4fFCOCSxzSM6NXt3F4jLkQxhrRabVBMB4FMaCfhtIRJvfIzj60NfM40GrwdVQVETqDJ/5v5x9tp4qPLaXB9To2H6wR7F4cQhCKv/NcvVIiIcYsnOx9M2IA1rw+HH4Q+M87ZG8ZvL6ap39yM26W8H0z0s0eQ9b3JxFLNGq7UiVjbmTNEemwT7XHnadq+n9d+HAHm9LiE+Jvo5dDPKzNp/JMrafLfvZf67y/KJhmLr7E+q72VeQULwDcgn9bH/+XUh1Lum3+4m7b+eC+t//5O2vnmaTp4tpErhIYI9EZqGsdICJZ/KnEW4o0cD4nA2NAxdAlvQ+zpfnXL5+LrGASvXP2uyjPjIVGoHKfDlUgkfA4PCh/34vMIzpMWgTGXJe5ijkrUcXpdwmHzxwi+EHp8bifEHuGuXAqPzXmQ5EyqeA7hsbqtiujQaJ88SvIk44qflX9n/keaz8Lv3KC5wfhlXMdYVxXQWwupf2W2nlVAYzwSuk0YMlVpCUmW+KOgBeOe/c2Y10QHfIhADkFi7e8tUgV3MfWXprQnsPZXB36NpqzfzBH2AUL4956sqXozkR0qohZrf5UXaU6HVtgkFHmh2Evvxlwa//hKmviHG6kfa3B7epDG4utVSLJ5FQvANyVeLYQgp/j7TzfS9l8fpe3PH6bNv9xP2397JC8gnz8K48+hAKbxVIIQERiLKIauwntiU8+V34qgKx/rGvbCEODKYlAikVtO4vhaXK1BPpWT6OsTOhcCcRAGRBjLCiHl98lg+I4Q1P3jn/gxmKzlLozuaxIrpEcFMch/3KHAzZ5EGye89EDkFkO5yvMbVUfFqxdiEJEnYUjBnCIOua/v52eGgGQNGHn7zLmEwwoZweUwg0qICv9k3MdYxziuEzr4iLHJOFYRIozWbcZ8qXDowwnzJmj85zxA1nPW+s7sROpM9vP+0M7r+Xmhmj/aH8oeUB348Tkf/J8SZUi1pgapp5YP8+r5N/xwKQ0/vZp6V2dSK8ZiPlQO8VdsGfMSC8CfARskQ4kS+jvfPk07X8f1t8dp668P09bnD9Le/dW0v7qZXlAV1K+uOQ+wybOAFmEmg5eLjV235eMwBPDyyfiNi/h7vILc0p+nEoUIQXkGY3EeeQnjUhnx+P78s8upMf/zu0e3celvyjd/RzXnOKjBmOXjcivbVvdzzkoWeXHJq1eEHBt5CLjK20e4XC5+s5n2S6VUeQPx7sljmL2GynFRuGgJ8STUs/r95lxTzQ3GJl5t5T9x6sxVjdeaELMihyLj/cbDXXn9+JwmiDFvSIxx7QtcOiiM8d8p+wLz4gcX6+Yxmj/VWs88Ip+7fJw3GXOiVEMqxldnbjwN3l9Mgw+W4lpOQ25DCHaXpnQAoQO4mq3BdcEC8C3AUNx/sp52if3+9lna/OxB2vjtt2nnqyeqmPgiDEgZgn6FzQVCXkIEHifB8vzhBYxrvAi/Id7CHBKKoazy+Qqf44rPx31VldOVheVIeGJQjIzt8gu/C/MtNmGd1IYIy3l38clym3Pw8P4RCpe9fGrnUl3xOXkGy9fkASSfT6GdePp29XgZz2z4lAaX0PNEN8YYY04Mtv7Y/19gD4SN0FueSsNPryj3b/jR5dS/Na9CMO2ZodJMZD+Y78UC8C1QLgXG4bPNtPtgNW2HAFz917+lrb/cT3uPVvU1GYcYn8ZcECTSQgSO8vqOXRJ1fJ5beQzLFR/Lc8JtlyuHlup79Hge91IQalFHBH4fiD+dzJZTWTxzhHuWE9rRx3gA8eAR+hb3VeRFX8seET2e012EIiGd8Vg9js+Vx2SvSf6dxhhjjDk55FEm5BjbIGyFboi9yX+8mSZ+eS0NP76scFBaP4xy/37ITjAWgG+DjEk8BRu7yvvDA7j6f/01bf3pXtq9t5IOnm8ptwhj05gLA+FAxUuXvXbcD9HGbQkVUkiGHvedx/PpWLSrYjFVW4ks/Ipw5H5cPygAEWUSbyHiJOiK6EPU6eMSssOtBF3cR8zxPcWTp9si7v7Oi/gif4ynMT7Kv7PcGGOMMeZkkKjjkJiaARM9FX6Z/KdbaeJX19Pww+XUXppSSwgOknVQLCPDfB8WgG+BDEOMym3KAm+nrb89Smv/9au09ed7aefbZ2nv4Wo6VIN4V4UyF4yy6OqmWoCPf05xHPowc+xr2YOI8MvewHyKl71+I+8ft8e//xhyxhHmiaAbXSHVdJuF4CuXhF25rdAPqW7iH27L/Vc+Z4wxxphTQRFBIfCo8Enrh8HthTTxm+sKAe3fXkzt+By1BbAbZGP8kKFgLADfCrkHwnakYMTGTtq5s5I2fncnbX32QHmAFIjZe0Ao6G48NBeOMcb8OHgDJfSqcM8Qf5U3cdQnsPIifh+al8c9duW2EnnlVverx+q2fL8xxhhj6gW2QYg7ib/FydS/NquiL1T9pBBMj76r5P5xSIzdYKP7R7EAfFswHgk1295Le4/WVQl0+4tH5TauLx+ng5Ut2Zkai9wxxvwoxwu9xJKfJ08l+Ea3+ebvqKZYNdd0g8jjpvpc+VjEndF9Y4wxxtQK9v34n/BOvHz96yH+PlzO1T/fX0r9G/OpszSponOv2AvmBwmJbN6KYqgSssbA7C5OqiElJWjphfOypP0l2Zi2M435afDIKTyz5PFRql5VN7lUkCUuqnV+31V9vXr8D7VpQAHqKr/UGGOMMfUD/Re2NDY1uX+duQn1+lPFz7nxNDbeVWGYH40OMq9gAfguiMFGuBpVhzoLEyEAQ/xxEjE7TGODrvKVKne0PBvGGGOMMcaYH0fij8qfufhLZ2ZczhZCPqn6iRikxZRCP81r41frHYCmexEXFQtbNL2OwdhdmFSCKr1IWpP91Oq3VcFQrmljjDHGGGPMD4P4I8quPZbDP8n/mwsBuDSVI+2ws8PGxv6W98+8NhaA7wAiyFSgonUphF5Hg7EzOy5vYP/qTAzSydSeKiLQJxTGGGOMMcb8KCoKF/a1Qj9nhqmH8FueTt1F0qzGU2uip8Iw2N92sLwZViPvAA1QLnL9KFE76KZWCD5OJ3BPE6fMwB2FgxpjjDHGGGN+GERdCMBW2M9E13VC/HWWp1J7HvGH569TKoYTYWcF+CZYjbwrGHiVCOy2UntqoJOK3s35NLi5IDd1a9jVQPUphTHGGGOMMT8AZrXCP1uqsUHeH1F1/auzqbMwqXzAl+IPE9zG9ZtgAfgO0eCLa6zbUaNKBmj/xlzqxcV9cgGJUyaZVSGjxhhjjDHGmJcU8UfU3KVuW94+7Gg8gO0QgoR/jvU7oWKyU8Xi782xADwJcFcPe6kdA7R/fU79STi5ICxUJxadVn7lPV6NMcYYY4wZUaVV0dqB6Dmi6gj7VPGXhQnZ07KlLf5+NhaAJwCDlmIwY/QqmZ9QEZgOJxalKiiNKhm4Ot3wuDXGGGOMMSZD6CfiT5U/w26eGw8bOuzouOVjnCyuqfF2+NU7CRB1nFz0cihom54ly9Opf3Uu9S7PxECeSGP9bh7gPrkwxhhjjDFGyJGinn/DXFCR0E96a0/0VFBRBRfjMbahfz4WgCeAXNch7sZoDl9il7tL06oISkgog5lTDUTiCw9eY4wxxhhzwaGtWhjRWeDhQKHn35Xp1L0c19xEao+XCDq8f7af3woLwBOkGsiUryUMtH9zPvVuLagtBL1LxjrtEgbqQWyMMcYYYy4o2MK64v8QeQr9pPLnzbCbr88pmo6efxJ/5q3xq3iCyBPIYO6MKfevgxv7Co3hp0oMc1cxzipjixA0xhhjjDHmIoGtTFoUkXP9jqrm4/3rX8mRc9jOFH5p9cNutr38TrAAPGFexH9j9DAZlCpGs+PKAeyOCsL01DeQgW+MMcYYY8yFIkxgWqSR94dtTOX8HmGfOE2uTKcOlT9p/G57+Z1hAXgaxGBVVdBhVycYVAPFG9hdnIqPBwoR9YA2xhhjjDEXDbx6yvsLO7lDu4fLM6l3ZTZs5Un1/yP8E3GY2lTQt3R5F/hVPGGqgjCX8AKGCOzgBVRSaznVoCLosKevG2OMMcYYc6HAVm6PpfZkX1XzKZrYwQO4SMrU4GXKlIq/lO8xb4UF4GlQYptbtIWIQUz4Z+/6bOrdmFN/QArCWAAaY4wxxpgLR9jItE5rTw3lIME+Ju+PiDk5SUaVP8vjzVtjAXiKvGCAkws4N5H6txZS//ZC6izngjBjMbiNMcYYY4y5SNDTDycJ3r7BjXnZyFTMp24G7dTMu8cC8BQhFJSBLBf34qT6mvRCACq5FRf3eE9fd38TY4wxxhhznsHeHeu11fMPO7i7MJlrZMTVCfGXe2bbHj4JLABPE0RdDHbimNs0h4/BXVU64qSjCgdNbgthjDHGGGPOMeT9UQwRRwihn4qKm6VCfj/3/JM9bKlyEvhVPUXQf/ICUulIfU4Y9MUTeG1Wt/Q+4TREVUGtAY0xxhhjzHlBxnDcYg+XsE88fuqTvTydOjO5T3YVEeeAuJPBAvA0iVEsz17xAuLaJh+QQd+7PpcFIKGggxj4neIF9MA3xhhjjDFN55j4I7TzUj9s4RB8CvukMv7SZHaE0DqNwi+yg20InwQWgKdNEYGKe6YtxOwwl7wNAaiyt3PjaWzYkUBkgtBGwhhjjDHGmGbzYuQIwcOnvn+0RlvOHsDe0nRqTw5kA1M40eLv5LAAPENUEGYaATiVBjfnU/96CMD5CYWGEvs8Ov0wxhhjjDGmyYSgexFmrVKhws5tUQ9jgVoYIf6uhg28OClR6Ny/k8ev7lkS4q41IP55qARYJoC8gbjCS4N4nYAYY4wxxhjTYHBqtHB+kAJVCiGq4if1MOYnU3tqoLzAHAFXvsmcCBaAZwmDW/mALVU8wg1OGGjvxrzyAVUCl4lgjDHGGGNMk5Hjo5vaM8PUD3uX6Dei4Lo0fB/vpkth8+bot7H0onyLORksAM8Q8vvGWi2dhjAhWtNDucB712dVDrcdglBlcBGJeAJ9GmKMMcYYY5oEJmzYsjg1CPsk3Qlbt3djTtFvVc+/sW6reP9cA+OksQA8SxjcjO/KCzg1yD0B8QLSD4V8wPG++gLqMRaBxhhjjDGmKYTdOoYN22ml1rCX+/4tTqbBzYXUvzGfe2BP5cqfl9pV5c/yvebEsAA8axCBY0yMtvqe6FSEXEDyABfKpFA/lJenIsYYY4wxxtQaTFau9phsWVqdkffXJ9otxB8OD6LdSINS3z+JP9u5p4EFYA3QWEfc4RrnZCREYGdxKrVDAHKfIjFj9Abskhjrt8wYY4wxxjQA7FZSnUL80e+vcyW3PqPyPfUuurMT6VI/F34xp4fVRB0IBUjCK2Vv1QR+opf7osREUU4g+YAz43mCtDgdyd9jjDHGGGNM7cBMVehniL/xqt1DiD/aPSxPpTbODjk4OgoPlffPnBoWgHUBXcfgJ0lWBWEGEn799xdT/73F1FmaTK3JvvqmkEhrEWiMMcYYY2oHNm3J+7vUo8ZFP/Voc0aNC/X7m1LRFxq+v6xxYZv2NLEArBPyBF5SHDSnIpTGHb6/pAu3eTtEIaGgKgoTj6NErsvkGmOMMcaYuqA2DiHscFqQ30fbBxwZXcI/aXM2Ny579mWVe4u/08YCsI4waYbd1F2cSv1bC2lwe0EJs505qoKWE5OYMMwXF4UxxhhjjDG1IWzUVog/ihtSzJDwT/L9VOF+cTJ1QhDi7HA029lhAVhDOBGhHC65gN2FCcVKd5enlROoAjHTQ/VSyfHS9gEaY4wxxpiagABUOtNQoZ/dy9mOpeKnxN+wp7oX5uzwq19DdBgSk0clcUMIUgWUcFAqJhE/3QlRiOv8RXYB5m8yxhhjjDHmjBmj8MtEP/WWptPg1oKi2Xo4MWZy6OdYh9ZmIUFsw54ZFoA1BJ+eqoK2cKGHAMQTWFUEvTqjfEC8g1XTTMSiJ5ExxhhjjDltSEciKg2v3qVuK7XGu6k9O56rfqrlw3xuaxa2K19X7p/N1jPFArCGKK+PiVFEIKclagvBRLo2m/rEUMfHLSYSrSEQgZ5IxhhjjDHmtMEGRdRR9GVqoFBPItdU9CUEIPYr4aDZ++fcvzpgAVhTqtMURCBVlDqzTKaYSKUvYHdxUlWVKAozag1hjDHGGGPMaVK8fwi8VtimRK3JaRE2a/9qtlk7IQzHeqXhu8XfmWPVUHeYJ51WasXEIfePCdUNAdi7HNfiVG6i2e+kF55QxhhjjDHmNMH0rGzV8Z5s1Y7EXwi/K9NKW1Lbh2FuY5YLGJqzxgKwAagqKOV0J/ryBBJT3b85n3o35lM7JhrudnIF86lK+SZjjDHGGGNOirA5x7BRu+00NqBo4SDbqNfn5P3rLEyqkCGeQTWFJ1rNzopaYAHYIMbaYzpdaceEGnywlIYfX079G3NKrGVySQBaBBpjjDHGmBOGgoWJWhVUrJ8cqN+fir6Ebaq2DyH+3O6hnvhdaRIh7pQPODPMxWBuzum2tzyVOrPDXBSG1hE6YSnfY4wxxhhjzLsGu7TfDfHXT+2wQ2nyTp2K3pXZUbFCtXwwtcMCsEFw0iI3+7BUBV2eVnItbnbyAruLU/IQUhVUpzLGGGOMMcacAGNhbyoyjfQkChVii5aG76Qn4RlUZJqpHVYJTYI5RKx1TKgWrvb5CU02XO2DW/NxPybd8SpLxhhjjDHGvEPoV61cvk5LYZ7k+qlAIQJQeX9hiw67pT6FpUYd8bvSJEprCJq/q9HmZD+3hrg5n4YfLIUIXNApzFi/nWOurQGNMcYYY8y7AuEX14u4UYHCmRCAFH65MZ+6FH7B+zfRz84IpyTVFgvAplFEIG53Jd1WVUFj4uEJ5H5nbkLx2DTkdH9AY4wxxhjz1hBdRkHCQVcRZxQh7CxP5VQkUpKWp+WcUH/q0vKBvtamflgdNBnCQQed1JoepPbipE5eEIH967OpU3oEMlGNMcYYY4x5G9SWjDSksDvp8acItFsLaUDVz8s5908tH9qt7Ck0tcXqoMHIE9hrq/QuLvfOUi6/y9VdnkrtmeHLfEDmoSejMcYYY4x5E7Af+Z+iL0OKvgzV60/1J+K2szwtbyDRZ61+bktmk7PeWAA2mCofsCoKw+Tr4YK/NqOTmBb5gIMcgz1qDeEZaYwxxhhjXoci/pTP16EfdTd1F8LevD6b+rcW5AnsxMdEnV0Ke7QK/bS9WW8sAJtMTC6E3aVOS/HYndkJVWFSIq4qMU2oPC+9AV8gFpmQuXaTMcYYY4wxPwmtxbA3c+5fP3UXJ1P/5rwuihHSnxpnhHr+Wfw1AgvA8wATrT2Wxsa7o4IwA8JAF6eUpNviRKYTIlCnOJ6UxhhjjDHmdXgRtuML9aFuDTpq8dBbnkrD2wupf2te3r8xnA2uOdEo/G6dB9B1rRCAvZiYIfja8xO5PcS1XBRG7vnZccVtjxJzLQSNMcYYY8z3gZ04RtV5Cg52VWuCPn/YllykGtGPmjoUud6EJUWT8Lt1DqDErjQdYZ5K0I2JujiZBu8tponf3EgTv76eK4POZhd97stiEWiMMcYYY76DbMS4xV7stlVUsHdrIQ0/uZrG4+rdXEgtKs3H1xCIsj9tUjYKC8BzhHL8OK0JkYfHjxOa4ceXdVGlSeV5lRPY0qQmG9AZgcYYY4wxZkQRfyoyONFP3YWc8zd4fzH1bi+o7x8VPwkLpcYE6s/2ZLOwADwvFI8eIpAJOTbRS92lKfVowROIGFRvwJmBPISpxeP5Fma5McYYY4wxYRuO5bSisbAX27Pj6jVN24eeek3PKe9PaUWIREWV2Z5sGhaA5w0mYExGKjW1JnOlpu7lGcVt9+Ni0pLA2+q1NcGNMcYYY4wZ0bqkNmJEk+WaErmeBI6FzlyIv4l+Sp1WjjzD+WDx1zisAM4hzEOdyqhiUzd1qNh0mQlM8i4nN5M5F5D56jlrjDHGGGMKqidBJBn1JG7N60L8taeHsitpP1aJP9NMLADPI1KA8X+IQPUIHO/J89e9OqvGnXgDaRrfoUXE8YlsjDHGGGMuFtiNYQdiD+L5I1IM8de7OqNUIupIYDfSBJ46EmMt7EZLiCbjd++8UkTgqCjM3EQIv9wjkL4ttIfoXJ5KrZmBJrsqPRljjDHGmIsFJiPVPBF/8+MK98RO7N9akPcPIUizdzkNSs6faTa2+s8zIQKrRF6d5ixNpf612TSgMAwNPJXIO6lY7pfu/PK9xhhjjDHmfIPpR9oQtiK1IyggSK8/HAYhAkkd6sXnWqN+fzYUzwMWgOcdJnZ7TCJPXsDLxQuIAFRM96TE4RhFYVq5iqhFoDHGGGPMOQd7rwr97LdlD6poII4CQj8Rf8tTqgSqCvKl559pPhaAF4EyuZm87RkqOk2pNQRXn6Iw8xOpPUF/wHZ+rEWgMcYYY8y5higxCr5c6uWiL0SF4SQY3F5U3l9veTq1pgZKJVKkmMI/bSCeBywALxK4+BXfPZHjuj9YUlEY3P2t6WF8ravKoQhAl/Q1xhhjjDm/YO+NdVupPd6Tl09RYrfDPpSDYDY+F7YhzgFz7rAAvEBI2MVEbhMOujCZeldm5d7vUuXpyowqPnECJE9giEULQWOMMcaYcwRBXth3pP0g/qYGxSYMW/B6tgmJFFPYZwhDFwk8n/hdvUioKExc7ZZy/tQofnk6DfAGvr+omG+8g+QL8nVNeus/Y4wxxpjmU8Qfjd4vdagP0UsdCgSG/dd/f0ktH7qLU2mM4oC2A881FoAXDTx6RQSSE9hdmFA10EFMfFz+vcszqT0zTGPxNU6GeOyL+DYuY4wxxhjTTNS7j3QgnAD0iJ4bV4sHpQWFHUj+X1XwZaxUh3ck2PnEAvACQ1y3Yr6vzaY+4o8r7tM0vkr65ZRIpz8sAF4EjDHGGGOaByZcWP3YfmPDXmrNDFN7sRR9ea84AbABqQlBKpAbvZ9r/O5eZFpjOgGSCKTsr5p+zisUoHt5OnXi85d6nVHTT3sCjTHGGGMaBmf4ePNo94Dnb35C6T/DD5ZTj0bvFARcznZf1ezdZ/7nGwvAiwyTu3VJnr4qH3D40eU0/PRqGo9FoUs46ERfQrESgQ4FMMYYY4xpCGG3veBCANLsfWYor9/4r2+kiX+8mcY/DBF4eVpN4Ftq9J7FohXg+cYC8CITk/tSqyVXv/IBaRR/bS73f7kxp1CA9vy4KkSpB0y7Fd9TvtcYY4wxxtSWUeRWizZg3dSeHqrIC/bd8IMl5f11r8woHJQ2YSoOw4G/Off4Xb7AyJuHoONUKETgpZj8JAR3lia1OPSuERY6n8sBhwhsIQK9MBhjjDHG1J7KzlPNB9o9zE/IputdnZXwo+YDorA17OWG8JXnz96/c4+t+QsOi4PiwjkdCoE3RkngEIGEg6o66K0FicDO3IROhy61c39ALw7GGGOMMTUFU63Yd62w3xTldXk6iz/qPIQY7MyMq+q7CsMoysu23UXBAtBowmuRoDVEiMD21FCnQgoHfX8xDd9bTN2lqdQhFLTXzl5A1ggvFMYYY4wx9aKIP0I6W2G3tSd6Yce9jO6qIrt08E+7h8quMxcGC0CTOSYCWRAUJ67moAtqDNqPRaOqEDU2zJ5Ai0BjjDHGmHoxRlQXwm+ynzrz4/L49a7Pqdp79yrtviZVBT4R1WXxdyGxADR/Rw4X6KpSFIsGbSH6t+NSqeA5LRwqCsPpkhtDGGOMMcbUB+y4iRB/i5OpR5P3D5dT//1FNXzvhwCk/dcYbb7GxmzFXVAsAM3fE8KOk6Ox8RCBsyECSRhWj8CFXB30ymz2BNIrhuIxjhs3xhhjjDkTRvUc8OiF/UZrL3L8yPcbvk+1zxB/N+fV85nPtyaK94/vs/12IbEANH8Pa4HCBzoKEaAAjBrF4wlEBF4PAbg0pRMkTpgkAgkhMMYYY4wxp0ux2xB/7emBIrUI9ZTH773FNHhvSRFdHOpzuP9KPQdzIbHVbv6O6iRprB0ikMpQsViQD9ilLcQtwkEXX7aHiIVGvWM8kowxxhhjTp/i/dOhPa0ers7k+g23F+T9G8R9+v/hGVSEV9XywVxYbLabH6YIQSqDsqDQFoKKoAoleK94AgklCIF4qVOaxBNK4HACY4wxxpiTB7MLAdhtqehL9/KUDutp9D78cDlul1P3WkndoX6DI7ZM4FFgfhxEIJVBKQozPUydxSmVER5ICC6FKJxN3cVJeQJbw26OKedUySLQGGOMMebEQMyNhfAbw/MXAo/0HKq3c1ivip9XplN7bvxYy4d22Gg2/Y0FoHkDVB00RF53YVJhBcOPltPggxCB5AVemYlFZiKLwBYCsHyTMcYYY4x599Dnj2qfCvuczRU/31/SLdU+u7MTSuUx5rtYAJrXZ4zqoPQIHGhhqYrCqLIUfQKXSnx5v6NFSSEJ9gQaY4wxxrwbOGPHvuJQvt9NY1MDef6ww2SPUa09bLR2iEJqOKhvszHfwaPCvDYK7aQwTOkR2Fue1iJDcnEuL1waxQ86EopUpLIn0BhjjDHmHVDEnw7ZO2Pp0qCdvX/q2bwge6wX9/nc2ETPOX/mB/GoMK8P+YCxkFDwhUUFb59E4PW5NKgqgy5MFC8g/QERgFaAxhhjjDFvi6KqiMYqdhi1GYi+wg7r3YwrblWcL8QfBfzcp9n8EBaA5meDl68zNz4qCkNeYDcEYWdmmNrjvVwZlJMqY4wxxhjzdlQH8WrRlQu/UINhQNVPKrRfn5UobBGF5WIv5kfw6DA/GxahsWEOB6UnYI4/n0uDmws5BCHEIUVhJARZsIhZ90mUMcYYY8xrI/uJKuv08JvoK7+P1lzUYVDY59XZ1KEie9hjrUHYXdhcNrfMj2ABaH4+LC6EIvQ6WpAQgcOPr6TxX11L459c0YkU5YcRifSncU6gMcYYY8wbEHbTpRa2VlspNgg92jyM//pamvjN9dSP+yrCN95XmwdFXmFrWQGaH8EC0PxsXvDPWM4JVHuI+Uk1Hx18uJz6hCLQHgJP4CwhoRaBxhhjjDGvBeGeeP7w5nVD/E30FFlFFXbaPEx8ejWNf3w5V2GnDdegK/GnIjHG/AQWgOZno3BO/o/FSV5AisJcnlFF0P7txdTjlnLEiEDyAqtw0Op0yhhjjDHGvEqxr3Rojo1F9fXZ8VztM+wqNXrH84eNVVpwYV9J/Ol7bWSZH8cC0LwVVUUqKk2pMij9aChJrKTkhdwo/vaCetSoOmivnU+znJxsjDHGGPN3yLSS+Muhn7R06F7OdhU2FQfsFH8h8qo1Oci5ga68bt4AW+Hm3cCBEydPcSkcdIFw0IU0/strumgR0SZEIb7W6oYIZOR5nTLGGGOMeZUQci/CThrrttRbuTs/IfE3/OiyLpq9t6aHir7icSPPnzGviQWgeXfE4qN49U4sWJxWLU7GIvUyHFR9ai5Pp/ZsLFpUqaKiFc1M+R4vXMYYY4y5qGAH8T9RUp2x1KbaJzl/qrAettStsKNC+HWvlEbvIQzVED5sKNVkMOYNsAA07xYWsLGxNIaXj5j16YF6Aw7eX1Ky8uDDy7GQLSiWXSKQmHXCHKz/jDHGGHMROSb+UvuSxB/VPqtIqolfXddheu61PK6CL2Nq8p6/14fo5k2xADTvHHn0YmFqkRNIo1L61dyYT4MPlnPows353K8mxCEtIlIHT2ARgV7EjDHGGHNRGIm/sJ26YTuF3dSaGajgy/C9pTT+6dU0+GhZ1T7xCF4Ku0mH7HgKLf7Mz8QC0Lx7WJCIR2dx6oUInOwrZIHE5cH7i2n4/pIamHaXpkMEDlNr2EuJcFC+h3XMi5kxxhhjzjsj8UfYZyuNhT3UodrncthMYScN3luU+COKqrM0mdpTg9QedHN1UNtL5i2wADQnAyIwFihCFKgOitCjVHH36kzq3ZpP/Q9Z0BZT7+psas2ECCwLmkWgMcYYYy4C0n/YSvT5C/HXnRtXvQSEH20elPcXdhI1FRB/2FMvbSXbSebnYwFoTpayuCnXb9hNHaqD3l5ME/9wI0384021iaAwTG4REQsb4aNa05zSbIwxxphzjA7LL4Wwa4fA6yvsc/yTK2n819fTMG4ppNeaps1DR6k17qNs3hUWgObkKSJQOYGEgy5OpgHhoKVHYK5qNaNcwfZETydheA6VS+gTLmOMMcacF7CJsG84HO+25NnrLkzI06f+ye8vygNIzh+H5u3xfqmaPpbGxuLWdpF5B1gAmhNHixXrVSx4rV5HhV/aM8Mc485i98FyGnwYYvDWvBa7sfGuFsVRjLsxxhhjTNMp4k/tGzoh/iZD/C1Npd7NsIXI9ftwWV4/CuV1SI+hUN4rNRLyjzHmbbEANKeCKlWVRQ9PoEocl/42FIWhOiinXt3lKYnDsfHeqyLQi54xxhhjmkrYMdkOGlPKi6qkU/AFzx920MdXFBlFGKhaZckOytU+FSpqz595h1gAmtNjJAJzTmALERiCj6IwQ/UIXFa7iFwddKCTr1f6BHrtM8YYY0zTCPvlpfhr51YPYee0Fydyk3fCPj8KG+i9RXkE8QwiEkf2jzHvGAtAc7oUEahY9lgEFfu+OKnYd8JB++8vvRL73prInsAqJ9ALoTHGGGOahOyedtg9g05qhd2Tm7zPp+EH2Dxh+yACww6iFgKH49hHYyX0054/cxJcunfvnsstmjPhxdFRSodH6XD3IB1t7aX9Z5tp995K2vn2adr9+mna/uqxbvefrKejnf10FI97cXAU3+cha4wxxpgGwNm1xF9XLbEQfxxyqycybR7iPjURKvGnhvDy/Fn4mZPDAtCcHS9i6PG/RGAIvBCBB6vbae/hatoJ8bfz5ZO09dcHIQqfp8P4/MH6dgjBYyKQ7zfGGGOMqRHHi9/hxZPnb2Y8daj2GYKPSujk/JH2Qj0EvIKEhRLxNPL6WQCaE8QC0JwtIeIk5uKSCNzZTwcreAKfp707z0IIPskewfgYTyAC8TCE4lGIQL7HItAYY4wxdUIpK62x3L6BVg8zQ6W60OS9fyOum/NKd+lQ84D2V/2OCr4Q9olV47BPc9JYAJoz58XIE3iY0mEIwc3ddPBsM+09Wk17D1bTztd4Ah+m3Tsraf/xWtp7vjXyBCbCSDlmsxA0xhhjzFki4fZCTdsvdcYk7FTtc2lKhe4Qfcr3q8I+Z8az14/Hu+CLOUUsAE0tyCIwC8EUwk6ewI2ddLi2nXa+eZo2f3cnbX3+IG1/+zTtPV5Ph+vxte29dIlvkSdQP0Q/yxhjjDHmVClhnwrhpIL5oKNqnlQ1p8H7xG+up8FHl+UBVL5fCEMqfeYwUYs/c7pYAJr6EUKOvMAX+4cSgrv3n6fNP95L2399mLa/fpz27q+m3RCBRyECjwgbLcVhFBJqjDHGGHOaIP4U9kmv424aG4b4mxlP3RB6ncWJNLi9mMZ/eS1XOb88rZy/Kj/QuX7mLLAANLWjCgmlQuhRiMDD1S3lAO7efZZ2yQu8s5J2v437D1fTwfPN7A3c2pdgNMYYY4w5VSrxN+ylzsxQbaxo6N69OpNz/q7PKQewuzAh8Xep30ljrvRpzhALQFNP0IDk91EcZntPoaDKC6RCKCLw66chCFf08R7FYcgL3A4RGKIxF4cpQtIYY4wx5iTAgUexl04r5/tND1JveTqLveuzaUC+X1xq7j49TGPDbi740m7l77UANGeEBaCpL8UT+OLgMId6btIrcCPtPlyT+OPaufNUhWL2H61JBFIh9MXeYQ4hdUioMcYYY04IVfnstZXPh2cPoUdrh16IP3n9rs2GGJxRFVDy/ZQbiOeP8E+LP3OGWACaekM+IEIwxBzCrioMs/80hOD952n76ycKB90r3kA+f7C+o3DQF4ce2sYYY4x5t2BdIODGEH9T/dSeI9ePBu8zafyD5dRDBF6e1ue68TU8fy/w+JViLxZ/5qyxADS1BwHIUimvXoi6F/sHEoOEftIiYvtLmsY/Tts0j//mmUTg0fZeLgzj0W2MMcaYd0WItywAU2pN9OT1616dTf2bcyryMvz4cgjBudSeHab2RD+Nddu5J2A8vhKOxpw1FoCmsRysbecw0G+eZvEXIpB+gVQJxUt4RMP4Eg5qjDHGGPM2VA3eU3tM3r/27Hga3JhP/Vtx3V7Iff7iUs5fiD9CPo2pIzGKjWkmnKoRV098/fD9pTT86LKuwXsLqr41RqUtL77GGGOMeQeQv0cRF9ke12bTOM3dP15O459cUaN38v+oAkq+HyGfxtQVC0DTXCi5PNFTuWXCLfq3FtLg/UWdwrEwdxcnU2uynytulcRr99wxxhhjzGuBuYDZ0A4bopubu6vS5+Vp9fYbfLCUhh+E8Au7Qw3esTto8I7NQb6fMTXFIaCmsdAmQnmBVXGYZ5tqEUFRGIrDEBq68+1TtY84pEXEXm4Yr5BQRr3bRBhjjDHm+yjiL4WQI+KohfibGqT2/ETqX51JvZvzaXAzhN/1WUUddRanUouwz1Z8k4u9mJpjAWgaTxaBB6r+SQEY2kJUAnA3bvn4YGUr7a9tq6dgrhB6lC555BtjjDHmuxTxR+TQixBz5PN158dzwZcrpbn7rQU1eu+G8FPBlxCHhH4a0wQsAE3zoVUEIhDv3u5+2g+xt3tvJe18+yztqDIonsBnae/Retpfzb0CL9EjUA3jPfyNMcYYcwwEIMVeWpfSWLcT4m9ChV4I+1TBFxq8hwjEG9ga76sgzKjHnzENwALQnA8qIRc3h5u7af/Jetp9sKr+gNvf4A18FqLwedp7shECcTMdxWMQiyMRqJvyM4wxxhhzsbhEc/Z8qyqf/Y7697UnB6mzPKWCL6r0GeKPugPd+BxevxeIxFYri0ZjGoIFoDlf4A0kJ3B9Jx2ubqX9Z5tp7/Fa2nu4psbxu/dX5R2kfcTB802FjiZ6C+JBRAwaY4wx5mKB6ON/isVRYG68N2rurpDPa7MqLteL+4SBdvD8hfgjL5B8PxWYM6ZBWACac8eLg0OJQPL9CPc8JDdwZTPtP15Pu3eepe2vnqRt+gU+XJW38GhnPx3tIgRDBBZvoDHGGGMuAAi/EHAv4mr12mls0E2d2fHUuTyttg709etfJ9xzPHURhbR5oNInFcbb2fPnYi+maVgAmvMHXsAQc4n/9w+yGNzaVYEYwkC3//Yobf35fq4QijBcLU3jQwgmKosqLLT8LGOMMcacT9BtIfwutcdC/JWQzxB43eUQf+T5EfL54bI8f4R74hlshUBMVb6fxZ9pKBaA5nyDlsOzt3+YDta2X3oBvwgR+NVjhYMSHoo4PNoMEbi7l8Ujs8IzwxhjjDm3SMSF+LvUa6V2iLvOPCGf06l3fS4N6C0cF+0e6DeMxw8Pobx+Dvk0DccC0Jx75NGL63BnP72gQAxevycbKg6z/dmDtP3lY1UJpXAMIaPqF1iJQGOMMcacS9Swvd9OYxMh/mbHJfzGP72aBu8tpt7VWeX7tefG1QYCL6G8hYg/e/1Mw7EANBcDNKByAw/UFF6VQh+sps2/3Es7f3uctr96LE/gwfPtdLC+nV7sHqQjFYhxcRhjjDHmXBDCDQGnZu3tVmoNu6k11U+duQmJPdo8DD+5Iq9fd3EytaYH8gzS4kHfi/Cz9jPnAAtAc3EIIYdnD2F3RKXQlc20VyqC7tx5piqhNI3HO0iFUEJGDzdz43hjjDHGNBtCPse6rTQ26KQW7R3mxlOH5u6Xp5XnR3sHvICIPzV2D4GI+BtrjykoyPl+5rxgAWguDhSHQQTi0UMIbu9nofdsM+0+Wkt7IQBpGq82EQ9X097jdX2Nx7HyvzgiLJQ75ecZY4wxprawXVdeu0u0a+iMyaOHZ6+7OKVKn73rucVDP8QfbR8IBW1N9HOVz1LsxW0ezHnDAtBcLBCBjHj+CSEobyCtIta20+6DEIBfP03bXz9RhVAqhhImekCV0P1DXVQJzc3j848zxhhjTA0J4aetGvGHiAsxh/hrh/jr4fVD9NHUnWqfN+Zypc+Z8Sz6Rvl+rvRpzicWgObCI3G3vZf2n+U2EVQJ3f32WfYGxn15Atd35Ak83NmT99Ai0BhjjKkpVa4etyHkxvrd1FKhl6HCO3tXZ1L/9mIWfiEEaftApU9yAo25CFgAGkNY6MGRGscfrG2pGqiEYIjA3RCB5Afu3F9VOOjBRghBicCYNohAY4wxxtQLxB9hm3jxOm3l8+Hho8UDTd0l/G7Np/6VWYWDdsj3G+R8P2MuAhaAxpTcwFFI6MZuzgF8sCoPIC0idu6sKEQUL+Eh3sDNXRWH0fc5L9AYY4w5e4rXjxDOsV5bom5s2Evt+Yk0QPQh/sj50+2cWjzk/n6dlJzrZy4QFoDGQJUbeHSUjnb2lfeHx4/wT8RgVSGUVhF7iMO4DmkXcXCUewZKCOYfZYwxxphTJrSbBFzrUmoh+mbGUyeEH1U+e5dnVOmzszyV+txS7CW+1p7sqx2EGsLz/c71MxcEC0BjvkOVE0ivQLx9B8+30t7TjbSLACQ09JunaetvD9UugnBQWkqkSgjaG2iMMcacCqO+fFzk+lHApduS+COvT54+cv2uzWbBNzuMr8U1NciVPnvtLBot/MwFwwLQmO+gVhEh5l7QOD7EILmBR5t7aY/cwG+fpe0vHqXNP9xRbqBE4lZ8fWdfTeZHjeM9q4wxxpgTJTd1H5PXj1y/FuGc493UXphI/VsLafjh5TT+y2sq+jJG+4dhVyGfYwr5DMEoz5/Fn7l4WAAa8wO8qLx5IeoOd/fT4eq2wkC3v3yctv5yX60i9p9tpv3nW+lofScdbsQVYjDhQZQ3MP8cY4wxxrx7lOuHoKOx+3g/taYGudLn5ekQgPOp//5SGv/kSuotT6dL3bY8hM71M8YC0JgfRSKweATVOH51K+0/3VAu4O79FTWNr3ID9x+vp70nGxKCo5BQY4wxxpwIiL/2zEDFXDqL5PpNp97V2dS7Qr5f3Cffb2lKIZ9j7RB/eAwd8mmMBaAxPwYCkG1CYaEh6o52aRy/GyJvVyGhO3eept27IQTjUn7g/VV5BckhJCT0ZYGYUmRG/xhjjDHmjSj5fmrqztVppdZkP3WXJuXx616ZUU8/qnvi8euEKMQj+DLXr4R7WvsZYwFozGuBgKtyA2n/EBfewL1Ha7k4zP0QfyEAaRnB5w7ja7l5/J5E46X43lFYqEWgMcYY8/pUwq0doo+Qz2E3daaHqbswkTqXp7L4uxrXldnUQRDOTUj4tQbdlEIojrVD/FU/xxhjAWjM6zLKCeQ2BB3FYQ7XtuXxwxuovoE0j6dlRIhAGsqrb+Dm3kg0Kpz0yPmBxhhjzE+BXmO7lPcOrx8hn5N9hXz2Q/SpuueVaXkAafXQmR9XBdDWeE+FXsgRdMinMX+PBaAxb8AoJDRmjcI7D6gSuq92ERKB91ZUHXSXxvGEhsbH+yuEhO6nF7v7ajSfRSA/IP9MY4wxxnyHSrfxT4g/BN3YRF/tHGjmPvhwOQ1vL6QO4Z9LU6kbn6fS51i3PSr0YvFnzPdjAWjMW0K7CMI88QbSOF6ewJIXiBjce7yWK4VSJXRzN73YQQgeKqfQGGOMMa8i8RYi7sVYUuVOGruPTQ4k/uTtuzGXxj+6nHohBLuLU6r8SaEXKn0aY34aC0Bj3hY8eojAEHbk/R2sbqeDZxtpN8SgKoM+DEH44LnuH1BB9NmmHvMiRKPzAY0xxphXudTODd3H+u2c7zc/mQu8XJtLXeX65QtB2JoIcRiPITeQ7zPG/DQWgMa8LSHiRlVC9w5U+AVPH0Vi6B24S6EYqoRSKKa0jMBTiEeQ70E8Khz0KO4rtjT/WGOMMebcoxDN2PjiVk3dxy6paifhnHj12jNDtXPo315M/RshAEP4dRcnU3t6mNoh/tTf71jYpzHmp7EANOZdUInA4g18sXcoIXgQIu9gZSvt3M/9Avfj2rm3onYRhyub6aAKCd09SC/2nR9ojDHmAoH4Q7Mh3IrwI9yTQi+tEH4K+aS/HwVfbs6H+JvWx+3pQRobdFOr14nv4/vjH36U8/2MeS0sAI15x0gEVu0i9g6KCKRS6Ebaf7SWBeDdFd2nqTxFYigio96BfM+oXUT+ecYYY8y5BNFGrl9cldePYi54+GjgTqVPtXigwictH+YmUnuqL/GX2vE9rZZ+hjHmzbAANOYdU4Vx0u7hErfkB4YQpHk8QnCXnECKxNxZSdvfPFFoKPmBKhSzs58SYaGVF9A5gsYYY84jeOsqz1+/k1rDbmqH+BvcnJe3j3BPir30b8xL+EkgdttqAM/3uMKnMT8fC0BjTgl5A9d31Btw/9F62rn7LO188zS3jEAEPt1IB2vb6WgrN4+XN5D8QMSgMcYY03AUosn/qvAZIq6XhV+L3n5Vrl8lAK+Xgi9XZxUSaox5d1gAGnNKVJVCVSBGQnBTYaA0jVdhGN2uZiG4upXFYGkib4wxxjQdee1a5Pp1cg7fdIi+5anUWZpMvSuzqRv3e8vT8gSS/9eZHc/5fv1O+QnGmHeBBaAxp0RVIIZwUIrEIAQPQ+jtr8QVoo8KoTSOp1jM3qMiBONrL2giT04hVUIVGspVfqgxxhhTR6rwTDx+ePvI8yOEk0Iv473Uoq/fYgi/67Py9nHxcWdmPI1NxNdp6j7ouL2DMSeABaAxp8SoxUMRcoSEHoa4Izdw//lm2n8SIlAVQp9nEajegRsSiXgOj3bjqorEVDmCxhhjTN2oQj3HxtILnH7k7yHmJPz6auFAXp8Kvdwg3HNWoZ6duRB/g65EIg3gL7XHcmsI5/oZ806xADTmjJBXj4IvuyEEt/ayCHy6oVBQiUBd2Rt4+HxLYaPqMRhikO9zbqAxxpg6Unn8lOcXQq41TjP3idRdmFR4J7eduLpL0znsM4Qgn1dTd3r68X2Ei1r4GXMiWAAac1aU3oEIOXn24jra2UsHq9tZBN57XqqFPks73z5NB6VSKG0lEI0SgcYYY0zNkNeONg3dlqp3IvZ6t+bT4NZC6l2bTd3LMyH+ppTj15roqxAMj0Ms4jVUaweLP2NODAtAY86S0uZBNwoRfZG9gRSIeVw8gXef52qh91ayh3BlMx1t7CosVAVi8CQqR9BT2RhjzOlzvLpnamfRN0Z1z/GuKnh2l6dT//3FUXVP+vq157L4e8Xjl39YvjXGnBgWgMbUAPIDqy3viAIxGzvpcG1bTeIl+lQYZi3tPV5Pe0/W00F8jq8drO2ko83d9IIcQVcLNcYYcwZUIZ+X+p3UnhqopQMCr7swIU+frsvTucjLPIVehmkMzx/VPR3uacypYwFoTM04OjhUgZgqN/CQlhEIwWebIQDX5BmkbQTN4xGEfA2xKI8gBWJwJKpIDFf8QLkXjTHGmHdACDVpNW5DuL2IWwq2pM6YxF83RB4eP3L7+ldnU/fKjD7XQhjGNabqniXkk+qe0n4Wf8acJhaAxtSNEGxHIeQuhYgjz4/qnwhB+gLu4fl7EsLvwXOJQDWQf7KRDlcoEpNFIG0mjvYpMJPDQ10sxhhjzDsBocb/ePvo59ehrUNHffpU6AWvH4LvyrSqevavzabetTnl+qmyZ7eVLsX3JH1/zvWz+DPm9LEANKamVG0jlN9HgRgqgK7vKAfw4BlCMFcM5UIUHpA3yNfiMfQYPKJ/oIrFODTUGGPM26NQTcRbJ+f50dZBLR1o2B4XIZ7dy1PyAKrBOx8vTSvXL4XeG2tlj192IRpjzgoLQGNqzHERmAgN3T9KhzshBEMMvlDriK1XCsZQLEb5gk830kF8jdBQms4bY4wxb4s8f50xhXAq3JNWDoR5Xp1RcZfu0mRq099P1T1DHMZ1ib5+pbqndJ/FnzFnjgWgMTVn1EA+bsntuyRBWMTg1q5CQ1UoJgTg9ldP1Dpi7+Fq2n20Jq8gRWLUZgJPIOGgyg8sP9cYY4z5PopYG6u8ft22irZUzdxbM8Nc3fPGXOqF+KOZO+0eEIatYW/U1iEXeRmLbSfvOQ75NObssQA0pgFUVULRbPk27hwe5YqhIQKpGorYIy9Q4g8vYNwqPDQ+jyeQ/oGJwjK7+/G9pQehMcYY813YaBBuIfzG2mMh+vqq6tnBu6fbEvJJQ3f6+VHtc7GIPzx+tHZANHLxsyz6jKkVFoDGNBQEXJUf+IJCMZshBMkRpFBMCL+dB8/TvgThWvYGUi2UQjHb++moNJK/VLyK8i6yEugfY4wxFwoJtFj/47bK86OyZ5Xr154dpv71eVX1bC9NhtibkgBsTQ/U0oFef+rph4cwxN8Lef3i51j4GVNLLACNaSij/MAjhFzcHhwq1BNvoEJCQ/TJI0huIGGh8fHh8y2FjB7QOxARiHjkQkiSZ1itBhaCxhhzMUCk8X8INoQbAu5StyVPHqGcqu65NJWG7y+lHuGe1+ZSe2Ei9/KjpUMvi75Lbaq85HDPKnzUGFNPLACNOWfg3XuliXzpG6geglVxmNUQgfGYw43dUjF0L4eGhgbMOYJeFowx5twj8UeoZ9zS1oFG7pMD5fgh8OTdmx3PPf1uzKu9A2KQz7Un+rm1QwvBZ7FnTJOwADTmnCFPYIhAegKSH3hED8EQegerWwoDHXkHH+V+gmohQXjoZhGBhwhAfpCXBmOMOdcg3MjTa4/lUE8Ku1ye1tW/Mpt6uj+VOvMTavcwpsqe/dzIXXl+RUBaABrTKCwAjTlvoN9KSCdisAoNJfdPnsFKAD5YVcXQ3fsr6YCegisbajiPcEwHfG9uIu8cQWOMOQcg0vif3DxCNdtVjl8nBF1cw25u63AtN3DvX5vLDd2vzIT4G0jwqZ0Djdz5fhd4MaaxWAAacx5Bsx2R08cdPn6RDvEKlrYRB89DCD5Zf1kp9HHcf7qu8FC+To9BxOAhBWP2DrIQrHIELQKNMaZZ4KVD+LXiFtFHqCeevIle6lC5My68f535SXn9qsqeVPlEFLbHexJ9o9y+Skxa/BnTSCwAjbkgHOENDDF3tHMwqhhKnuDBs42cGxgX1UL3QhhSLIYm88oTDCGY9qk2WoTgMY9g1Z7CGGNMjaiEGTfcl8dvTF48vH20ayCss7oQeQrzLE3c8fghCskFpMKnwj2NMecGC0BjLgoh1o7w4iHiCPEkLJQ8QXoIIvhC+O3eW8k9BItXUMJwldYRe+lodz9/TwkN1c+qBKBXEWOMqQeVhw6PXRWqWdo5UNWzPdnLou/ydOpdnc235PotTaUWeX79jh47CvkkVJSfZYw5N1gAGnNBkScvRBzCDo/gwcqWhN/uw9Us/qga+iQEYHx+///f3rl3xXEkebSgeQgQsix7Hrt/7Pf/ZHuO1zO2ZQkJ0TRs3F9mFoUGzWg0GAn63kMq610te9yHOxEZ8fosojinhZY4IoOmhoqIfEOU+F3jaiV9K9b2IXK0czg5nFYUcCnB23t5NB3+6UUqezJI96SvH1FA2jpMFPVcreoPHqf4iTxFFECRbaWE7ZYEUiSGaqGsEXzdWkWsf3mbxvKkhxINzP4vZ62VBL0EkUAigvWMPEtERL4OXf6I+CWKVzJ38P3JtP/DSUvxLMnLuj7SPmni/uJZUkGT4okgnpDqifj19YLKn8iTRQEU2Wbqv/4UiyGSxxrB9dV0+b7ELjJ4Pq2RQSKDP//eKoXSU5CCMTVvfj9vqaHn67SdGA3lZ7EkIui3i4jI/RM5u25N15G1tHKgQmfNpHqW0O29bOL37K892vfXl4n07b06ifTR6D19/Hqq57RX967qGcP7FECRJ4sCKLLtIGx8C/BHiRvFYqaSuQ1yVyLYJJBiMb2HIH0DiQZyjCIxb84X6aEXKTSTNYbIYESwvUZERO4BvGxE6Xr/vpbmWVL3/LAVbiHV8/uT6TCRvxo/Uujl+bT/qvXzWx3t172rabfun4ZEjucqfiJPHgVQRG5B9C7y1iOCSF0KxSB7NVIdFPkjMvj3N9OalFD2Of76XRrPb4gK0j5i05/Vv2WsGioi8gX0L85E/NguYUtxF9o5vHg27b88ifClkicFXpjZr0F7h1T1RAyflyQeH7SIH89A9hQ+ka1DARSRWyBpEbYeEUTg0kz+ooSQqqH0EmStYEnfmqIxo2ooLST+73UTwbMeDaT3IOsEeWT6EvbfYxJyFBGRTzKLWfvibOmepGmS7lmjJA6pS3TvL99Nz/775XTwXy/TxH3vx9Os/8vavqODRAnniB/3l/zxLWy0T2Q7UQBF5PNABksE01C+RvoIsiYQ8UvF0DdZJ0hEcP26JDCpoR8SEcw6QVJDxzrBpIb61SMicieJzCF9bd6lHcPh/rR6VjL3bD+Rv93jg2mf5u1/as3bD0v+0tKhZtb5rYj2lfwN4RMRGSiAIvJ5lLAlGri5nq7WNJRvVUOz/m8eH9I3MBLIKCkcTebXv53NMjivERQRkX8AYSPSN61qJtJ3cph0TtbwpYInaZ2kd35fAjjSPHuq5z69/EoOd0sYs0aQ5xjpE5EFCqCIfBYjNZRUzp2akUDWCFL0ZUT3NrSTKBHMusC/n7XU0J9eT+f/+2skMO0lRnroIhqYqqGZb9YLiog8ddoavNpIpK+v62P04i47B6tp59lBpO7gT6dp1k4lz7Rz+PF0WpXw7Z0eRRB3j/bnJu5p4I749TWDpnqKyBIFUEQ+m1HEJS7YRbDJW4lgFzlaQ7Qo4NtEAJsEthTR9a8lgBSSqXH17kOLBl40cYwQDin0W0lEtoCkZvYo3+7Bftoy7B2XzBHBO96P2KWlQwSQZu1N/NLLjzTPkr8mfT3axxq/IZM181Wq/InIxyiAInKvJBJ49qGtAaxx+VurGBohHKmhtc1xZHCsFeQe5DESiFT6zSQiT5Tx9Yaw3bRxaKKH2CW9c1m9k+NE+2pe0by9Bi0fct/B3nRNymgXPxGRf4UCKCL3SuRtc5Xqn625fI2Ly7lyaBrJUzn0p1Y9NAVkSA+tc5vX71t66OYjAbRgjIg8dhZyNr7RiPztlcillcMPp2nY/ux/fpwOqej5557qWTKYiGBv2L6zXzPiWNtp5TBaQyh/IvKZKIAi8iBQOZQ1gIkAlvh96AK4RgipIPrL22lDC4k353VtSwulIT0FY2hOT2roDoVoRnRQKRSRb5khZDW1dX3IW415Lok7Yn3fUSvk8sNJqngeRQC/bwL4quSv5JDqn5E8EZF7QAEUkQchEUEqh5IeSupnH0kT7XNSQlk/SI9BmsvX9uWb90kNRSCJJCaiWFKYVhIiIt8iyB/Ctrs7Xde8R6omkb7To2knET+Kt/SUzxpzFc8SwTRxJ93zxfG0OjmIJLK+z7V8InJfKIAi8jCUsLU+gus0iKf4yxVVQ+kRWIK3oUVEDcSPtNARHWT/6uxiujw7r+vatRSPmYgM9iqirSpN/VhFVEQekLmKZ80putJnIn7XNZKmuTfaOPT1fTUOfjht21nnV6Ov6Wu9+0Y1zxoHNHBvhV0UQBG5LxRAEXkYuqRdbTatemjJ2631gheXkcE1aaAlfnOK6BDANy0aeE0bCRrMI4JEBGvk/vVlPeu6SaHfaiLyALQqniVoq52SPdbo7ZW0rSJvVPSMyNXYO2WN3/NbAxFMTz+kj2qfxwfTTgkfhWEikEMmeYfyJyL3iAIoIl+Xsa6vxG2DBCJ7IwW0RlJDiQ6efUgz+csSxKwV7OmhpJSOCqIUkCEymGig32wi8kfD2j6EryRvdUTrBtI8S+iS7lkzFTxPW/VOon2r70oEk+550qN+z9K/b1X3I3/p3Sci8gejAIrI16dLYAapnR/WfYw1f5ukhyJ/6S34U0sRZVz+cjZdUEW0t5VIb8GkhfZni4j8QaSYy/HBtI/M1SCt83DZrH1E+koAdxC9ksSdpHfuTav07it5HCmeyJ+RPhF5ABRAEfl2wNuSKtoFrm8zIXapIvr3N9P657e9kmhvMN/bSFyQLlqiiDRmjSDimO2aa2S9YJfDvEdE5A7G2r7lmr4IGjPVO0n3ZC6hI9K3S6Tv5XGE7/Av35UAns4CiBQm0tfX86UK6Ejr5PnD+eYNEZE/FgVQRL4pELP2a9DOvM2cyOA7Gsy/nza/n7cUUKqH1va6xDDVRJlZH1gS2FJD61ivMsq9SCTrBlkrmCihiMgdzGv7ELaDVVI0V8eHLcWTNXtJ7ayxLN5S+6vTo7R1yPl+jutYD4j4URV0XtdX8C1kcRcReWgUQBF5FKRozCgW0yuBXp1f9gqiJYYlfNfv1hG+1k7iXVsz+Ou71mewtllHmHs+1LisZ5UEjt6CEc2a5whk/u9/vx5FniTDuYjAzdG4+ulN1RPt2+9r+457C4cXvWInkb5XJ9MBEb6XJ9NuL+BCNHAUfckgzbPmibV9iGSe3d+j9InIV0QBFJHHQRe1kcYZIWSQ3plqoJuIIRFABJAiMutf3k7rv72dPvz0W9YKpqDMWZfHksDNRW8nMSqI1swzR5ronIYqIk8H3AsJQ8iIxvW0TFo2sE3kj3TN1RERv5K608O5Vx9VO/dfPW8pnn+ugQCmbcPB3OR9rOfbRSKRywhm/ZT08W2i/InI10YBFJHHDWKItCFwPTqIBKbRPCmhFI5h3WAqipYcco5IIEVl3r7v/QfrOHPdm/6ErBvsgpnf2ETkaYB74WQlZ9clZum1R+SOAi1E+kYUr2ZaM6RhO1U7EUBSPNn/7qiJIAVe6hjPSKoowqfcicgjQAEUkUfNnLLZo3aRtxo0nE+q53mP+I11gQgg6wJ/O0vxmIxfKCJToogk1nka1XM/0cFIoIg8DYjEIWqrnVThJH0zgkeTdgq2vDyZ1+8hfenTx/nnh00WWctHr76SxDRsp7DLiPSV/BndE5HHgAIoIo+fnqaZaSGD15tNawxf+0kTLREk0ofkrX8t6fvb2+ni598jgbSS2JQEprAM0cC6NtFA0kSTclrP6JVEk3paz857xrv6ZxCRr0cKrHQhY761TXom835L8UTiUsjlVa/WyZq+Er4hf3svnk0rJLAEkIjg/JzlO/qawfZy5U9EHgcKoIg8GW6qhrbfyUZ0MG5W0nZ7reD5tHndGsqPKqJjjSBFZTbvSwCJHNa1rcl82869HDu/SKTQqqIi3wj1H31aMzy7XYyFtM6kdmb0470nXyKACF9P7Uw1z17UhZk1gMxE/VqEj/cw87L2WsVPRB4bCqCIbAWp8EnkjuqfVBMlzTOih+CV3BHx41jkDtkjWthSRlNVlEHqaOb30xUCyVpC7h0SuBTOvj2ig/yK2KKEtZVZRP4VuFX+q4lwMfrBoh1vf4zWCrRbiMAhcjWybq/G/ovjW60ZInYlgDRlp71D0jkRwtqnmAvpnrR/SNpnzYn49feKiDx2FEAR2QqanGXjppooUcFbaZ0IYh0jsocIvrto0UEKybA+sGaazbOdAjO/n9+0lrgogaz7eRZpp4jm8rm0m7jinfkM7XOIyD8B3xvCN9IvEbHVarrmXB2jmMs4TvQvMtdTOFcUa2H9Xg1SOw9ePc8xRJDIXyKBB72hOxU8eXY9c+7VV/u8J9U8lT8ReUIogCIiCz6WQFJFSRMlCsi4oLdg3x5VRYkUtjWDl9OGojPcWyMpoilGU+dGuwlqyvAOZFBE7qYLHiPVOlmzd8jYn3YSleviNh9nTd9Bi/z1SN8ukT/W8rGOr8QvKZ51jGsS+avnUAyGdyh4IrJNKIAiIkuIECZqd52KokjdLHIleQhe9tke7SN6hVHSQtekiNZYD2lkXWEdT0ppCSVrEJOCWu8QkbtpEbgatFdA8o5Zqzfk7ritzztq6/NSyIXUTs4jgHXtWP+X/nykhSJ87Nd2Grzv10xgz+ieiGwhCqCIyIK7UkXnNM6+Tdpo1hIm4tfWC5IKSlpo5O/Xs6SKbiKBbd1gis6UKKawDNHB3mLi+qqljeY9mVt0MMfzOepn3uYPkcfHXDSlz9c1j0bpicD1tEv2c7xG0jJZh4e8sZ7vJSmdJ0nxTCSPdM/nhzmW6B4DMUQYa6Ti515L7VyO+Z31ExRAEdkyFEARkY+4KdrS/hhSmF8Ts1/TBgksWVtvWnSQdNFln8FUFX1fYtiPEylkXWEvOBNx5D4ijDWSJpq2E7W/rn2ihIykjm6SNqoEymOlRfRovl7+RfSNKNxI36yZKB8pmQhfthOx60VZ2D6p7ZK9vdOSvJpHlG8P4avBsTRlr2MRv1U9n/fheZFOxmI7/0Ezi4hsHwqgiMiXgAgSsSMiOGStJO4SEeySR7RvmT4a8eMc13QhbHJYo0viWE+Y++veiCLbayKGvfdgJ7/GRghrq4th21+eg5vzIv8JONP8v6raYZu5bV/Px27B+ZKx3f0SM6J6SB/pm6R1InBU5Ey7BaJ6JXp9JMI3KnUuqnRm8AwkkvWAc9uHEktSRtObrz4oP8wiInILBVBE5EtBqvjpKZojVZRxuwJo7a6J9G16ymgTv1QSfXPe+xB+aDPrBc9ai4nWk7CvMax7UjyGgQTWT3t/E9FxrEUrWwRzPl/TfL3IlxKhYu4bfRvhmlMqR2N0ji+uI+rX0jn3mtj1Yi0UaVmdHmYeRVuS3kmkDzns/fqICu6wJjDRvZbGmXf0/ZtjHL4RUxER+UcUQBGRhwBJuywBZP0fkT2ifkkVHYViSgBZK1jid12yd1XnL2v76t26ySACuO4poilQQ6po7ZMe2tNEI56RxLbNmkXWK17V+UQOlUD5UpC4kqy0RWBd3V4JF+LFdskd0bhpb6eld5aoRfjq3M01ROtWkblIXcldevORzlnCl9TOIX6kc5YgUvgFYUwRGJ6lz4mI3AsKoIjIQ0AkDkHjp8tbS/Es2UuaKBHCvhawi15SR7swtvTRVkRmTiMliogk9v2kjnJP3RtZrG0ijgwkMe/3G1++gETYRtsF1umRgknaZU/lbCmcI2KHuPVUzT5Y0xeR476MRaP1PIsoH89t+3vsI42I5YjuiYjIvaAAiog8AKOQTCJwRON6dC4pnYjZmIkU9u0MRDEyVxKI5CF+pIT2iGGqj9Y2EUOOZ91hCWDEMrJ4EUkk/fR2Cikfpn6pzudi1A/vTjpr31+c49fv8XeYj0Of5Buipz4y8a9nmYrJuL1PCufYX27XT0/nzPVE9Ya0IXRE8sa6vUURlkTuIoXt/LwdoeuVPYkO1vMQu0T2eGffTs8/IoZEDjleY/5MIiJyLyiAIiIPBOLEr7Fxpy5RTPnVNvtM/XhkrLZpC4EolgQSyUs0cEjgXGG0RQETHSzxI/q3IZJY1yKAY6SQDNHHZTSQ9/D8OsY9KWrTxXTIKMeWYnrFfu7tM0O+DT6St7GdCF7vqzcEK+mZ/fhI2RwpnEnbrGsRslXfJjI3InSJ7CWd8yCFXCKBjKRtcq5GRJG5RffGs5vUdbnks/XPzGfP/5TYzbG6rh8XEZH7QwEUEflWqW/nKySLgXj1aGDaRZDqGeEj4tf207QeuevCOFpMRAC7PFKllGOkhI5nJt2UZ1FwhufmfElkv25EIdneXNT5vIPPlQ/4WRIYse38s1/nl9fdfWUvcPMJbt3+gHzKUf7Fp+0z93/6ulv/RD5xHdfMIhXhq40ePUs0reQrAoeI1aDlwoTwUVylp17SdiGpmj3S166t+0jFTOon1/Kckrqc79sIYaSwix73557+npHKuRA/pU5E5OuhAIqIfMPM6Zb8DNmKePWI3IjS1bmW2pmb5mhdJG8heCk+U/NUx9JjsIQvgkhKKVVISRdFAok0Muq+q/OSxrFfI9FFookliUMC8zkW9sWv9+zXr/zjI/Utdtp0J/0Z3M+jb5FznyOA/Yr+rD+MxQf5ZwI4pO3jTzPu4fjdYtfvmO/nWe219U8797R7d/tcA8HaK+FLlK+u7xG/SBnr80jbZBC9QwiJ0hG1q2Oj8EqL5BHd61G8LnZI3eqAPns8t/ZL6FL1s2YKxCCaFIkZojcavfOBZ/GDO/+uIiLyUCiAIiJPkCaOtZHo4fWN6I2CMbUfOUTqOM5awt/ft/WCCwFs4teih+xfIoMXPcJIVBDRjAjWsxBO3jnezVwWd4UcLkSRY2mNwWeDXM+oH45xzTjEH/M1Ned8PWcc/xgOc2l/Ru67b7qFtbVp7CJit98zy1mJD03Jm/S0q8b1ic7lGYgd53My96SBOc7EeZ7BMU5zT8614wjWdR2IgHGuxCyRPSJuJWqr/b1cg+w1qUMAe3XNRO1K8voxxI90ziaKFHRZiGI9b5ZKxG58XhEReXQogCIiT5WSn1m8SgJHKmeTt5I7zo0IYcldSyet7TrXUkRbu4mRKpqIIemlzMhfbY95fi7biGA9+1Y6akZPUeXamnfq8yGNc4P7fs983RBK/ip1rn2WOnDZP/td5Lr2/Mjpp677UmJf9bOIrrUo120hyi7ihjSVhCU6xl8mJ65bVG5I1fJ+JI7rc45trqv9/p62fq+JHueQvdVBa4DeCqy0Y8vPFjns1yeNs1/HNctjN6mbJYt9uz23ff78PfNZ+bj984qIyKNDARQReaqM6FdNI7I2UkMRI36FZ2YfcYvwMXNulkfmfu8Y4xldFJMSmnWIJY+sG+TcEL8ul1lb2Oc5gljXMOhXmOuRvn5PnonE1bn8FfK+di5rGPlMdxCBzP3ts4377w3Eh39wJUZ7z1hH10XrYx+q69rauxItZKpfM2QP+aLVQaQNOez35566PlE3InS1vWJG8upck8a6pvbb+rubNXh5zz7vrG2Ej2eN93V5y7E+0tOvb3987ma//93Gc8bfX0REHi0KoIjIU2cpgmwjdzXNv8f3/XmNITuL41zX1vP1UxwvIUOwmuA1uSPFlPlWRJBzrD9831JQR+GaVCqdo4uX084iQsk1l0Qj2ec9UCJHhdPII3I4jn8EIpk017pmuuyf8z5BgJChkrBUuCR6RkSOdMwFES4EivOkWZaU8Q8wKaHIVYncHumViB23cixiuEpaZu6pkRRMtpE7ZBPxIzJHgZWca+fbdr2L93F+yFz/XHzs/FuNxPUDi+1Z7HKAuW1znPs43OZ+XkREHi0KoIiI/HsggCVkRO6SbonMIWU9steieSVypHKuS/C6ICa9FFGMnLWo4zICOKeaEk0k0lfXJArJK+scEcccr2u49i64juhfrvmDIoBZn5coXMlaj+B9LEa5ZlXn6nyic4kA7ky7CFm/P8VVao78IYylWHlWj+wtq2zmOVxb53lnxLHG3GA917br8q7xTIVNREQ+QgEUEZF/H0KB/PSo4TJdNNs5P461SFwKvyBui2u4ZL6WH57X70nIKRcw1Zzji+ffQWlPO9+v+2SxmC9kiN6cUllCV2/JsSUtotYlrF83judqTo/j7ZGhXX8jhUnB5BjX5J52/W4db5JJlI8DY+Zg3VdT+0NEROQ2CqCIiIiIiMiW0P4vSREREREREXnyKIAiIiIiIiJbggIoIiIiIiKyJSiAIiIiIiIiW4ICKCIiIiIisiUogCIiIiIiIluCAigiIiIiIrIlKIAiIiIiIiJbggIoIiIiIiKyJSiAIiIiIiIiW4ICKCIiIiIisiUogCIiIiIiIluCAigiIiIiIrIlKIAiIiIiIiJbggIoIiIiIiKyJSiAIiIiIiIiW4ICKCIiIiIisiUogCIiIiIiIluCAigiIiIiIrIVTNP/A3AysiTaUs9uAAAAAElFTkSuQmCC;" vertex="1" parent="WUom28d4KmBdgQUNbQlb-61">
          <mxGeometry x="58.289999999999964" y="17.5" width="30.555" height="28.577499999999997" as="geometry" />
        </mxCell>
        <mxCell id="WUom28d4KmBdgQUNbQlb-75" value="&lt;b&gt;Prompt&lt;/b&gt;: Generate Research Summary" style="shape=rect;strokeColor=none;fillColor=#E6D0DE;strokeWidth=1;dashed=0;rounded=1;arcSize=20;fontColor=#000000;fontSize=12;spacing=2;spacingTop=-2;align=center;autosize=1;spacingLeft=4;resizeWidth=0;resizeHeight=0;perimeter=none;html=1;whiteSpace=wrap;verticalAlign=middle;" vertex="1" parent="WUom28d4KmBdgQUNbQlb-57">
          <mxGeometry x="138.5" y="40" width="215" height="20" as="geometry" />
        </mxCell>
        <mxCell id="WUom28d4KmBdgQUNbQlb-81" value="&lt;b&gt;Prompt&lt;/b&gt;: Change to past tense" style="shape=rect;strokeColor=none;fillColor=#E6D0DE;strokeWidth=1;dashed=0;rounded=1;arcSize=20;fontColor=#000000;fontSize=12;spacing=2;spacingTop=-2;align=center;autosize=1;spacingLeft=4;resizeWidth=0;resizeHeight=0;perimeter=none;html=1;whiteSpace=wrap;verticalAlign=middle;" vertex="1" parent="WUom28d4KmBdgQUNbQlb-57">
          <mxGeometry x="183.5" y="148" width="170" height="20" as="geometry" />
        </mxCell>
        <mxCell id="WUom28d4KmBdgQUNbQlb-82" value="Research Summary" style="shape=rect;strokeColor=none;fillColor=#E6D0DE;strokeWidth=1;dashed=0;rounded=1;arcSize=20;fontColor=#000000;fontSize=12;spacing=2;spacingTop=-2;align=center;autosize=1;spacingLeft=4;resizeWidth=0;resizeHeight=0;perimeter=none;html=1;whiteSpace=wrap;verticalAlign=middle;" vertex="1" parent="WUom28d4KmBdgQUNbQlb-57">
          <mxGeometry x="223.5" y="73" width="130" height="20" as="geometry" />
        </mxCell>
        <mxCell id="WUom28d4KmBdgQUNbQlb-83" value="Text in past tense" style="shape=rect;strokeColor=none;fillColor=#E6D0DE;strokeWidth=1;dashed=0;rounded=1;arcSize=20;fontColor=#000000;fontSize=12;spacing=2;spacingTop=-2;align=center;autosize=1;spacingLeft=4;resizeWidth=0;resizeHeight=0;perimeter=none;html=1;whiteSpace=wrap;verticalAlign=middle;" vertex="1" parent="WUom28d4KmBdgQUNbQlb-57">
          <mxGeometry x="233.5" y="173.5" width="120" height="20" as="geometry" />
        </mxCell>
        <mxCell id="WUom28d4KmBdgQUNbQlb-84" value="&lt;b&gt;Prompt&lt;/b&gt;: Apply Abbreviation Style Rules" style="shape=rect;strokeColor=none;fillColor=#E6D0DE;strokeWidth=1;dashed=0;rounded=1;arcSize=20;fontColor=#000000;fontSize=12;spacing=2;spacingTop=-2;align=center;autosize=1;spacingLeft=4;resizeWidth=0;resizeHeight=0;perimeter=none;html=1;whiteSpace=wrap;verticalAlign=middle;" vertex="1" parent="WUom28d4KmBdgQUNbQlb-57">
          <mxGeometry x="134" y="250" width="220" height="20" as="geometry" />
        </mxCell>
        <mxCell id="WUom28d4KmBdgQUNbQlb-85" value="Text updated per style rules" style="shape=rect;strokeColor=none;fillColor=#E6D0DE;strokeWidth=1;dashed=0;rounded=1;arcSize=20;fontColor=#000000;fontSize=12;spacing=2;spacingTop=-2;align=center;autosize=1;spacingLeft=4;resizeWidth=0;resizeHeight=0;perimeter=none;html=1;whiteSpace=wrap;verticalAlign=middle;" vertex="1" parent="WUom28d4KmBdgQUNbQlb-57">
          <mxGeometry x="184" y="280" width="170" height="20" as="geometry" />
        </mxCell>
        <mxCell id="WUom28d4KmBdgQUNbQlb-101" style="edgeStyle=orthogonalEdgeStyle;rounded=0;orthogonalLoop=1;jettySize=auto;html=1;startArrow=classic;startFill=1;endArrow=none;endFill=0;strokeColor=#D6C1CE;strokeWidth=2;exitX=0;exitY=1;exitDx=0;exitDy=0;entryX=-0.006;entryY=0.6;entryDx=0;entryDy=0;entryPerimeter=0;" edge="1" parent="WUom28d4KmBdgQUNbQlb-57" source="WUom28d4KmBdgQUNbQlb-62" target="WUom28d4KmBdgQUNbQlb-85">
          <mxGeometry relative="1" as="geometry">
            <mxPoint x="21.938499999999976" y="136.01" as="sourcePoint" />
            <mxPoint x="-8" y="280" as="targetPoint" />
            <Array as="points">
              <mxPoint x="52" y="292" />
            </Array>
          </mxGeometry>
        </mxCell>
        <mxCell id="WUom28d4KmBdgQUNbQlb-103" style="edgeStyle=orthogonalEdgeStyle;rounded=0;orthogonalLoop=1;jettySize=auto;html=1;startArrow=classic;startFill=1;endArrow=none;endFill=0;strokeColor=#D6C1CE;strokeWidth=2;entryX=-0.042;entryY=0.5;entryDx=0;entryDy=0;entryPerimeter=0;" edge="1" parent="WUom28d4KmBdgQUNbQlb-57" target="WUom28d4KmBdgQUNbQlb-82">
          <mxGeometry relative="1" as="geometry">
            <mxPoint x="145" y="82" as="sourcePoint" />
            <mxPoint x="492" y="175" as="targetPoint" />
          </mxGeometry>
        </mxCell>
        <mxCell id="WUom28d4KmBdgQUNbQlb-100" style="edgeStyle=orthogonalEdgeStyle;rounded=0;orthogonalLoop=1;jettySize=auto;html=1;entryX=0.502;entryY=0.091;entryDx=0;entryDy=0;startArrow=classic;startFill=1;endArrow=none;endFill=0;strokeColor=#D6C1CE;strokeWidth=2;exitX=0.002;exitY=0.25;exitDx=0;exitDy=0;exitPerimeter=0;entryPerimeter=0;" edge="1" parent="WUom28d4KmBdgQUNbQlb-57" source="WUom28d4KmBdgQUNbQlb-75" target="WUom28d4KmBdgQUNbQlb-62">
          <mxGeometry relative="1" as="geometry">
            <mxPoint x="310" y="330" as="sourcePoint" />
            <mxPoint x="432" y="203" as="targetPoint" />
            <Array as="points">
              <mxPoint x="89" y="45" />
            </Array>
          </mxGeometry>
        </mxCell>
        <mxCell id="WUom28d4KmBdgQUNbQlb-108" style="edgeStyle=orthogonalEdgeStyle;rounded=0;orthogonalLoop=1;jettySize=auto;html=1;startArrow=classic;startFill=1;endArrow=none;endFill=0;strokeColor=#D6C1CE;strokeWidth=2;exitX=0.673;exitY=1.013;exitDx=0;exitDy=0;exitPerimeter=0;entryX=0.004;entryY=0.825;entryDx=0;entryDy=0;entryPerimeter=0;" edge="1" parent="WUom28d4KmBdgQUNbQlb-57" target="WUom28d4KmBdgQUNbQlb-83">
          <mxGeometry relative="1" as="geometry">
            <mxPoint x="114.95949999999993" y="139.01" as="sourcePoint" />
            <mxPoint x="228" y="85" as="targetPoint" />
            <Array as="points" />
          </mxGeometry>
        </mxCell>
        <mxCell id="WUom28d4KmBdgQUNbQlb-110" style="edgeStyle=orthogonalEdgeStyle;rounded=0;orthogonalLoop=1;jettySize=auto;html=1;startArrow=classic;startFill=1;endArrow=none;endFill=0;strokeColor=#D6C1CE;strokeWidth=2;exitX=0.138;exitY=0;exitDx=0;exitDy=0;exitPerimeter=0;entryX=0.835;entryY=0.673;entryDx=0;entryDy=0;entryPerimeter=0;" edge="1" parent="WUom28d4KmBdgQUNbQlb-57" source="WUom28d4KmBdgQUNbQlb-81" target="WUom28d4KmBdgQUNbQlb-62">
          <mxGeometry relative="1" as="geometry">
            <mxPoint x="150" y="85" as="sourcePoint" />
            <mxPoint x="228" y="85" as="targetPoint" />
          </mxGeometry>
        </mxCell>
        <mxCell id="WUom28d4KmBdgQUNbQlb-112" style="edgeStyle=orthogonalEdgeStyle;rounded=0;orthogonalLoop=1;jettySize=auto;html=1;startArrow=classic;startFill=1;endArrow=none;endFill=0;strokeColor=#D6C1CE;strokeWidth=2;exitX=-0.005;exitY=0.55;exitDx=0;exitDy=0;exitPerimeter=0;entryX=0.5;entryY=1;entryDx=0;entryDy=0;" edge="1" parent="WUom28d4KmBdgQUNbQlb-57" source="WUom28d4KmBdgQUNbQlb-84" target="WUom28d4KmBdgQUNbQlb-62">
          <mxGeometry relative="1" as="geometry">
            <mxPoint x="217" y="158" as="sourcePoint" />
            <mxPoint x="148" y="124" as="targetPoint" />
            <Array as="points">
              <mxPoint x="89" y="261" />
            </Array>
          </mxGeometry>
        </mxCell>
        <mxCell id="WUom28d4KmBdgQUNbQlb-113" value="5" style="ellipse;whiteSpace=wrap;html=1;aspect=fixed;fillColor=#fff2cc;strokeColor=#d6b656;" vertex="1" parent="WUom28d4KmBdgQUNbQlb-57">
          <mxGeometry x="184" y="60" width="20" height="20" as="geometry" />
        </mxCell>
        <mxCell id="WUom28d4KmBdgQUNbQlb-119" value="6" style="ellipse;whiteSpace=wrap;html=1;aspect=fixed;fillColor=#fff2cc;strokeColor=#d6b656;" vertex="1" parent="WUom28d4KmBdgQUNbQlb-57">
          <mxGeometry x="170" y="120" width="20" height="20" as="geometry" />
        </mxCell>
        <mxCell id="WUom28d4KmBdgQUNbQlb-120" value="7" style="ellipse;whiteSpace=wrap;html=1;aspect=fixed;fillColor=#fff2cc;strokeColor=#d6b656;" vertex="1" parent="WUom28d4KmBdgQUNbQlb-57">
          <mxGeometry x="60" y="260" width="20" height="20" as="geometry" />
        </mxCell>
        <mxCell id="WUom28d4KmBdgQUNbQlb-9" value="8" style="shape=mxgraph.mockup.containers.marginRect;rectMarginTop=10;strokeColor=#666666;strokeWidth=1;dashed=1;rounded=1;arcSize=5;recursiveResize=0;html=1;whiteSpace=wrap;points=[];" vertex="1" parent="1">
          <mxGeometry x="110" y="200" width="640" height="120" as="geometry" />
        </mxCell>
        <mxCell id="WUom28d4KmBdgQUNbQlb-10" value="Logic App" style="shape=rect;strokeColor=none;fillColor=#CCCCCC;strokeWidth=1;dashed=0;rounded=1;arcSize=20;fontColor=#000000;fontSize=13;spacing=2;spacingTop=-2;align=left;autosize=1;spacingLeft=4;resizeWidth=0;resizeHeight=0;perimeter=none;html=1;whiteSpace=wrap;" vertex="1" parent="WUom28d4KmBdgQUNbQlb-9">
          <mxGeometry x="5" y="-4" width="80" height="30" as="geometry" />
        </mxCell>
        <mxCell id="WUom28d4KmBdgQUNbQlb-43" value="" style="edgeStyle=orthogonalEdgeStyle;rounded=0;orthogonalLoop=1;jettySize=auto;html=1;entryX=0.258;entryY=-0.025;entryDx=0;entryDy=0;entryPerimeter=0;exitX=0.509;exitY=0;exitDx=0;exitDy=0;exitPerimeter=0;curved=1;" edge="1" parent="WUom28d4KmBdgQUNbQlb-9" source="WUom28d4KmBdgQUNbQlb-26" target="WUom28d4KmBdgQUNbQlb-31">
          <mxGeometry relative="1" as="geometry" />
        </mxCell>
        <mxCell id="WUom28d4KmBdgQUNbQlb-26" value="Extract Sections" style="shape=rect;strokeColor=none;fillColor=#E6D0DE;strokeWidth=1;dashed=0;rounded=1;arcSize=20;fontColor=#000000;fontSize=12;spacing=2;spacingTop=-2;align=center;autosize=1;spacingLeft=4;resizeWidth=0;resizeHeight=0;perimeter=none;html=1;whiteSpace=wrap;verticalAlign=middle;" vertex="1" parent="WUom28d4KmBdgQUNbQlb-9">
          <mxGeometry x="45" y="50" width="110" height="20" as="geometry" />
        </mxCell>
        <mxCell id="WUom28d4KmBdgQUNbQlb-31" value="Process Text through&lt;div&gt;AI Functions&lt;/div&gt;" style="shape=rect;strokeColor=none;fillColor=#E6D0DE;strokeWidth=1;dashed=0;rounded=1;arcSize=20;fontColor=#000000;fontSize=12;spacing=2;spacingTop=-2;align=center;autosize=1;spacingLeft=4;resizeWidth=0;resizeHeight=0;perimeter=none;html=1;whiteSpace=wrap;verticalAlign=middle;" vertex="1" parent="WUom28d4KmBdgQUNbQlb-9">
          <mxGeometry x="230" y="40" width="120" height="40" as="geometry" />
        </mxCell>
        <mxCell id="WUom28d4KmBdgQUNbQlb-35" value="Update Study Report Template&amp;nbsp;&lt;div&gt;with Processed Content&lt;/div&gt;" style="shape=rect;strokeColor=none;fillColor=#E6D0DE;strokeWidth=1;dashed=0;rounded=1;arcSize=20;fontColor=#000000;fontSize=12;spacing=2;spacingTop=-2;align=center;autosize=1;spacingLeft=4;resizeWidth=0;resizeHeight=0;perimeter=none;html=1;whiteSpace=wrap;verticalAlign=middle;" vertex="1" parent="WUom28d4KmBdgQUNbQlb-9">
          <mxGeometry x="410" y="40" width="190" height="40" as="geometry" />
        </mxCell>
        <mxCell id="WUom28d4KmBdgQUNbQlb-44" style="edgeStyle=orthogonalEdgeStyle;rounded=0;orthogonalLoop=1;jettySize=auto;html=1;entryX=0.532;entryY=0;entryDx=0;entryDy=0;entryPerimeter=0;exitX=0.725;exitY=-0.025;exitDx=0;exitDy=0;exitPerimeter=0;curved=1;" edge="1" parent="WUom28d4KmBdgQUNbQlb-9" source="WUom28d4KmBdgQUNbQlb-31" target="WUom28d4KmBdgQUNbQlb-35">
          <mxGeometry relative="1" as="geometry" />
        </mxCell>
        <mxCell id="WUom28d4KmBdgQUNbQlb-50" value="2&lt;span style=&quot;color: rgba(0, 0, 0, 0); font-family: monospace; font-size: 0px; text-align: start; text-wrap: nowrap;&quot;&gt;%3CmxGraphModel%3E%3Croot%3E%3CmxCell%20id%3D%220%22%2F%3E%3CmxCell%20id%3D%221%22%20parent%3D%220%22%2F%3E%3CmxCell%20id%3D%222%22%20value%3D%221%22%20style%3D%22ellipse%3BwhiteSpace%3Dwrap%3Bhtml%3D1%3Baspect%3Dfixed%3BfillColor%3D%23fff2cc%3BstrokeColor%3D%23d6b656%3B%22%20vertex%3D%221%22%20parent%3D%221%22%3E%3CmxGeometry%20x%3D%22210%22%20y%3D%22100%22%20width%3D%2220%22%20height%3D%2220%22%20as%3D%22geometry%22%2F%3E%3C%2FmxCell%3E%3C%2Froot%3E%3C%2FmxGraphModel%3E&lt;/span&gt;" style="ellipse;whiteSpace=wrap;html=1;aspect=fixed;fillColor=#fff2cc;strokeColor=#d6b656;" vertex="1" parent="WUom28d4KmBdgQUNbQlb-9">
          <mxGeometry x="50" y="80" width="20" height="20" as="geometry" />
        </mxCell>
        <mxCell id="WUom28d4KmBdgQUNbQlb-51" value="3" style="ellipse;whiteSpace=wrap;html=1;aspect=fixed;fillColor=#fff2cc;strokeColor=#d6b656;" vertex="1" parent="WUom28d4KmBdgQUNbQlb-9">
          <mxGeometry x="160" y="26" width="20" height="20" as="geometry" />
        </mxCell>
        <mxCell id="WUom28d4KmBdgQUNbQlb-53" value="4" style="ellipse;whiteSpace=wrap;html=1;aspect=fixed;fillColor=#fff2cc;strokeColor=#d6b656;" vertex="1" parent="WUom28d4KmBdgQUNbQlb-9">
          <mxGeometry x="200" y="90" width="20" height="20" as="geometry" />
        </mxCell>
        <mxCell id="WUom28d4KmBdgQUNbQlb-54" value="8" style="ellipse;whiteSpace=wrap;html=1;aspect=fixed;fillColor=#fff2cc;strokeColor=#d6b656;" vertex="1" parent="WUom28d4KmBdgQUNbQlb-9">
          <mxGeometry x="380" y="26" width="20" height="20" as="geometry" />
        </mxCell>
        <mxCell id="WUom28d4KmBdgQUNbQlb-55" value="9" style="ellipse;whiteSpace=wrap;html=1;aspect=fixed;fillColor=#fff2cc;strokeColor=#d6b656;" vertex="1" parent="WUom28d4KmBdgQUNbQlb-9">
          <mxGeometry x="514" y="90" width="20" height="20" as="geometry" />
        </mxCell>
        <mxCell id="WUom28d4KmBdgQUNbQlb-45" style="edgeStyle=orthogonalEdgeStyle;rounded=0;orthogonalLoop=1;jettySize=auto;html=1;curved=1;" edge="1" parent="1" source="WUom28d4KmBdgQUNbQlb-11">
          <mxGeometry relative="1" as="geometry">
            <mxPoint x="160" y="200" as="targetPoint" />
          </mxGeometry>
        </mxCell>
        <mxCell id="WUom28d4KmBdgQUNbQlb-125" style="edgeStyle=orthogonalEdgeStyle;rounded=0;orthogonalLoop=1;jettySize=auto;html=1;curved=1;startArrow=classic;startFill=1;endArrow=none;endFill=0;" edge="1" parent="1" source="WUom28d4KmBdgQUNbQlb-11">
          <mxGeometry relative="1" as="geometry">
            <mxPoint x="719" y="211" as="targetPoint" />
          </mxGeometry>
        </mxCell>
        <mxCell id="WUom28d4KmBdgQUNbQlb-11" value="" style="shape=mxgraph.mockup.containers.marginRect;rectMarginTop=10;strokeColor=#666666;strokeWidth=1;dashed=1;rounded=1;arcSize=5;recursiveResize=0;html=1;whiteSpace=wrap;" vertex="1" parent="1">
          <mxGeometry x="300" y="60" width="290" height="130" as="geometry" />
        </mxCell>
        <mxCell id="WUom28d4KmBdgQUNbQlb-12" value="Blob Store" style="shape=rect;strokeColor=none;fillColor=#CCCCCC;strokeWidth=1;dashed=0;rounded=1;arcSize=20;fontColor=#000000;fontSize=13;spacing=2;spacingTop=-2;align=left;autosize=1;spacingLeft=4;resizeWidth=0;resizeHeight=0;perimeter=none;html=1;whiteSpace=wrap;" vertex="1" parent="WUom28d4KmBdgQUNbQlb-11">
          <mxGeometry x="5" y="-4" width="90" height="30" as="geometry" />
        </mxCell>
        <mxCell id="WUom28d4KmBdgQUNbQlb-13" value="Study&lt;div&gt;Protocols&lt;/div&gt;" style="html=1;verticalLabelPosition=bottom;align=center;labelBackgroundColor=#ffffff;verticalAlign=top;strokeWidth=2;strokeColor=#000000;shadow=0;dashed=0;shape=mxgraph.ios7.icons.documents;" vertex="1" parent="WUom28d4KmBdgQUNbQlb-11">
          <mxGeometry x="42.75" y="45" width="22.5" height="30" as="geometry" />
        </mxCell>
        <mxCell id="WUom28d4KmBdgQUNbQlb-14" value="Study&lt;div&gt;Data&lt;/div&gt;" style="html=1;verticalLabelPosition=bottom;align=center;labelBackgroundColor=#ffffff;verticalAlign=top;strokeWidth=2;strokeColor=#000000;shadow=0;dashed=0;shape=mxgraph.ios7.icons.documents;" vertex="1" parent="WUom28d4KmBdgQUNbQlb-11">
          <mxGeometry x="104.5" y="45" width="22.5" height="30" as="geometry" />
        </mxCell>
        <mxCell id="WUom28d4KmBdgQUNbQlb-15" value="&lt;div&gt;Study&lt;/div&gt;&lt;div&gt;Reports&lt;/div&gt;&lt;div&gt;(Output)&lt;/div&gt;" style="html=1;verticalLabelPosition=bottom;align=center;labelBackgroundColor=#ffffff;verticalAlign=top;strokeWidth=2;strokeColor=#000000;shadow=0;dashed=0;shape=mxgraph.ios7.icons.documents;" vertex="1" parent="WUom28d4KmBdgQUNbQlb-11">
          <mxGeometry x="220" y="45" width="22.5" height="30" as="geometry" />
        </mxCell>
        <mxCell id="WUom28d4KmBdgQUNbQlb-37" value="Study&lt;div&gt;Report&lt;/div&gt;&lt;div&gt;Template&lt;/div&gt;" style="html=1;verticalLabelPosition=bottom;align=center;labelBackgroundColor=#ffffff;verticalAlign=top;strokeWidth=2;strokeColor=#000000;shadow=0;dashed=0;shape=mxgraph.ios7.icons.documents;" vertex="1" parent="WUom28d4KmBdgQUNbQlb-11">
          <mxGeometry x="160" y="45" width="22.5" height="30" as="geometry" />
        </mxCell>
        <mxCell id="WUom28d4KmBdgQUNbQlb-20" value="" style="shape=mxgraph.mockup.containers.marginRect;rectMarginTop=10;strokeColor=#666666;strokeWidth=1;dashed=1;rounded=1;arcSize=5;recursiveResize=0;html=1;whiteSpace=wrap;" vertex="1" parent="1">
          <mxGeometry x="70" y="350" width="190" height="170" as="geometry" />
        </mxCell>
        <mxCell id="WUom28d4KmBdgQUNbQlb-21" value="Azure Function -&amp;nbsp;&lt;span style=&quot;background-color: initial;&quot;&gt;Extraction&lt;/span&gt;" style="shape=rect;strokeColor=none;fillColor=#CCCCCC;strokeWidth=1;dashed=0;rounded=1;arcSize=20;fontColor=#000000;fontSize=13;spacing=2;spacingTop=-2;align=left;autosize=1;spacingLeft=4;resizeWidth=0;resizeHeight=0;perimeter=none;html=1;whiteSpace=wrap;" vertex="1" parent="WUom28d4KmBdgQUNbQlb-20">
          <mxGeometry x="5" y="-4" width="180" height="30" as="geometry" />
        </mxCell>
        <mxCell id="WUom28d4KmBdgQUNbQlb-19" value="OpenXML" style="rhombus;whiteSpace=wrap;html=1;rounded=1;fillColor=LIGHTBLUE;" vertex="1" parent="WUom28d4KmBdgQUNbQlb-20">
          <mxGeometry x="24.25" y="40" width="149.25" height="110" as="geometry" />
        </mxCell>
        <mxCell id="WUom28d4KmBdgQUNbQlb-24" value="New Study&amp;nbsp;&lt;div&gt;Protocol Doc&lt;/div&gt;" style="shape=rect;strokeColor=none;fillColor=#97D077;strokeWidth=1;dashed=0;rounded=1;arcSize=20;fontColor=#000000;fontSize=12;spacing=2;spacingTop=-2;align=left;autosize=1;spacingLeft=4;resizeWidth=0;resizeHeight=0;perimeter=none;html=1;whiteSpace=wrap;verticalAlign=middle;" vertex="1" parent="1">
          <mxGeometry x="180" y="130" width="80" height="40" as="geometry" />
        </mxCell>
        <mxCell id="WUom28d4KmBdgQUNbQlb-39" style="edgeStyle=orthogonalEdgeStyle;rounded=0;orthogonalLoop=1;jettySize=auto;html=1;curved=1;exitX=0.505;exitY=1;exitDx=0;exitDy=0;exitPerimeter=0;startArrow=classic;startFill=1;entryX=1;entryY=0;entryDx=0;entryDy=0;" edge="1" parent="1" source="WUom28d4KmBdgQUNbQlb-35" target="WUom28d4KmBdgQUNbQlb-19">
          <mxGeometry relative="1" as="geometry">
            <mxPoint x="396" y="580" as="targetPoint" />
            <Array as="points">
              <mxPoint x="616" y="330" />
              <mxPoint x="250" y="330" />
              <mxPoint x="250" y="390" />
              <mxPoint x="206" y="390" />
            </Array>
          </mxGeometry>
        </mxCell>
        <mxCell id="WUom28d4KmBdgQUNbQlb-47" style="edgeStyle=orthogonalEdgeStyle;rounded=0;orthogonalLoop=1;jettySize=auto;html=1;entryX=0;entryY=0.5;entryDx=0;entryDy=0;curved=1;exitX=0.391;exitY=0.95;exitDx=0;exitDy=0;exitPerimeter=0;startArrow=classic;startFill=1;" edge="1" parent="1" source="WUom28d4KmBdgQUNbQlb-26" target="WUom28d4KmBdgQUNbQlb-19">
          <mxGeometry relative="1" as="geometry" />
        </mxCell>
        <mxCell id="WUom28d4KmBdgQUNbQlb-49" value="1" style="ellipse;whiteSpace=wrap;html=1;aspect=fixed;fillColor=#fff2cc;strokeColor=#d6b656;" vertex="1" parent="1">
          <mxGeometry x="210" y="100" width="20" height="20" as="geometry" />
        </mxCell>
        <mxCell id="WUom28d4KmBdgQUNbQlb-91" value="" style="shape=mxgraph.mockup.containers.marginRect;rectMarginTop=10;strokeColor=#666666;strokeWidth=1;dashed=1;rounded=1;arcSize=5;recursiveResize=0;html=1;whiteSpace=wrap;" vertex="1" parent="1">
          <mxGeometry x="640" y="350" width="162" height="170" as="geometry" />
        </mxCell>
        <mxCell id="WUom28d4KmBdgQUNbQlb-92" value="Azure OpenAI" style="shape=rect;strokeColor=none;fillColor=#CCCCCC;strokeWidth=1;dashed=0;rounded=1;arcSize=20;fontColor=#000000;fontSize=13;spacing=2;spacingTop=-2;align=left;autosize=1;spacingLeft=4;resizeWidth=0;resizeHeight=0;perimeter=none;html=1;whiteSpace=wrap;" vertex="1" parent="WUom28d4KmBdgQUNbQlb-91">
          <mxGeometry x="5" y="-4" width="110" height="30" as="geometry" />
        </mxCell>
        <mxCell id="WUom28d4KmBdgQUNbQlb-93" value="&lt;div&gt;&lt;br&gt;&lt;/div&gt;Completion model API&lt;div&gt;(gpt-35-turbo-16k)&lt;/div&gt;" style="rhombus;whiteSpace=wrap;html=1;rounded=1;fillColor=LIGHTBLUE;" vertex="1" parent="WUom28d4KmBdgQUNbQlb-91">
          <mxGeometry x="6.379999999999999" y="40" width="149.25" height="110" as="geometry" />
        </mxCell>
        <mxCell id="WUom28d4KmBdgQUNbQlb-121" value="" style="shape=image;verticalLabelPosition=bottom;labelBackgroundColor=default;verticalAlign=top;aspect=fixed;imageAspect=0;image=https://cdn.iconscout.com/icon/premium/png-256-thumb/openai-1523664-1290202.png;" vertex="1" parent="WUom28d4KmBdgQUNbQlb-91">
          <mxGeometry x="63.00999999999999" y="50" width="36" height="36" as="geometry" />
        </mxCell>
        <mxCell id="WUom28d4KmBdgQUNbQlb-95" style="edgeStyle=orthogonalEdgeStyle;rounded=0;orthogonalLoop=1;jettySize=auto;html=1;strokeColor=#dac7d3;strokeWidth=2;exitX=1.012;exitY=0.65;exitDx=0;exitDy=0;exitPerimeter=0;" edge="1" parent="1" source="WUom28d4KmBdgQUNbQlb-75">
          <mxGeometry relative="1" as="geometry">
            <mxPoint x="580" y="530" as="sourcePoint" />
            <mxPoint x="704" y="403" as="targetPoint" />
          </mxGeometry>
        </mxCell>
        <mxCell id="WUom28d4KmBdgQUNbQlb-96" style="edgeStyle=orthogonalEdgeStyle;rounded=0;orthogonalLoop=1;jettySize=auto;html=1;entryX=0.185;entryY=0.318;entryDx=0;entryDy=0;entryPerimeter=0;startArrow=classic;startFill=1;endArrow=none;endFill=0;strokeColor=#D6C1CE;strokeWidth=2;" edge="1" parent="1" target="WUom28d4KmBdgQUNbQlb-93">
          <mxGeometry relative="1" as="geometry">
            <mxPoint x="620" y="425" as="sourcePoint" />
          </mxGeometry>
        </mxCell>
        <mxCell id="WUom28d4KmBdgQUNbQlb-97" style="edgeStyle=orthogonalEdgeStyle;rounded=0;orthogonalLoop=1;jettySize=auto;html=1;strokeColor=#dac7d3;strokeWidth=2;exitX=1.011;exitY=0.475;exitDx=0;exitDy=0;exitPerimeter=0;" edge="1" parent="1" source="WUom28d4KmBdgQUNbQlb-81">
          <mxGeometry relative="1" as="geometry">
            <mxPoint x="590" y="540" as="sourcePoint" />
            <mxPoint x="670" y="469" as="targetPoint" />
          </mxGeometry>
        </mxCell>
        <mxCell id="WUom28d4KmBdgQUNbQlb-98" style="edgeStyle=orthogonalEdgeStyle;rounded=0;orthogonalLoop=1;jettySize=auto;html=1;startArrow=classic;startFill=1;endArrow=none;endFill=0;strokeColor=#D6C1CE;strokeWidth=2;exitX=1;exitY=0.6;exitDx=0;exitDy=0;exitPerimeter=0;" edge="1" parent="1" source="WUom28d4KmBdgQUNbQlb-83">
          <mxGeometry relative="1" as="geometry">
            <mxPoint x="590" y="570" as="sourcePoint" />
            <mxPoint x="700" y="486" as="targetPoint" />
          </mxGeometry>
        </mxCell>
        <mxCell id="WUom28d4KmBdgQUNbQlb-99" style="edgeStyle=orthogonalEdgeStyle;rounded=0;orthogonalLoop=1;jettySize=auto;html=1;entryX=0.5;entryY=1;entryDx=0;entryDy=0;strokeColor=#dac7d3;strokeWidth=2;exitX=1.013;exitY=0.7;exitDx=0;exitDy=0;exitPerimeter=0;" edge="1" parent="1" source="WUom28d4KmBdgQUNbQlb-84" target="WUom28d4KmBdgQUNbQlb-93">
          <mxGeometry relative="1" as="geometry">
            <mxPoint x="587" y="647" as="sourcePoint" />
            <mxPoint x="680" y="540" as="targetPoint" />
          </mxGeometry>
        </mxCell>
        <mxCell id="WUom28d4KmBdgQUNbQlb-106" style="edgeStyle=orthogonalEdgeStyle;rounded=0;orthogonalLoop=1;jettySize=auto;html=1;strokeColor=#dac7d3;strokeWidth=2;exitX=0.994;exitY=0.45;exitDx=0;exitDy=0;exitPerimeter=0;entryX=0.688;entryY=0.809;entryDx=0;entryDy=0;entryPerimeter=0;endArrow=none;endFill=0;startArrow=classic;startFill=1;" edge="1" parent="1" source="WUom28d4KmBdgQUNbQlb-85" target="WUom28d4KmBdgQUNbQlb-93">
          <mxGeometry relative="1" as="geometry">
            <mxPoint x="630" y="644" as="sourcePoint" />
            <mxPoint x="760" y="490" as="targetPoint" />
          </mxGeometry>
        </mxCell>
        <mxCell id="WUom28d4KmBdgQUNbQlb-111" value="" style="edgeStyle=orthogonalEdgeStyle;rounded=0;orthogonalLoop=1;jettySize=auto;html=1;" edge="1" parent="1" source="WUom28d4KmBdgQUNbQlb-62" target="WUom28d4KmBdgQUNbQlb-19">
          <mxGeometry relative="1" as="geometry" />
        </mxCell>
        <mxCell id="WUom28d4KmBdgQUNbQlb-118" value="" style="edgeStyle=orthogonalEdgeStyle;rounded=0;orthogonalLoop=1;jettySize=auto;html=1;entryX=0;entryY=0;entryDx=0;entryDy=0;exitX=0.008;exitY=0.475;exitDx=0;exitDy=0;exitPerimeter=0;curved=1;" edge="1" parent="1" source="WUom28d4KmBdgQUNbQlb-31" target="WUom28d4KmBdgQUNbQlb-62">
          <mxGeometry relative="1" as="geometry">
            <mxPoint x="221" y="260" as="sourcePoint" />
            <mxPoint x="381" y="249" as="targetPoint" />
            <Array as="points">
              <mxPoint x="310" y="259" />
              <mxPoint x="310" y="330" />
              <mxPoint x="270" y="330" />
              <mxPoint x="270" y="418" />
            </Array>
          </mxGeometry>
        </mxCell>
        <mxCell id="WUom28d4KmBdgQUNbQlb-122" value="Generated&lt;div&gt;Study Report&lt;/div&gt;" style="shape=rect;strokeColor=none;fillColor=#97D077;strokeWidth=1;dashed=0;rounded=1;arcSize=20;fontColor=#000000;fontSize=12;spacing=2;spacingTop=-2;align=left;autosize=1;spacingLeft=4;resizeWidth=0;resizeHeight=0;perimeter=none;html=1;whiteSpace=wrap;verticalAlign=middle;" vertex="1" parent="1">
          <mxGeometry x="630" y="130" width="90" height="40" as="geometry" />
        </mxCell>
        <mxCell id="WUom28d4KmBdgQUNbQlb-126" value="10" style="ellipse;whiteSpace=wrap;html=1;aspect=fixed;fillColor=#fff2cc;strokeColor=#d6b656;" vertex="1" parent="1">
          <mxGeometry x="680" y="100" width="20" height="20" as="geometry" />
        </mxCell>
      </root>
    </mxGraphModel>
  </diagram>
</mxfile>
